Blinker-ExtraBold.ufo
<glyph name="exclam" format="1">
  <advance width="258"/>
  <unicode hex="0021"/>
  <outline>
    <contour>
      <point x="231" y="627" type="line"/>
      <point x="27" y="627" type="line"/>
      <point x="50" y="215" type="line"/>
      <point x="209" y="215" type="line"/>
    </contour>
    <contour>
      <point x="221" y="0" type="line"/>
      <point x="221" y="158" type="line"/>
      <point x="37" y="158" type="line"/>
      <point x="37" y="0" type="line"/>
    </contour>
  </outline>
</glyph>
<glyph name="quotedbl" format="1">
  <advance width="330"/>
  <unicode hex="0022"/>
  <outline>
    <contour>
      <point x="138" y="627" type="line"/>
      <point x="26" y="627" type="line"/>
      <point x="26" y="399" type="line"/>
      <point x="138" y="399" type="line"/>
    </contour>
    <contour>
      <point x="304" y="627" type="line"/>
      <point x="191" y="627" type="line"/>
      <point x="191" y="399" type="line"/>
      <point x="304" y="399" type="line"/>
    </contour>
  </outline>
</glyph>
<glyph name="numbersign" format="1">
  <advance width="549"/>
  <unicode hex="0023"/>
  <outline>
    <contour>
      <point x="534" y="377" type="line"/>
      <point x="534" y="493" type="line"/>
      <point x="466" y="493" type="line"/>
      <point x="488" y="627" type="line"/>
      <point x="368" y="627" type="line"/>
      <point x="344" y="493" type="line"/>
      <point x="266" y="493" type="line"/>
      <point x="288" y="627" type="line"/>
      <point x="168" y="627" type="line"/>
      <point x="145" y="493" type="line"/>
      <point x="50" y="493" type="line"/>
      <point x="50" y="377" type="line"/>
      <point x="124" y="377" type="line"/>
      <point x="106" y="260" type="line"/>
      <point x="15" y="260" type="line"/>
      <point x="15" y="144" type="line"/>
      <point x="88" y="144" type="line"/>
      <point x="64" y="0" type="line"/>
      <point x="185" y="0" type="line"/>
      <point x="208" y="144" type="line"/>
      <point x="288" y="144" type="line"/>
      <point x="265" y="0" type="line"/>
      <point x="385" y="0" type="line"/>
      <point x="409" y="144" type="line"/>
      <point x="499" y="144" type="line"/>
      <point x="499" y="260" type="line"/>
      <point x="428" y="260" type="line"/>
      <point x="445" y="377" type="line"/>
    </contour>
    <contour>
      <point x="324" y="377" type="line"/>
      <point x="306" y="260" type="line"/>
      <point x="227" y="260" type="line"/>
      <point x="246" y="377" type="line"/>
    </contour>
  </outline>
</glyph>
<glyph name="dollar" format="1">
  <advance width="484"/>
  <unicode hex="0024"/>
  <outline>
    <contour>
      <point x="289" y="568" type="line"/>
      <point x="289" y="716" type="line"/>
      <point x="190" y="716" type="line"/>
      <point x="190" y="568" type="line"/>
    </contour>
    <contour>
      <point x="289" y="-89" type="line"/>
      <point x="289" y="71" type="line"/>
      <point x="190" y="71" type="line"/>
      <point x="190" y="-89" type="line"/>
    </contour>
    <contour>
      <point x="161" y="253" type="curve" smooth="yes"/>
      <point x="261" y="228" type="line" smooth="yes"/>
      <point x="281" y="223"/>
      <point x="289" y="220"/>
      <point x="289" y="198" type="curve"/>
      <point x="289" y="171"/>
      <point x="276" y="161"/>
      <point x="228" y="161" type="curve"/>
      <point x="145" y="161"/>
      <point x="67" y="175"/>
      <point x="26" y="189" type="curve"/>
      <point x="26" y="15" type="line"/>
      <point x="60" y="2"/>
      <point x="141" y="-10"/>
      <point x="228" y="-10" type="curve"/>
      <point x="439" y="-10"/>
      <point x="469" y="100"/>
      <point x="469" y="202" type="curve"/>
      <point x="469" y="338"/>
      <point x="417" y="357"/>
      <point x="323" y="382" type="curve" smooth="yes"/>
      <point x="227" y="407" type="line" smooth="yes"/>
      <point x="208" y="412"/>
      <point x="202" y="417"/>
      <point x="202" y="432" type="curve"/>
      <point x="202" y="456"/>
      <point x="213" y="471"/>
      <point x="260" y="471" type="curve" smooth="yes"/>
      <point x="339" y="471"/>
      <point x="388" y="460"/>
      <point x="421" y="454" type="curve"/>
      <point x="421" y="619" type="line"/>
      <point x="387" y="629"/>
      <point x="337" y="637"/>
      <point x="257" y="637" type="curve" smooth="yes"/>
      <point x="99" y="637"/>
      <point x="23" y="573"/>
      <point x="23" y="423" type="curve"/>
      <point x="23" y="301"/>
      <point x="86" y="272"/>
    </contour>
  </outline>
</glyph>
<glyph name="ampersand" format="1">
  <advance width="666"/>
  <unicode hex="0026"/>
  <outline>
    <contour>
      <point x="392" y="164" type="line"/>
      <point x="384" y="159"/>
      <point x="354" y="154"/>
      <point x="322" y="154" type="curve" smooth="yes"/>
      <point x="236" y="154"/>
      <point x="207" y="193"/>
      <point x="207" y="341" type="curve"/>
      <point x="207" y="439"/>
      <point x="224" y="479"/>
      <point x="289" y="479" type="curve"/>
      <point x="334" y="479"/>
      <point x="348" y="459"/>
      <point x="348" y="434" type="curve" smooth="yes"/>
      <point x="348" y="391"/>
      <point x="312" y="363"/>
      <point x="142" y="365" type="curve"/>
      <point x="142" y="245" type="line"/>
      <point x="353" y="235"/>
      <point x="519" y="299"/>
      <point x="519" y="449" type="curve" smooth="yes"/>
      <point x="519" y="563"/>
      <point x="447" y="637"/>
      <point x="301" y="637" type="curve"/>
      <point x="117" y="637"/>
      <point x="20" y="527"/>
      <point x="20" y="324" type="curve"/>
      <point x="20" y="80"/>
      <point x="123" y="-11"/>
      <point x="320" y="-11" type="curve"/>
      <point x="430" y="-11"/>
      <point x="531" y="24"/>
      <point x="564" y="58" type="curve"/>
      <point x="564" y="234" type="line"/>
      <point x="659" y="234" type="line"/>
      <point x="659" y="381" type="line"/>
      <point x="392" y="381" type="line"/>
    </contour>
  </outline>
</glyph>
<glyph name="quotesingle" format="1">
  <advance width="176"/>
  <unicode hex="0027"/>
  <outline>
    <contour>
      <point x="150" y="627" type="line"/>
      <point x="26" y="627" type="line"/>
      <point x="26" y="399" type="line"/>
      <point x="150" y="399" type="line"/>
    </contour>
  </outline>
</glyph>
<glyph name="parenleft" format="1">
  <advance width="217"/>
  <unicode hex="0028"/>
  <outline>
    <contour>
      <point x="142" y="313" type="curve"/>
      <point x="142" y="418"/>
      <point x="154" y="578"/>
      <point x="203" y="678" type="curve"/>
      <point x="112" y="707" type="line"/>
      <point x="45" y="594"/>
      <point x="20" y="450"/>
      <point x="20" y="313" type="curve"/>
      <point x="20" y="174"/>
      <point x="48" y="33"/>
      <point x="112" y="-80" type="curve"/>
      <point x="205" y="-51" type="line"/>
      <point x="157" y="49"/>
      <point x="142" y="206"/>
    </contour>
  </outline>
</glyph>
<glyph name="asterisk" format="1">
  <advance width="365"/>
  <unicode hex="002A"/>
  <outline>
    <contour>
      <point x="166" y="423" type="line"/>
      <point x="200" y="504" type="line"/>
      <point x="47" y="569" type="line"/>
      <point x="11" y="466" type="line"/>
    </contour>
    <contour>
      <point x="218" y="436" type="line"/>
      <point x="151" y="496" type="line"/>
      <point x="43" y="369" type="line"/>
      <point x="130" y="303" type="line"/>
    </contour>
    <contour>
      <point x="216" y="497" type="line"/>
      <point x="148" y="438" type="line"/>
      <point x="233" y="303" type="line"/>
      <point x="322" y="367" type="line"/>
    </contour>
    <contour>
      <point x="165" y="508" type="line"/>
      <point x="196" y="425" type="line"/>
      <point x="353" y="465" type="line"/>
      <point x="319" y="568" type="line"/>
    </contour>
    <contour>
      <point x="138" y="464" type="line"/>
      <point x="225" y="464" type="line"/>
      <point x="235" y="627" type="line"/>
      <point x="126" y="627" type="line"/>
    </contour>
  </outline>
</glyph>
<glyph name="plus" format="1">
  <advance width="500"/>
  <unicode hex="002B"/>
  <outline>
    <contour>
      <point x="463" y="246" type="line"/>
      <point x="463" y="398" type="line"/>
      <point x="37" y="398" type="line"/>
      <point x="37" y="246" type="line"/>
    </contour>
    <contour>
      <point x="329" y="532" type="line"/>
      <point x="172" y="532" type="line"/>
      <point x="172" y="110" type="line"/>
      <point x="329" y="110" type="line"/>
    </contour>
  </outline>
</glyph>
<glyph name="comma" format="1">
  <advance width="208"/>
  <unicode hex="002C"/>
  <outline>
    <contour>
      <point x="162" y="-27" type="curve" smooth="yes"/>
      <point x="194" y="162" type="line"/>
      <point x="24" y="162" type="line"/>
      <point x="24" y="-86" type="line"/>
      <point x="89" y="-86" type="line" smooth="yes"/>
      <point x="128" y="-86"/>
      <point x="156" y="-63"/>
    </contour>
  </outline>
</glyph>
<glyph name="hyphen" format="1">
  <advance width="371"/>
  <unicode hex="002D"/>
  <outline>
    <contour>
      <point x="345" y="251" type="line"/>
      <point x="345" y="386" type="line"/>
      <point x="26" y="386" type="line"/>
      <point x="26" y="251" type="line"/>
    </contour>
  </outline>
</glyph>
<glyph name="period" format="1">
  <advance width="221"/>
  <unicode hex="002E"/>
  <outline>
    <contour>
      <point x="24" y="0" type="line"/>
      <point x="197" y="0" type="line"/>
      <point x="197" y="162" type="line"/>
      <point x="24" y="162" type="line"/>
    </contour>
  </outline>
</glyph>
<glyph name="zero" format="1">
  <advance width="570"/>
  <unicode hex="0030"/>
  <outline>
    <contour>
      <point x="285" y="469" type="curve"/>
      <point x="344" y="469"/>
      <point x="356" y="447"/>
      <point x="356" y="314" type="curve"/>
      <point x="356" y="185"/>
      <point x="344" y="163"/>
      <point x="285" y="163" type="curve"/>
      <point x="226" y="163"/>
      <point x="214" y="185"/>
      <point x="214" y="314" type="curve"/>
      <point x="214" y="447"/>
      <point x="226" y="469"/>
    </contour>
    <contour>
      <point x="285" y="-11" type="curve"/>
      <point x="463" y="-11"/>
      <point x="544" y="54"/>
      <point x="544" y="314" type="curve"/>
      <point x="544" y="569"/>
      <point x="487" y="637"/>
      <point x="285" y="637" type="curve"/>
      <point x="108" y="637"/>
      <point x="25" y="572"/>
      <point x="25" y="314" type="curve"/>
      <point x="25" y="57"/>
      <point x="84" y="-11"/>
    </contour>
  </outline>
</glyph>
<glyph name="one" format="1">
  <advance width="371"/>
  <unicode hex="0031"/>
  <outline>
    <contour>
      <point x="142" y="0" type="line"/>
      <point x="328" y="0" type="line"/>
      <point x="328" y="637" type="line"/>
      <point x="142" y="578" type="line"/>
    </contour>
    <contour>
      <point x="9" y="446" type="line"/>
      <point x="144" y="461" type="line"/>
      <point x="328" y="637" type="line"/>
      <point x="9" y="602" type="line"/>
    </contour>
  </outline>
</glyph>
<glyph name="two" format="1">
  <advance width="465"/>
  <unicode hex="0032"/>
  <outline>
    <contour>
      <point x="435" y="0" type="line"/>
      <point x="435" y="174" type="line"/>
      <point x="236" y="174" type="line"/>
      <point x="371" y="308" type="line" smooth="yes"/>
      <point x="417" y="353"/>
      <point x="439" y="398"/>
      <point x="439" y="472" type="curve"/>
      <point x="439" y="567"/>
      <point x="379" y="637"/>
      <point x="256" y="637" type="curve"/>
      <point x="174" y="637"/>
      <point x="92" y="625"/>
      <point x="47" y="613" type="curve"/>
      <point x="47" y="451" type="line"/>
      <point x="65" y="454"/>
      <point x="155" y="469"/>
      <point x="217" y="469" type="curve"/>
      <point x="249" y="469"/>
      <point x="257" y="450"/>
      <point x="257" y="435" type="curve"/>
      <point x="257" y="412"/>
      <point x="248" y="395"/>
      <point x="227" y="375" type="curve" smooth="yes"/>
      <point x="19" y="174" type="line"/>
      <point x="19" y="0" type="line"/>
    </contour>
  </outline>
</glyph>
<glyph name="three" format="1">
  <advance width="457"/>
  <unicode hex="0033"/>
  <outline>
    <contour>
      <point x="320" y="331" type="line"/>
      <point x="387" y="350"/>
      <point x="414" y="401"/>
      <point x="414" y="474" type="curve"/>
      <point x="414" y="582"/>
      <point x="353" y="637"/>
      <point x="239" y="637" type="curve"/>
      <point x="166" y="637"/>
      <point x="75" y="625"/>
      <point x="34" y="611" type="curve"/>
      <point x="34" y="461" type="line"/>
      <point x="50" y="464"/>
      <point x="138" y="476"/>
      <point x="183" y="476" type="curve"/>
      <point x="230" y="476"/>
      <point x="240" y="462"/>
      <point x="240" y="436" type="curve"/>
      <point x="240" y="411"/>
      <point x="228" y="395"/>
      <point x="182" y="395" type="curve"/>
      <point x="84" y="395" type="line"/>
      <point x="84" y="244" type="line"/>
      <point x="206" y="244" type="line"/>
      <point x="246" y="244"/>
      <point x="261" y="229"/>
      <point x="261" y="201" type="curve"/>
      <point x="261" y="168"/>
      <point x="245" y="156"/>
      <point x="188" y="156" type="curve"/>
      <point x="127" y="156"/>
      <point x="75" y="158"/>
      <point x="23" y="167" type="curve"/>
      <point x="23" y="11" type="line"/>
      <point x="57" y="-2"/>
      <point x="133" y="-11"/>
      <point x="213" y="-11" type="curve"/>
      <point x="342" y="-11"/>
      <point x="435" y="49"/>
      <point x="435" y="181" type="curve"/>
      <point x="435" y="270"/>
      <point x="399" y="323"/>
      <point x="320" y="329" type="curve"/>
    </contour>
  </outline>
</glyph>
<glyph name="four" format="1">
  <advance width="528"/>
  <unicode hex="0034"/>
  <outline>
    <contour>
      <point x="513" y="131" type="line"/>
      <point x="513" y="293" type="line"/>
      <point x="453" y="293" type="line"/>
      <point x="453" y="517" type="line"/>
      <point x="290" y="517" type="line"/>
      <point x="275" y="293" type="line"/>
      <point x="205" y="293" type="line"/>
      <point x="264" y="627" type="line"/>
      <point x="89" y="627" type="line"/>
      <point x="20" y="293" type="line"/>
      <point x="20" y="131" type="line"/>
      <point x="267" y="131" type="line"/>
      <point x="267" y="0" type="line"/>
      <point x="453" y="0" type="line"/>
      <point x="453" y="131" type="line"/>
    </contour>
  </outline>
</glyph>
<glyph name="five" format="1">
  <advance width="460"/>
  <unicode hex="0035"/>
  <outline>
    <contour>
      <point x="226" y="-11" type="curve"/>
      <point x="350" y="-11"/>
      <point x="440" y="51"/>
      <point x="440" y="195" type="curve" smooth="yes"/>
      <point x="440" y="354"/>
      <point x="372" y="387"/>
      <point x="290" y="387" type="curve" smooth="yes"/>
      <point x="274" y="387"/>
      <point x="251" y="386"/>
      <point x="234" y="384" type="curve"/>
      <point x="234" y="459" type="line"/>
      <point x="400" y="459" type="line"/>
      <point x="400" y="627" type="line"/>
      <point x="48" y="627" type="line"/>
      <point x="48" y="237" type="line"/>
      <point x="90" y="244"/>
      <point x="132" y="245"/>
      <point x="179" y="246" type="curve" smooth="yes"/>
      <point x="239" y="246"/>
      <point x="254" y="235"/>
      <point x="254" y="201" type="curve" smooth="yes"/>
      <point x="254" y="172"/>
      <point x="238" y="159"/>
      <point x="184" y="159" type="curve"/>
      <point x="125" y="159"/>
      <point x="77" y="162"/>
      <point x="25" y="171" type="curve"/>
      <point x="25" y="11" type="line"/>
      <point x="62" y="-3"/>
      <point x="139" y="-11"/>
    </contour>
  </outline>
</glyph>
<glyph name="six" format="1">
  <advance width="512"/>
  <unicode hex="0036"/>
  <outline>
    <contour>
      <point x="24" y="297" type="curve"/>
      <point x="24" y="66"/>
      <point x="88" y="-11"/>
      <point x="271" y="-11" type="curve"/>
      <point x="414" y="-11"/>
      <point x="494" y="73"/>
      <point x="494" y="216" type="curve"/>
      <point x="494" y="354"/>
      <point x="440" y="416"/>
      <point x="332" y="416" type="curve"/>
      <point x="256" y="416"/>
      <point x="211" y="385"/>
      <point x="192" y="374" type="curve"/>
      <point x="192" y="254" type="line"/>
      <point x="207" y="262"/>
      <point x="240" y="272"/>
      <point x="267" y="272" type="curve"/>
      <point x="305" y="272"/>
      <point x="321" y="261"/>
      <point x="321" y="210" type="curve"/>
      <point x="321" y="166"/>
      <point x="302" y="147"/>
      <point x="266" y="147" type="curve"/>
      <point x="213" y="147"/>
      <point x="207" y="170"/>
      <point x="207" y="280" type="curve"/>
      <point x="207" y="447"/>
      <point x="230" y="479"/>
      <point x="336" y="479" type="curve"/>
      <point x="384" y="479"/>
      <point x="419" y="475"/>
      <point x="439" y="473" type="curve"/>
      <point x="439" y="627" type="line"/>
      <point x="420" y="633"/>
      <point x="371" y="637"/>
      <point x="329" y="637" type="curve"/>
      <point x="124" y="637"/>
      <point x="24" y="531"/>
    </contour>
  </outline>
</glyph>
<glyph name="seven" format="1">
  <advance width="453"/>
  <unicode hex="0037"/>
  <outline>
    <contour>
      <point x="437" y="459" type="line"/>
      <point x="437" y="627" type="line"/>
      <point x="24" y="627" type="line"/>
      <point x="24" y="459" type="line"/>
      <point x="238" y="459" type="line"/>
      <point x="8" y="0" type="line"/>
      <point x="218" y="0" type="line"/>
    </contour>
  </outline>
</glyph>
<glyph name="eight" format="1">
  <advance width="515"/>
  <unicode hex="0038"/>
  <outline>
    <contour>
      <point x="257" y="-11" type="curve"/>
      <point x="421" y="-11"/>
      <point x="492" y="44"/>
      <point x="492" y="170" type="curve"/>
      <point x="492" y="244"/>
      <point x="460" y="302"/>
      <point x="392" y="325" type="curve"/>
      <point x="460" y="352"/>
      <point x="481" y="404"/>
      <point x="481" y="467" type="curve"/>
      <point x="481" y="592"/>
      <point x="421" y="637"/>
      <point x="257" y="637" type="curve"/>
      <point x="102" y="637"/>
      <point x="34" y="587"/>
      <point x="34" y="469" type="curve"/>
      <point x="33" y="404"/>
      <point x="54" y="352"/>
      <point x="123" y="325" type="curve"/>
      <point x="56" y="302"/>
      <point x="23" y="246"/>
      <point x="23" y="172" type="curve"/>
      <point x="23" y="39"/>
      <point x="86" y="-11"/>
    </contour>
    <contour>
      <point x="257" y="490" type="curve"/>
      <point x="300" y="490"/>
      <point x="318" y="476"/>
      <point x="318" y="440" type="curve"/>
      <point x="318" y="404"/>
      <point x="300" y="388"/>
      <point x="257" y="388" type="curve"/>
      <point x="214" y="388"/>
      <point x="197" y="404"/>
      <point x="197" y="441" type="curve"/>
      <point x="197" y="476"/>
      <point x="214" y="490"/>
    </contour>
    <contour>
      <point x="257" y="247" type="curve"/>
      <point x="303" y="247"/>
      <point x="320" y="233"/>
      <point x="320" y="196" type="curve"/>
      <point x="320" y="158"/>
      <point x="303" y="143"/>
      <point x="257" y="143" type="curve"/>
      <point x="212" y="143"/>
      <point x="195" y="158"/>
      <point x="195" y="196" type="curve"/>
      <point x="195" y="233"/>
      <point x="212" y="247"/>
    </contour>
  </outline>
</glyph>
<glyph name="nine" format="1">
  <advance width="513"/>
  <unicode hex="0039"/>
  <outline>
    <contour>
      <point x="489" y="330" type="curve"/>
      <point x="489" y="561"/>
      <point x="426" y="637"/>
      <point x="245" y="637" type="curve"/>
      <point x="99" y="637"/>
      <point x="18" y="553"/>
      <point x="18" y="411" type="curve"/>
      <point x="18" y="274"/>
      <point x="73" y="212"/>
      <point x="183" y="212" type="curve"/>
      <point x="253" y="212"/>
      <point x="301" y="241"/>
      <point x="321" y="251" type="curve"/>
      <point x="321" y="375" type="line"/>
      <point x="306" y="366"/>
      <point x="284" y="354"/>
      <point x="246" y="354" type="curve"/>
      <point x="207" y="354"/>
      <point x="192" y="365"/>
      <point x="192" y="416" type="curve"/>
      <point x="192" y="460"/>
      <point x="210" y="480"/>
      <point x="247" y="480" type="curve"/>
      <point x="300" y="480"/>
      <point x="306" y="457"/>
      <point x="306" y="347" type="curve"/>
      <point x="306" y="181"/>
      <point x="283" y="149"/>
      <point x="177" y="149" type="curve"/>
      <point x="127" y="149"/>
      <point x="93" y="152"/>
      <point x="71" y="155" type="curve"/>
      <point x="71" y="-1" type="line"/>
      <point x="90" y="-6"/>
      <point x="141" y="-10"/>
      <point x="183" y="-10" type="curve"/>
      <point x="389" y="-10"/>
      <point x="489" y="96"/>
    </contour>
  </outline>
</glyph>
<glyph name="less" format="1">
  <advance width="500"/>
  <unicode hex="003C"/>
  <outline>
    <contour>
      <point x="463" y="392" type="line"/>
      <point x="463" y="548" type="line"/>
      <point x="37" y="400" type="line"/>
      <point x="37" y="269" type="line"/>
    </contour>
    <contour>
      <point x="463" y="76" type="line"/>
      <point x="463" y="235" type="line"/>
      <point x="37" y="358" type="line"/>
      <point x="37" y="224" type="line"/>
    </contour>
  </outline>
</glyph>
<glyph name="question" format="1">
  <advance width="374"/>
  <unicode hex="003F"/>
  <outline>
    <contour>
      <point x="361" y="497" type="curve" smooth="yes"/>
      <point x="361" y="595"/>
      <point x="283" y="637"/>
      <point x="191" y="637" type="curve"/>
      <point x="118" y="637"/>
      <point x="71" y="629"/>
      <point x="18" y="609" type="curve"/>
      <point x="18" y="455" type="line"/>
      <point x="51" y="466"/>
      <point x="115" y="479"/>
      <point x="155" y="479" type="curve"/>
      <point x="179" y="479"/>
      <point x="193" y="471"/>
      <point x="193" y="448" type="curve" smooth="yes"/>
      <point x="193" y="416"/>
      <point x="144" y="385"/>
      <point x="81" y="353" type="curve"/>
      <point x="81" y="216" type="line"/>
      <point x="244" y="216" type="line"/>
      <point x="244" y="311" type="line"/>
      <point x="315" y="360"/>
      <point x="361" y="411"/>
    </contour>
    <contour>
      <point x="255" y="0" type="line"/>
      <point x="255" y="158" type="line"/>
      <point x="70" y="158" type="line"/>
      <point x="70" y="0" type="line"/>
    </contour>
  </outline>
</glyph>
<glyph name="at" format="1">
  <advance width="608"/>
  <unicode hex="0040"/>
  <outline>
    <contour>
      <point x="185" y="181" type="curve"/>
      <point x="185" y="114"/>
      <point x="213" y="83"/>
      <point x="275" y="83" type="curve"/>
      <point x="316" y="83"/>
      <point x="374" y="102"/>
      <point x="394" y="148" type="curve"/>
      <point x="359" y="187" type="line"/>
      <point x="358" y="182"/>
      <point x="332" y="169"/>
      <point x="306" y="169" type="curve"/>
      <point x="288" y="169"/>
      <point x="283" y="174"/>
      <point x="283" y="187" type="curve"/>
      <point x="283" y="202"/>
      <point x="287" y="207"/>
      <point x="315" y="207" type="curve"/>
      <point x="344" y="207"/>
      <point x="352" y="204"/>
      <point x="359" y="201" type="curve"/>
      <point x="359" y="267" type="line"/>
      <point x="353" y="270"/>
      <point x="325" y="274"/>
      <point x="299" y="274" type="curve"/>
      <point x="214" y="274"/>
      <point x="185" y="251"/>
    </contour>
    <contour>
      <point x="595" y="300" type="curve"/>
      <point x="595" y="465"/>
      <point x="500" y="557"/>
      <point x="322" y="557" type="curve"/>
      <point x="132" y="557"/>
      <point x="19" y="448"/>
      <point x="19" y="240" type="curve" smooth="yes"/>
      <point x="19" y="10"/>
      <point x="151" y="-76"/>
      <point x="323" y="-76" type="curve"/>
      <point x="404" y="-76"/>
      <point x="465" y="-61"/>
      <point x="508" y="-36" type="curve"/>
      <point x="508" y="66" type="line"/>
      <point x="461" y="41"/>
      <point x="396" y="31"/>
      <point x="353" y="31" type="curve"/>
      <point x="218" y="31"/>
      <point x="134" y="75"/>
      <point x="134" y="239" type="curve" smooth="yes"/>
      <point x="134" y="403"/>
      <point x="187" y="454"/>
      <point x="324" y="454" type="curve"/>
      <point x="454" y="454"/>
      <point x="490" y="371"/>
      <point x="490" y="287" type="curve"/>
      <point x="490" y="215"/>
      <point x="469" y="174"/>
      <point x="454" y="174" type="curve"/>
      <point x="448" y="174"/>
      <point x="446" y="177"/>
      <point x="446" y="188" type="curve" smooth="yes"/>
      <point x="446" y="300" type="line" smooth="yes"/>
      <point x="446" y="368"/>
      <point x="404" y="399"/>
      <point x="336" y="399" type="curve"/>
      <point x="285" y="399"/>
      <point x="243" y="396"/>
      <point x="210" y="389" type="curve"/>
      <point x="210" y="298" type="line"/>
      <point x="222" y="300"/>
      <point x="248" y="304"/>
      <point x="305" y="304" type="curve" smooth="yes"/>
      <point x="335" y="304"/>
      <point x="348" y="298"/>
      <point x="348" y="282" type="curve" smooth="yes"/>
      <point x="348" y="159" type="line"/>
      <point x="368" y="159" type="line"/>
      <point x="370" y="121"/>
      <point x="388" y="83"/>
      <point x="438" y="83" type="curve"/>
      <point x="530" y="83"/>
      <point x="595" y="175"/>
    </contour>
  </outline>
</glyph>
<glyph name="A" format="1">
  <advance width="627"/>
  <unicode hex="0041"/>
  <outline>
    <contour>
      <point x="-6" y="0" type="line"/>
      <point x="185" y="0" type="line"/>
      <point x="268" y="286" type="line" smooth="yes"/>
      <point x="285" y="345"/>
      <point x="334" y="515"/>
      <point x="356" y="627" type="curve"/>
      <point x="219" y="627" type="line"/>
    </contour>
    <contour>
      <point x="630" y="0" type="line"/>
      <point x="412" y="627" type="line"/>
      <point x="266" y="627" type="line"/>
      <point x="289" y="510"/>
      <point x="338" y="346"/>
      <point x="356" y="286" type="curve" smooth="yes"/>
      <point x="440" y="0" type="line"/>
    </contour>
    <contour>
      <point x="147" y="87" type="line"/>
      <point x="463" y="87" type="line"/>
      <point x="463" y="231" type="line"/>
      <point x="147" y="231" type="line"/>
    </contour>
    <contour>
      <point x="314" y="645" type="move" name="top"/>
    </contour>
    <contour>
      <point x="626" y="0" type="move" name="ogonek"/>
    </contour>
  </outline>
</glyph>
<glyph name="B" format="1">
  <advance width="560"/>
  <unicode hex="0042"/>
  <outline>
    <contour>
      <point x="310" y="0" type="line" smooth="yes"/>
      <point x="467" y="0"/>
      <point x="545" y="55"/>
      <point x="545" y="186" type="curve"/>
      <point x="545" y="281"/>
      <point x="504" y="319"/>
      <point x="443" y="333" type="curve"/>
      <point x="486" y="349"/>
      <point x="513" y="379"/>
      <point x="513" y="463" type="curve"/>
      <point x="513" y="580"/>
      <point x="455" y="627"/>
      <point x="310" y="627" type="curve" smooth="yes"/>
      <point x="119" y="627" type="line"/>
      <point x="119" y="477" type="line"/>
      <point x="308" y="477" type="line" smooth="yes"/>
      <point x="336" y="477"/>
      <point x="349" y="465"/>
      <point x="349" y="431" type="curve"/>
      <point x="349" y="393"/>
      <point x="337" y="379"/>
      <point x="308" y="379" type="curve" smooth="yes"/>
      <point x="119" y="379" type="line"/>
      <point x="119" y="254" type="line"/>
      <point x="310" y="254" type="line" smooth="yes"/>
      <point x="349" y="254"/>
      <point x="364" y="240"/>
      <point x="364" y="204" type="curve"/>
      <point x="364" y="170"/>
      <point x="349" y="156"/>
      <point x="310" y="156" type="curve" smooth="yes"/>
      <point x="119" y="156" type="line"/>
      <point x="119" y="0" type="line"/>
    </contour>
    <contour>
      <point x="221" y="0" type="line"/>
      <point x="221" y="627" type="line"/>
      <point x="39" y="627" type="line"/>
      <point x="39" y="0" type="line"/>
    </contour>
  </outline>
</glyph>
<glyph name="C" format="1">
  <advance width="507"/>
  <unicode hex="0043"/>
  <outline>
    <contour>
      <point x="492" y="192" type="line"/>
      <point x="445" y="175"/>
      <point x="377" y="163"/>
      <point x="323" y="163" type="curve" smooth="yes"/>
      <point x="249" y="163"/>
      <point x="214" y="183"/>
      <point x="214" y="314" type="curve" smooth="yes"/>
      <point x="214" y="448"/>
      <point x="246" y="469"/>
      <point x="333" y="469" type="curve"/>
      <point x="385" y="469"/>
      <point x="431" y="468"/>
      <point x="478" y="465" type="curve"/>
      <point x="478" y="628" type="line"/>
      <point x="434" y="635"/>
      <point x="383" y="637"/>
      <point x="331" y="637" type="curve"/>
      <point x="129" y="637"/>
      <point x="21" y="551"/>
      <point x="21" y="314" type="curve" smooth="yes"/>
      <point x="21" y="40"/>
      <point x="119" y="-11"/>
      <point x="299" y="-11" type="curve" smooth="yes"/>
      <point x="389" y="-11"/>
      <point x="447" y="10"/>
      <point x="492" y="28" type="curve"/>
    </contour>
    <contour>
      <point x="288" y="655" type="move" name="top"/>
    </contour>
    <contour>
      <point x="285" y="0" type="move" name="bottom"/>
    </contour>
  </outline>
</glyph>
<glyph name="D" format="1">
  <advance width="603"/>
  <unicode hex="0044"/>
  <outline>
    <contour>
      <point x="64" y="463" type="line"/>
      <point x="274" y="463" type="line" smooth="yes"/>
      <point x="360" y="463"/>
      <point x="390" y="445"/>
      <point x="390" y="314" type="curve"/>
      <point x="390" y="187"/>
      <point x="360" y="169"/>
      <point x="274" y="169" type="curve" smooth="yes"/>
      <point x="66" y="169" type="line"/>
      <point x="66" y="0" type="line"/>
      <point x="274" y="0" type="line" smooth="yes"/>
      <point x="476" y="0"/>
      <point x="582" y="83"/>
      <point x="582" y="314" type="curve"/>
      <point x="582" y="572"/>
      <point x="485" y="627"/>
      <point x="274" y="627" type="curve" smooth="yes"/>
      <point x="64" y="627" type="line"/>
    </contour>
    <contour>
      <point x="224" y="0" type="line"/>
      <point x="224" y="627" type="line"/>
      <point x="39" y="627" type="line"/>
      <point x="39" y="0" type="line"/>
    </contour>
    <contour>
      <point x="282" y="645" type="move" name="top"/>
    </contour>
  </outline>
</glyph>
<glyph name="E" format="1">
  <advance width="499"/>
  <unicode hex="0045"/>
  <outline>
    <contour>
      <point x="477" y="0" type="line"/>
      <point x="477" y="167" type="line"/>
      <point x="224" y="167" type="line"/>
      <point x="224" y="241" type="line"/>
      <point x="431" y="241" type="line"/>
      <point x="431" y="393" type="line"/>
      <point x="224" y="393" type="line"/>
      <point x="224" y="464" type="line"/>
      <point x="468" y="464" type="line"/>
      <point x="468" y="627" type="line"/>
      <point x="39" y="627" type="line"/>
      <point x="39" y="0" type="line"/>
    </contour>
    <contour>
      <point x="262" y="645" type="move" name="top"/>
    </contour>
    <contour>
      <point x="449" y="0" type="move" name="ogonek"/>
    </contour>
  </outline>
</glyph>
<glyph name="F" format="1">
  <advance width="487"/>
  <unicode hex="0046"/>
  <outline>
    <contour>
      <point x="224" y="0" type="line"/>
      <point x="224" y="215" type="line"/>
      <point x="434" y="215" type="line"/>
      <point x="434" y="369" type="line"/>
      <point x="224" y="369" type="line"/>
      <point x="224" y="459" type="line"/>
      <point x="471" y="459" type="line"/>
      <point x="471" y="627" type="line"/>
      <point x="39" y="627" type="line"/>
      <point x="39" y="0" type="line"/>
    </contour>
  </outline>
</glyph>
<glyph name="G" format="1">
  <advance width="575"/>
  <unicode hex="0047"/>
  <outline>
    <contour>
      <point x="380" y="28" type="line"/>
      <point x="549" y="28" type="line"/>
      <point x="549" y="322" type="line"/>
      <point x="380" y="322" type="line"/>
    </contour>
    <contour>
      <point x="504" y="183" type="line"/>
      <point x="466" y="167"/>
      <point x="385" y="152"/>
      <point x="325" y="152" type="curve"/>
      <point x="244" y="152"/>
      <point x="213" y="176"/>
      <point x="213" y="314" type="curve" smooth="yes"/>
      <point x="213" y="448"/>
      <point x="246" y="469"/>
      <point x="337" y="469" type="curve" smooth="yes"/>
      <point x="404" y="469"/>
      <point x="464" y="467"/>
      <point x="515" y="464" type="curve"/>
      <point x="515" y="626" type="line"/>
      <point x="471" y="634"/>
      <point x="403" y="637"/>
      <point x="335" y="637" type="curve"/>
      <point x="129" y="637"/>
      <point x="21" y="551"/>
      <point x="21" y="314" type="curve" smooth="yes"/>
      <point x="21" y="50"/>
      <point x="128" y="-11"/>
      <point x="317" y="-11" type="curve"/>
      <point x="416" y="-11"/>
      <point x="509" y="11"/>
      <point x="549" y="28" type="curve"/>
    </contour>
    <contour>
      <point x="292" y="231" type="line"/>
      <point x="549" y="231" type="line"/>
      <point x="549" y="370" type="line"/>
      <point x="292" y="370" type="line"/>
    </contour>
    <contour>
      <point x="320" y="655" type="move" name="top"/>
    </contour>
    <contour>
      <point x="318" y="0" type="move" name="bottom"/>
    </contour>
  </outline>
</glyph>
<glyph name="H" format="1">
  <advance width="621"/>
  <unicode hex="0048"/>
  <outline>
    <contour>
      <point x="39" y="0" type="line"/>
      <point x="224" y="0" type="line"/>
      <point x="224" y="627" type="line"/>
      <point x="39" y="627" type="line"/>
    </contour>
    <contour>
      <point x="396" y="0" type="line"/>
      <point x="582" y="0" type="line"/>
      <point x="582" y="627" type="line"/>
      <point x="396" y="627" type="line"/>
    </contour>
    <contour>
      <point x="157" y="234" type="line"/>
      <point x="489" y="234" type="line"/>
      <point x="489" y="402" type="line"/>
      <point x="157" y="402" type="line"/>
    </contour>
    <contour>
      <point x="311" y="645" type="move" name="top"/>
    </contour>
  </outline>
</glyph>
<glyph name="J" format="1">
  <advance width="413"/>
  <unicode hex="004A"/>
  <outline>
    <contour>
      <point x="193" y="627" type="line"/>
      <point x="193" y="250" type="line" smooth="yes"/>
      <point x="193" y="180"/>
      <point x="174" y="163"/>
      <point x="96" y="163" type="curve"/>
      <point x="56" y="163"/>
      <point x="32" y="165"/>
      <point x="12" y="169" type="curve"/>
      <point x="12" y="-1" type="line"/>
      <point x="33" y="-5"/>
      <point x="66" y="-11"/>
      <point x="124" y="-11" type="curve"/>
      <point x="304" y="-11"/>
      <point x="378" y="55"/>
      <point x="378" y="236" type="curve" smooth="yes"/>
      <point x="378" y="627" type="line"/>
    </contour>
    <contour>
      <point x="286" y="645" type="move" name="top"/>
    </contour>
  </outline>
</glyph>
<glyph name="K" format="1">
  <advance width="616"/>
  <unicode hex="004B"/>
  <outline>
    <contour>
      <point x="630" y="0" type="line"/>
      <point x="418" y="324" type="line"/>
      <point x="623" y="627" type="line"/>
      <point x="403" y="627" type="line"/>
      <point x="257" y="391" type="line"/>
      <point x="224" y="391" type="line"/>
      <point x="224" y="627" type="line"/>
      <point x="39" y="627" type="line"/>
      <point x="39" y="0" type="line"/>
      <point x="224" y="0" type="line"/>
      <point x="224" y="245" type="line"/>
      <point x="257" y="245" type="line"/>
      <point x="399" y="0" type="line"/>
    </contour>
    <contour>
      <point x="295" y="0" type="move" name="bottom"/>
    </contour>
  </outline>
</glyph>
<glyph name="L" format="1">
  <advance width="458"/>
  <unicode hex="004C"/>
  <outline>
    <contour>
      <point x="445" y="0" type="line"/>
      <point x="445" y="174" type="line"/>
      <point x="224" y="174" type="line"/>
      <point x="224" y="627" type="line"/>
      <point x="39" y="627" type="line"/>
      <point x="39" y="0" type="line"/>
    </contour>
    <contour>
      <point x="132" y="645" type="move" name="top"/>
    </contour>
    <contour>
      <point x="294" y="627" type="move" name="caronalt"/>
    </contour>
    <contour>
      <point x="256" y="0" type="move" name="bottom"/>
    </contour>
  </outline>
</glyph>
<glyph name="M" format="1">
  <advance width="730"/>
  <unicode hex="004D"/>
  <outline>
    <contour>
      <point x="692" y="0" type="line"/>
      <point x="692" y="627" type="line"/>
      <point x="475" y="627" type="line"/>
      <point x="367" y="347" type="line"/>
      <point x="264" y="627" type="line"/>
      <point x="39" y="627" type="line"/>
      <point x="39" y="0" type="line"/>
      <point x="212" y="0" type="line"/>
      <point x="212" y="332" type="line"/>
      <point x="291" y="118" type="line"/>
      <point x="436" y="118" type="line"/>
      <point x="518" y="333" type="line"/>
      <point x="518" y="0" type="line"/>
    </contour>
  </outline>
</glyph>
<glyph name="N" format="1">
  <advance width="634"/>
  <unicode hex="004E"/>
  <outline>
    <contour>
      <point x="595" y="0" type="line"/>
      <point x="595" y="627" type="line"/>
      <point x="422" y="627" type="line"/>
      <point x="422" y="299" type="line"/>
      <point x="212" y="627" type="line"/>
      <point x="39" y="627" type="line"/>
      <point x="39" y="0" type="line"/>
      <point x="212" y="0" type="line"/>
      <point x="212" y="311" type="line"/>
      <point x="420" y="0" type="line"/>
    </contour>
    <contour>
      <point x="324" y="645" type="move" name="top"/>
    </contour>
    <contour>
      <point x="313" y="0" type="move" name="bottom"/>
    </contour>
  </outline>
</glyph>
<glyph name="O" format="1">
  <advance width="645"/>
  <unicode hex="004F"/>
  <outline>
    <contour>
      <point x="322" y="-11" type="curve"/>
      <point x="537" y="-11"/>
      <point x="624" y="88"/>
      <point x="624" y="314" type="curve"/>
      <point x="624" y="547"/>
      <point x="546" y="637"/>
      <point x="322" y="637" type="curve"/>
      <point x="108" y="637"/>
      <point x="21" y="538"/>
      <point x="21" y="314" type="curve"/>
      <point x="21" y="79"/>
      <point x="99" y="-11"/>
    </contour>
    <contour>
      <point x="322" y="163" type="curve" smooth="yes"/>
      <point x="236" y="163"/>
      <point x="209" y="185"/>
      <point x="209" y="314" type="curve"/>
      <point x="209" y="446"/>
      <point x="236" y="469"/>
      <point x="322" y="469" type="curve"/>
      <point x="409" y="469"/>
      <point x="436" y="446"/>
      <point x="436" y="314" type="curve"/>
      <point x="436" y="185"/>
      <point x="409" y="163"/>
    </contour>
    <contour>
      <point x="322" y="655" type="move" name="top"/>
    </contour>
  </outline>
</glyph>
<glyph name="P" format="1">
  <advance width="564"/>
  <unicode hex="0050"/>
  <outline>
    <contour>
      <point x="277" y="166" type="line" smooth="yes"/>
      <point x="460" y="166"/>
      <point x="550" y="236"/>
      <point x="550" y="401" type="curve"/>
      <point x="550" y="569"/>
      <point x="470" y="627"/>
      <point x="274" y="627" type="curve" smooth="yes"/>
      <point x="169" y="627" type="line"/>
      <point x="169" y="459" type="line"/>
      <point x="283" y="459" type="line" smooth="yes"/>
      <point x="335" y="459"/>
      <point x="361" y="447"/>
      <point x="361" y="398" type="curve"/>
      <point x="361" y="340"/>
      <point x="335" y="327"/>
      <point x="283" y="327" type="curve" smooth="yes"/>
      <point x="169" y="327" type="line"/>
      <point x="169" y="166" type="line"/>
    </contour>
    <contour>
      <point x="224" y="0" type="line"/>
      <point x="224" y="627" type="line"/>
      <point x="39" y="627" type="line"/>
      <point x="39" y="0" type="line"/>
    </contour>
  </outline>
</glyph>
<glyph name="Q" format="1">
  <advance width="645"/>
  <unicode hex="0051"/>
  <outline>
    <contour>
      <point x="268" y="89" type="line"/>
      <point x="421" y="-128" type="line"/>
      <point x="633" y="-128" type="line"/>
      <point x="473" y="89" type="line"/>
    </contour>
    <component base="O"/>
  </outline>
</glyph>
<glyph name="R" format="1">
  <advance width="583"/>
  <unicode hex="0052"/>
  <outline>
    <contour>
      <point x="277" y="196" type="line" smooth="yes"/>
      <point x="460" y="196"/>
      <point x="550" y="256"/>
      <point x="550" y="407" type="curve"/>
      <point x="550" y="570"/>
      <point x="470" y="627"/>
      <point x="274" y="627" type="curve" smooth="yes"/>
      <point x="169" y="627" type="line"/>
      <point x="169" y="461" type="line"/>
      <point x="283" y="461" type="line" smooth="yes"/>
      <point x="335" y="461"/>
      <point x="361" y="450"/>
      <point x="361" y="404" type="curve"/>
      <point x="361" y="350"/>
      <point x="335" y="338"/>
      <point x="283" y="338" type="curve" smooth="yes"/>
      <point x="169" y="338" type="line"/>
      <point x="169" y="196" type="line"/>
    </contour>
    <contour>
      <point x="224" y="0" type="line"/>
      <point x="224" y="627" type="line"/>
      <point x="39" y="627" type="line"/>
      <point x="39" y="0" type="line"/>
    </contour>
    <contour>
      <point x="241" y="229" type="line"/>
      <point x="364" y="0" type="line"/>
      <point x="576" y="0" type="line"/>
      <point x="434" y="229" type="line"/>
    </contour>
    <contour>
      <point x="267" y="645" type="move" name="top"/>
    </contour>
    <contour>
      <point x="288" y="0" type="move" name="bottom"/>
    </contour>
  </outline>
</glyph>
<glyph name="S" format="1">
  <advance width="498"/>
  <unicode hex="0053"/>
  <outline>
    <contour>
      <point x="162" y="253" type="curve" smooth="yes"/>
      <point x="279" y="228" type="line" smooth="yes"/>
      <point x="296" y="224"/>
      <point x="303" y="220"/>
      <point x="303" y="198" type="curve"/>
      <point x="303" y="171"/>
      <point x="289" y="161"/>
      <point x="240" y="161" type="curve"/>
      <point x="152" y="161"/>
      <point x="70" y="175"/>
      <point x="27" y="189" type="curve"/>
      <point x="27" y="14" type="line"/>
      <point x="62" y="1"/>
      <point x="148" y="-11"/>
      <point x="239" y="-11" type="curve"/>
      <point x="453" y="-11"/>
      <point x="484" y="100"/>
      <point x="484" y="202" type="curve"/>
      <point x="484" y="338"/>
      <point x="431" y="361"/>
      <point x="336" y="382" type="curve" smooth="yes"/>
      <point x="227" y="406" type="line" smooth="yes"/>
      <point x="209" y="410"/>
      <point x="202" y="416"/>
      <point x="202" y="432" type="curve"/>
      <point x="202" y="456"/>
      <point x="214" y="471"/>
      <point x="264" y="471" type="curve" smooth="yes"/>
      <point x="348" y="471"/>
      <point x="400" y="460"/>
      <point x="436" y="454" type="curve"/>
      <point x="436" y="619" type="line"/>
      <point x="401" y="629"/>
      <point x="348" y="637"/>
      <point x="265" y="637" type="curve" smooth="yes"/>
      <point x="102" y="637"/>
      <point x="24" y="573"/>
      <point x="24" y="423" type="curve"/>
      <point x="24" y="301"/>
      <point x="87" y="270"/>
    </contour>
    <contour>
      <point x="251" y="655" type="move" name="top"/>
    </contour>
    <contour>
      <point x="237" y="0" type="move" name="bottom"/>
    </contour>
  </outline>
</glyph>
<glyph name="T" format="1">
  <advance width="519"/>
  <unicode hex="0054"/>
  <outline>
    <contour>
      <point x="507" y="459" type="line"/>
      <point x="507" y="627" type="line"/>
      <point x="12" y="627" type="line"/>
      <point x="12" y="459" type="line"/>
      <point x="167" y="459" type="line"/>
      <point x="167" y="0" type="line"/>
      <point x="353" y="0" type="line"/>
      <point x="353" y="459" type="line"/>
    </contour>
    <contour>
      <point x="260" y="645" type="move" name="top"/>
    </contour>
    <contour>
      <point x="260" y="0" type="move" name="bottom"/>
    </contour>
  </outline>
</glyph>
<glyph name="U" format="1">
  <advance width="622"/>
  <unicode hex="0055"/>
  <outline>
    <contour>
      <point x="403" y="627" type="line"/>
      <point x="403" y="270" type="line" smooth="yes"/>
      <point x="403" y="187"/>
      <point x="383" y="163"/>
      <point x="312" y="163" type="curve"/>
      <point x="239" y="163"/>
      <point x="219" y="187"/>
      <point x="219" y="270" type="curve" smooth="yes"/>
      <point x="219" y="627" type="line"/>
      <point x="34" y="627" type="line"/>
      <point x="34" y="269" type="line" smooth="yes"/>
      <point x="34" y="79"/>
      <point x="112" y="-11"/>
      <point x="313" y="-11" type="curve"/>
      <point x="491" y="-11"/>
      <point x="589" y="80"/>
      <point x="589" y="269" type="curve" smooth="yes"/>
      <point x="589" y="627" type="line"/>
    </contour>
    <contour>
      <point x="312" y="645" type="move" name="top"/>
    </contour>
    <contour>
      <point x="482" y="31" type="move" name="ogonekalt"/>
    </contour>
  </outline>
</glyph>
<glyph name="V" format="1">
  <advance width="632"/>
  <unicode hex="0056"/>
  <outline>
    <contour>
      <point x="636" y="627" type="line"/>
      <point x="439" y="627" type="line"/>
      <point x="358" y="322" type="line" smooth="yes"/>
      <point x="343" y="267"/>
      <point x="311" y="101"/>
      <point x="291" y="0" type="curve"/>
      <point x="428" y="0" type="line"/>
    </contour>
    <contour>
      <point x="-5" y="627" type="line"/>
      <point x="205" y="0" type="line"/>
      <point x="351" y="0" type="line"/>
      <point x="330" y="107"/>
      <point x="297" y="266"/>
      <point x="282" y="324" type="curve" smooth="yes"/>
      <point x="199" y="627" type="line"/>
    </contour>
  </outline>
</glyph>
<glyph name="W" format="1">
  <advance width="853"/>
  <unicode hex="0057"/>
  <outline>
    <contour>
      <point x="463" y="627" type="curve"/>
      <point x="340" y="627" type="line"/>
      <point x="291" y="354" type="line" smooth="yes"/>
      <point x="280" y="293"/>
      <point x="258" y="89"/>
      <point x="244" y="0" type="curve"/>
      <point x="361" y="0" type="line"/>
      <point x="390" y="151" type="line" smooth="yes"/>
      <point x="420" y="314"/>
      <point x="446" y="512"/>
    </contour>
    <contour>
      <point x="-3" y="627" type="line"/>
      <point x="158" y="0" type="line"/>
      <point x="299" y="0" type="line"/>
      <point x="284" y="95"/>
      <point x="261" y="293"/>
      <point x="248" y="356" type="curve" smooth="yes"/>
      <point x="193" y="627" type="line"/>
    </contour>
    <contour>
      <point x="855" y="627" type="line"/>
      <point x="665" y="627" type="line"/>
      <point x="613" y="354" type="line" smooth="yes"/>
      <point x="602" y="294"/>
      <point x="578" y="94"/>
      <point x="563" y="0" type="curve"/>
      <point x="696" y="0" type="line"/>
    </contour>
    <contour>
      <point x="390" y="627" type="line"/>
      <point x="409" y="513"/>
      <point x="433" y="314"/>
      <point x="463" y="151" type="curve" smooth="yes"/>
      <point x="492" y="0" type="line"/>
      <point x="618" y="0" type="line"/>
      <point x="603" y="95"/>
      <point x="582" y="292"/>
      <point x="570" y="356" type="curve" smooth="yes"/>
      <point x="519" y="627" type="line"/>
    </contour>
    <contour>
      <point x="427" y="645" type="move" name="top"/>
    </contour>
  </outline>
</glyph>
<glyph name="X" format="1">
  <advance width="594"/>
  <unicode hex="0058"/>
  <outline>
    <contour>
      <point x="609" y="0" type="line"/>
      <point x="409" y="326" type="line"/>
      <point x="588" y="627" type="line"/>
      <point x="392" y="627" type="line"/>
      <point x="310" y="476" type="line"/>
      <point x="227" y="627" type="line"/>
      <point x="0" y="627" type="line"/>
      <point x="188" y="319" type="line"/>
      <point x="-13" y="0" type="line"/>
      <point x="190" y="0" type="line"/>
      <point x="284" y="174" type="line"/>
      <point x="383" y="0" type="line"/>
    </contour>
    <contour>
      <point x="307" y="645" type="move" name="top"/>
    </contour>
  </outline>
</glyph>
<glyph name="Y" format="1">
  <advance width="611"/>
  <unicode hex="0059"/>
  <outline>
    <contour>
      <point x="613" y="627" type="line"/>
      <point x="423" y="627" type="line"/>
      <point x="310" y="390" type="line"/>
      <point x="206" y="627" type="line"/>
      <point x="-5" y="627" type="line"/>
      <point x="214" y="224" type="line"/>
      <point x="214" y="0" type="line"/>
      <point x="400" y="0" type="line"/>
      <point x="400" y="224" type="line"/>
    </contour>
    <contour>
      <point x="310" y="645" type="move" name="top"/>
    </contour>
  </outline>
</glyph>
<glyph name="Z" format="1">
  <advance width="504"/>
  <unicode hex="005A"/>
  <outline>
    <contour>
      <point x="487" y="0" type="line"/>
      <point x="487" y="174" type="line"/>
      <point x="228" y="174" type="line"/>
      <point x="468" y="459" type="line"/>
      <point x="468" y="627" type="line"/>
      <point x="46" y="627" type="line"/>
      <point x="46" y="459" type="line"/>
      <point x="258" y="459" type="line"/>
      <point x="17" y="174" type="line"/>
      <point x="17" y="0" type="line"/>
    </contour>
    <contour>
      <point x="261" y="645" type="move" name="top"/>
    </contour>
  </outline>
</glyph>
<glyph name="bracketleft" format="1">
  <advance width="232"/>
  <unicode hex="005B"/>
  <outline>
    <contour>
      <point x="215" y="-82" type="line"/>
      <point x="215" y="20" type="line"/>
      <point x="149" y="20" type="line"/>
      <point x="149" y="608" type="line"/>
      <point x="215" y="608" type="line"/>
      <point x="215" y="707" type="line"/>
      <point x="38" y="707" type="line"/>
      <point x="38" y="-82" type="line"/>
    </contour>
  </outline>
</glyph>
<glyph name="backslash" format="1">
  <advance width="353"/>
  <unicode hex="005C"/>
  <outline>
    <contour>
      <point x="344" y="-80" type="line"/>
      <point x="124" y="707" type="line"/>
      <point x="9" y="707" type="line"/>
      <point x="228" y="-80" type="line"/>
    </contour>
  </outline>
</glyph>
<glyph name="asciicircum" format="1">
  <advance width="500"/>
  <unicode hex="005E"/>
  <outline>
    <contour>
      <point x="295" y="365" type="line"/>
      <point x="437" y="365" type="line"/>
      <point x="319" y="627" type="line"/>
      <point x="196" y="627" type="line"/>
    </contour>
    <contour>
      <point x="63" y="365" type="line"/>
      <point x="209" y="365" type="line"/>
      <point x="309" y="627" type="line"/>
      <point x="181" y="627" type="line"/>
    </contour>
  </outline>
</glyph>
<glyph name="a" format="1">
  <advance width="492"/>
  <unicode hex="0061"/>
  <outline>
    <contour>
      <point x="13" y="146" type="curve"/>
      <point x="13" y="38"/>
      <point x="55" y="-11"/>
      <point x="151" y="-11" type="curve"/>
      <point x="217" y="-11"/>
      <point x="268" y="23"/>
      <point x="303" y="56" type="curve"/>
      <point x="303" y="147" type="line"/>
      <point x="296" y="138"/>
      <point x="255" y="122"/>
      <point x="213" y="122" type="curve"/>
      <point x="184" y="122"/>
      <point x="175" y="132"/>
      <point x="175" y="157" type="curve"/>
      <point x="175" y="182"/>
      <point x="184" y="192"/>
      <point x="222" y="192" type="curve"/>
      <point x="263" y="192"/>
      <point x="287" y="188"/>
      <point x="302" y="181" type="curve"/>
      <point x="302" y="282" type="line"/>
      <point x="285" y="288"/>
      <point x="239" y="294"/>
      <point x="193" y="294" type="curve"/>
      <point x="67" y="294"/>
      <point x="13" y="255"/>
    </contour>
    <contour>
      <point x="291" y="0" type="line"/>
      <point x="461" y="0" type="line"/>
      <point x="461" y="341" type="line" smooth="yes"/>
      <point x="461" y="452"/>
      <point x="387" y="504"/>
      <point x="268" y="504" type="curve" smooth="yes"/>
      <point x="185" y="504"/>
      <point x="112" y="499"/>
      <point x="58" y="486" type="curve"/>
      <point x="58" y="339" type="line"/>
      <point x="89" y="344"/>
      <point x="128" y="349"/>
      <point x="200" y="349" type="curve" smooth="yes"/>
      <point x="259" y="349"/>
      <point x="281" y="338"/>
      <point x="281" y="312" type="curve" smooth="yes"/>
      <point x="281" y="39" type="line"/>
      <point x="286" y="39" type="line"/>
    </contour>
    <contour>
      <point x="254" y="530" type="move" name="top"/>
    </contour>
    <contour>
      <point x="461" y="0" type="move" name="ogonek"/>
    </contour>
  </outline>
</glyph>
<glyph name="b" format="1">
  <advance width="544"/>
  <unicode hex="0062"/>
  <outline>
    <contour>
      <point x="34" y="18" type="line"/>
      <point x="214" y="7" type="line"/>
      <point x="214" y="665" type="line"/>
      <point x="34" y="665" type="line"/>
    </contour>
    <contour>
      <point x="171" y="309" type="line"/>
      <point x="188" y="317"/>
      <point x="226" y="342"/>
      <point x="280" y="342" type="curve"/>
      <point x="329" y="342"/>
      <point x="344" y="329"/>
      <point x="344" y="251" type="curve" smooth="yes"/>
      <point x="344" y="171"/>
      <point x="330" y="156"/>
      <point x="275" y="156" type="curve"/>
      <point x="212" y="156"/>
      <point x="182" y="169"/>
      <point x="167" y="180" type="curve"/>
      <point x="34" y="18" type="line"/>
      <point x="96" y="0"/>
      <point x="182" y="-11"/>
      <point x="290" y="-11" type="curve"/>
      <point x="451" y="-11"/>
      <point x="524" y="68"/>
      <point x="524" y="251" type="curve" smooth="yes"/>
      <point x="524" y="435"/>
      <point x="476" y="504"/>
      <point x="347" y="504" type="curve"/>
      <point x="266" y="504"/>
      <point x="194" y="463"/>
      <point x="171" y="447" type="curve"/>
    </contour>
  </outline>
</glyph>
<glyph name="c" format="1">
  <advance width="427"/>
  <unicode hex="0063"/>
  <outline>
    <contour>
      <point x="411" y="26" type="curve"/>
      <point x="411" y="174" type="line"/>
      <point x="387" y="168"/>
      <point x="329" y="157"/>
      <point x="264" y="157" type="curve"/>
      <point x="210" y="157"/>
      <point x="200" y="173"/>
      <point x="200" y="247" type="curve" smooth="yes"/>
      <point x="200" y="329"/>
      <point x="209" y="342"/>
      <point x="278" y="342" type="curve"/>
      <point x="340" y="342"/>
      <point x="370" y="339"/>
      <point x="398" y="338" type="curve"/>
      <point x="398" y="496" type="line"/>
      <point x="374" y="499"/>
      <point x="342" y="504"/>
      <point x="276" y="504" type="curve"/>
      <point x="84" y="504"/>
      <point x="20" y="437"/>
      <point x="20" y="247" type="curve" smooth="yes"/>
      <point x="20" y="56"/>
      <point x="72" y="-11"/>
      <point x="217" y="-11" type="curve"/>
      <point x="305" y="-11"/>
      <point x="383" y="9"/>
    </contour>
    <contour>
      <point x="255" y="530" type="move" name="top"/>
    </contour>
    <contour>
      <point x="246" y="0" type="move" name="bottom"/>
    </contour>
  </outline>
</glyph>
<glyph name="d" format="1">
  <advance width="544"/>
  <unicode hex="0064"/>
  <outline>
    <contour>
      <point x="510" y="665" type="line"/>
      <point x="330" y="665" type="line"/>
      <point x="330" y="46" type="line"/>
      <point x="341" y="46" type="line"/>
      <point x="350" y="0" type="line"/>
      <point x="510" y="0" type="line"/>
    </contour>
    <contour>
      <point x="372" y="197" type="line"/>
      <point x="358" y="186"/>
      <point x="324" y="156"/>
      <point x="263" y="156" type="curve"/>
      <point x="213" y="156"/>
      <point x="199" y="169"/>
      <point x="199" y="247" type="curve" smooth="yes"/>
      <point x="199" y="328"/>
      <point x="214" y="342"/>
      <point x="269" y="342" type="curve"/>
      <point x="322" y="342"/>
      <point x="344" y="330"/>
      <point x="361" y="319" type="curve"/>
      <point x="394" y="442" type="line"/>
      <point x="379" y="487"/>
      <point x="307" y="504"/>
      <point x="235" y="504" type="curve"/>
      <point x="89" y="504"/>
      <point x="19" y="430"/>
      <point x="19" y="247" type="curve" smooth="yes"/>
      <point x="19" y="65"/>
      <point x="67" y="-11"/>
      <point x="196" y="-11" type="curve"/>
      <point x="295" y="-11"/>
      <point x="357" y="41"/>
      <point x="390" y="149" type="curve"/>
    </contour>
    <contour>
      <point x="551" y="665" type="move" name="caronalt"/>
    </contour>
  </outline>
</glyph>
<glyph name="e" format="1">
  <advance width="496"/>
  <unicode hex="0065"/>
  <outline>
    <contour>
      <point x="258" y="362" type="curve"/>
      <point x="303" y="362"/>
      <point x="314" y="352"/>
      <point x="316" y="318" type="curve"/>
      <point x="316" y="310"/>
      <point x="316" y="301"/>
      <point x="316" y="295" type="curve"/>
      <point x="197" y="295" type="line"/>
      <point x="197" y="342"/>
      <point x="207" y="362"/>
    </contour>
    <contour>
      <point x="455" y="24" type="curve"/>
      <point x="455" y="161" type="line"/>
      <point x="430" y="155"/>
      <point x="357" y="143"/>
      <point x="276" y="143" type="curve" smooth="yes"/>
      <point x="218" y="143"/>
      <point x="199" y="155"/>
      <point x="197" y="198" type="curve"/>
      <point x="471" y="198" type="line"/>
      <point x="475" y="233"/>
      <point x="476" y="255"/>
      <point x="476" y="299" type="curve"/>
      <point x="476" y="437"/>
      <point x="426" y="504"/>
      <point x="256" y="504" type="curve"/>
      <point x="92" y="504"/>
      <point x="19" y="421"/>
      <point x="19" y="246" type="curve" smooth="yes"/>
      <point x="19" y="66"/>
      <point x="85" y="-11"/>
      <point x="247" y="-11" type="curve" smooth="yes"/>
      <point x="349" y="-11"/>
      <point x="428" y="10"/>
    </contour>
    <contour>
      <point x="256" y="530" type="move" name="top"/>
    </contour>
    <contour>
      <point x="418" y="11" type="move" name="ogonekalt"/>
    </contour>
  </outline>
</glyph>
<glyph name="f" format="1">
  <advance width="363"/>
  <unicode hex="0066"/>
  <outline>
    <contour>
      <point x="371" y="665" type="line"/>
      <point x="356" y="668"/>
      <point x="311" y="675"/>
      <point x="261" y="675" type="curve"/>
      <point x="141" y="675"/>
      <point x="69" y="616"/>
      <point x="69" y="497" type="curve"/>
      <point x="69" y="0" type="line"/>
      <point x="249" y="0" type="line"/>
      <point x="249" y="504" type="line"/>
      <point x="249" y="539"/>
      <point x="262" y="543"/>
      <point x="308" y="543" type="curve"/>
      <point x="330" y="543"/>
      <point x="359" y="540"/>
      <point x="371" y="539" type="curve"/>
    </contour>
    <contour>
      <point x="18" y="345" type="line"/>
      <point x="356" y="345" type="line"/>
      <point x="356" y="494" type="line"/>
      <point x="18" y="494" type="line"/>
    </contour>
  </outline>
</glyph>
<glyph name="g" format="1">
  <advance width="542"/>
  <unicode hex="0067"/>
  <outline>
    <contour>
      <point x="79" y="-137" type="line"/>
      <point x="112" y="-149"/>
      <point x="179" y="-162"/>
      <point x="264" y="-162" type="curve"/>
      <point x="445" y="-162"/>
      <point x="509" y="-94"/>
      <point x="509" y="106" type="curve" smooth="yes"/>
      <point x="509" y="485" type="line"/>
      <point x="329" y="485" type="line"/>
      <point x="329" y="48" type="line" smooth="yes"/>
      <point x="326" y="4"/>
      <point x="303" y="-5"/>
      <point x="251" y="-5" type="curve"/>
      <point x="174" y="-5"/>
      <point x="104" y="4"/>
      <point x="79" y="10" type="curve"/>
    </contour>
    <contour>
      <point x="375" y="230" type="line"/>
      <point x="345" y="218"/>
      <point x="294" y="200"/>
      <point x="255" y="200" type="curve"/>
      <point x="204" y="200"/>
      <point x="197" y="212"/>
      <point x="197" y="270" type="curve" smooth="yes"/>
      <point x="197" y="335"/>
      <point x="203" y="344"/>
      <point x="267" y="344" type="curve"/>
      <point x="320" y="344"/>
      <point x="352" y="337"/>
      <point x="373" y="326" type="curve"/>
      <point x="509" y="485" type="line"/>
      <point x="469" y="493"/>
      <point x="352" y="504"/>
      <point x="271" y="504" type="curve"/>
      <point x="91" y="504"/>
      <point x="20" y="436"/>
      <point x="20" y="269" type="curve" smooth="yes"/>
      <point x="20" y="100"/>
      <point x="69" y="42"/>
      <point x="193" y="42" type="curve"/>
      <point x="263" y="42"/>
      <point x="332" y="74"/>
      <point x="375" y="97" type="curve"/>
    </contour>
    <contour>
      <point x="279" y="530" type="move" name="top"/>
    </contour>
  </outline>
</glyph>
<glyph name="h" format="1">
  <advance width="541"/>
  <unicode hex="0068"/>
  <outline>
    <contour>
      <point x="34" y="0" type="line"/>
      <point x="214" y="0" type="line"/>
      <point x="214" y="665" type="line"/>
      <point x="34" y="665" type="line"/>
    </contour>
    <contour>
      <point x="180" y="315" type="line"/>
      <point x="195" y="326"/>
      <point x="239" y="342"/>
      <point x="284" y="342" type="curve" smooth="yes"/>
      <point x="318" y="342"/>
      <point x="329" y="329"/>
      <point x="329" y="305" type="curve" smooth="yes"/>
      <point x="329" y="0" type="line"/>
      <point x="509" y="0" type="line"/>
      <point x="509" y="342" type="line" smooth="yes"/>
      <point x="509" y="451"/>
      <point x="456" y="504"/>
      <point x="353" y="504" type="curve" smooth="yes"/>
      <point x="282" y="504"/>
      <point x="220" y="472"/>
      <point x="180" y="427" type="curve"/>
    </contour>
    <contour>
      <point x="124" y="682" type="move" name="top"/>
    </contour>
  </outline>
</glyph>
<glyph name="j" format="1">
  <advance width="253"/>
  <unicode hex="006A"/>
  <outline>
    <contour>
      <point x="-33" y="-156" type="line"/>
      <point x="-19" y="-158"/>
      <point x="-2" y="-162"/>
      <point x="44" y="-162" type="curve"/>
      <point x="147" y="-162"/>
      <point x="219" y="-111"/>
      <point x="219" y="4" type="curve"/>
      <point x="219" y="494" type="line"/>
      <point x="39" y="494" type="line"/>
      <point x="39" y="13" type="line"/>
      <point x="39" y="-18"/>
      <point x="28" y="-26"/>
      <point x="-12" y="-26" type="curve"/>
      <point x="-19" y="-26"/>
      <point x="-24" y="-26"/>
      <point x="-33" y="-25" type="curve"/>
    </contour>
    <contour>
      <point x="37" y="535" type="line"/>
      <point x="222" y="535" type="line"/>
      <point x="222" y="665" type="line"/>
      <point x="37" y="665" type="line"/>
    </contour>
  </outline>
</glyph>
<glyph name="k" format="1">
  <advance width="530"/>
  <unicode hex="006B"/>
  <outline>
    <contour>
      <point x="326" y="0" type="line"/>
      <point x="537" y="0" type="line"/>
      <point x="387" y="257" type="line"/>
      <point x="195" y="250" type="line"/>
    </contour>
    <contour>
      <point x="321" y="494" type="line"/>
      <point x="195" y="250" type="line"/>
      <point x="387" y="257" type="line"/>
      <point x="527" y="494" type="line"/>
    </contour>
    <contour>
      <point x="151" y="182" type="line"/>
      <point x="350" y="182" type="line"/>
      <point x="350" y="318" type="line"/>
      <point x="151" y="318" type="line"/>
    </contour>
    <component base="l"/>
    <contour>
      <point x="265" y="-4" type="move" name="bottom"/>
    </contour>
  </outline>
</glyph>
<glyph name="m" format="1">
  <advance width="786"/>
  <unicode hex="006D"/>
  <outline>
    <contour>
      <point x="34" y="0" type="line"/>
      <point x="214" y="0" type="line"/>
      <point x="214" y="385" type="line"/>
      <point x="195" y="494" type="line"/>
      <point x="34" y="494" type="line"/>
    </contour>
    <contour>
      <point x="181" y="316" type="line"/>
      <point x="193" y="326"/>
      <point x="226" y="342"/>
      <point x="263" y="342" type="curve" smooth="yes"/>
      <point x="293" y="342"/>
      <point x="304" y="330"/>
      <point x="304" y="308" type="curve" smooth="yes"/>
      <point x="304" y="0" type="line"/>
      <point x="484" y="0" type="line"/>
      <point x="484" y="342" type="line" smooth="yes"/>
      <point x="484" y="451"/>
      <point x="437" y="504"/>
      <point x="342" y="504" type="curve" smooth="yes"/>
      <point x="290" y="504"/>
      <point x="242" y="484"/>
      <point x="206" y="452" type="curve"/>
      <point x="181" y="452" type="line"/>
    </contour>
    <contour>
      <point x="451" y="316" type="line"/>
      <point x="463" y="326"/>
      <point x="497" y="342"/>
      <point x="534" y="342" type="curve" smooth="yes"/>
      <point x="564" y="342"/>
      <point x="574" y="330"/>
      <point x="574" y="308" type="curve" smooth="yes"/>
      <point x="574" y="0" type="line"/>
      <point x="754" y="0" type="line"/>
      <point x="754" y="342" type="line" smooth="yes"/>
      <point x="754" y="451"/>
      <point x="707" y="504"/>
      <point x="612" y="504" type="curve" smooth="yes"/>
      <point x="554" y="504"/>
      <point x="499" y="483"/>
      <point x="462" y="452" type="curve"/>
      <point x="451" y="452" type="line"/>
    </contour>
  </outline>
</glyph>
<glyph name="n" format="1">
  <advance width="541"/>
  <unicode hex="006E"/>
  <outline>
    <contour>
      <point x="34" y="0" type="line"/>
      <point x="214" y="0" type="line"/>
      <point x="214" y="442" type="line"/>
      <point x="196" y="442" type="line"/>
      <point x="189" y="494" type="line"/>
      <point x="34" y="494" type="line"/>
    </contour>
    <contour>
      <point x="180" y="305" type="line"/>
      <point x="196" y="322"/>
      <point x="233" y="342"/>
      <point x="279" y="342" type="curve" smooth="yes"/>
      <point x="312" y="342"/>
      <point x="329" y="329"/>
      <point x="329" y="305" type="curve" smooth="yes"/>
      <point x="329" y="0" type="line"/>
      <point x="509" y="0" type="line"/>
      <point x="509" y="342" type="line" smooth="yes"/>
      <point x="509" y="451"/>
      <point x="452" y="504"/>
      <point x="351" y="504" type="curve" smooth="yes"/>
      <point x="279" y="504"/>
      <point x="226" y="481"/>
      <point x="180" y="417" type="curve"/>
    </contour>
    <contour>
      <point x="272" y="530" type="move" name="top"/>
    </contour>
    <contour>
      <point x="-109" y="665" type="move" name="caronalt"/>
    </contour>
    <contour>
      <point x="271" y="-4" type="move" name="bottom"/>
    </contour>
  </outline>
</glyph>
<glyph name="o" format="1">
  <advance width="539"/>
  <unicode hex="006F"/>
  <outline>
    <contour>
      <point x="269" y="-11" type="curve" smooth="yes"/>
      <point x="449" y="-11"/>
      <point x="520" y="61"/>
      <point x="520" y="247" type="curve" smooth="yes"/>
      <point x="520" y="430"/>
      <point x="448" y="504"/>
      <point x="269" y="504" type="curve" smooth="yes"/>
      <point x="90" y="504"/>
      <point x="19" y="432"/>
      <point x="19" y="247" type="curve" smooth="yes"/>
      <point x="19" y="64"/>
      <point x="92" y="-11"/>
    </contour>
    <contour>
      <point x="269" y="156" type="curve" smooth="yes"/>
      <point x="211" y="156"/>
      <point x="199" y="171"/>
      <point x="199" y="249" type="curve" smooth="yes"/>
      <point x="199" y="327"/>
      <point x="211" y="342"/>
      <point x="269" y="342" type="curve" smooth="yes"/>
      <point x="328" y="342"/>
      <point x="340" y="327"/>
      <point x="340" y="249" type="curve" smooth="yes"/>
      <point x="340" y="171"/>
      <point x="328" y="156"/>
    </contour>
    <contour>
      <point x="269" y="530" type="move" name="top"/>
    </contour>
  </outline>
</glyph>
<glyph name="p" format="1">
  <advance width="544"/>
  <unicode hex="0070"/>
  <outline>
    <contour>
      <point x="34" y="-152" type="line"/>
      <point x="214" y="-152" type="line"/>
      <point x="214" y="447" type="line"/>
      <point x="201" y="447" type="line"/>
      <point x="192" y="494" type="line"/>
      <point x="34" y="494" type="line"/>
    </contour>
    <contour>
      <point x="171" y="301" type="line"/>
      <point x="186" y="312"/>
      <point x="220" y="342"/>
      <point x="280" y="342" type="curve"/>
      <point x="330" y="342"/>
      <point x="344" y="327"/>
      <point x="344" y="247" type="curve" smooth="yes"/>
      <point x="344" y="169"/>
      <point x="330" y="156"/>
      <point x="275" y="156" type="curve"/>
      <point x="221" y="156"/>
      <point x="200" y="168"/>
      <point x="183" y="179" type="curve"/>
      <point x="150" y="51" type="line"/>
      <point x="165" y="7"/>
      <point x="236" y="-10"/>
      <point x="308" y="-10" type="curve"/>
      <point x="454" y="-10"/>
      <point x="524" y="64"/>
      <point x="524" y="247" type="curve" smooth="yes"/>
      <point x="524" y="429"/>
      <point x="478" y="504"/>
      <point x="347" y="504" type="curve"/>
      <point x="250" y="504"/>
      <point x="187" y="455"/>
      <point x="154" y="346" type="curve"/>
    </contour>
  </outline>
</glyph>
<glyph name="q" format="1">
  <advance width="543"/>
  <unicode hex="0071"/>
  <outline>
    <contour>
      <point x="510" y="-152" type="line"/>
      <point x="510" y="485" type="line"/>
      <point x="330" y="485" type="line"/>
      <point x="330" y="-152" type="line"/>
    </contour>
    <contour>
      <point x="374" y="191" type="line"/>
      <point x="346" y="179"/>
      <point x="301" y="156"/>
      <point x="258" y="156" type="curve"/>
      <point x="208" y="156"/>
      <point x="199" y="167"/>
      <point x="199" y="247" type="curve" smooth="yes"/>
      <point x="199" y="332"/>
      <point x="209" y="342"/>
      <point x="270" y="342" type="curve"/>
      <point x="319" y="342"/>
      <point x="353" y="333"/>
      <point x="368" y="324" type="curve"/>
      <point x="510" y="485" type="line"/>
      <point x="440" y="496"/>
      <point x="342" y="505"/>
      <point x="270" y="505" type="curve"/>
      <point x="92" y="505"/>
      <point x="19" y="431"/>
      <point x="19" y="247" type="curve" smooth="yes"/>
      <point x="19" y="65"/>
      <point x="64" y="-10"/>
      <point x="192" y="-10" type="curve"/>
      <point x="281" y="-10"/>
      <point x="341" y="36"/>
      <point x="380" y="106" type="curve"/>
    </contour>
  </outline>
</glyph>
<glyph name="r" format="1">
  <advance width="359"/>
  <unicode hex="0072"/>
  <outline>
    <contour>
      <point x="34" y="0" type="line"/>
      <point x="214" y="0" type="line"/>
      <point x="214" y="415" type="line"/>
      <point x="202" y="494" type="line"/>
      <point x="34" y="494" type="line"/>
    </contour>
    <contour>
      <point x="189" y="308" type="line"/>
      <point x="206" y="318"/>
      <point x="238" y="332"/>
      <point x="302" y="332" type="curve"/>
      <point x="324" y="332"/>
      <point x="338" y="330"/>
      <point x="348" y="329" type="curve"/>
      <point x="348" y="503" type="line"/>
      <point x="342" y="503"/>
      <point x="337" y="503"/>
      <point x="331" y="503" type="curve"/>
      <point x="282" y="503"/>
      <point x="239" y="478"/>
      <point x="210" y="456" type="curve"/>
      <point x="189" y="456" type="line"/>
    </contour>
    <contour>
      <point x="189" y="524" type="move" name="top"/>
    </contour>
    <contour>
      <point x="123" y="-4" type="move" name="bottom"/>
    </contour>
  </outline>
</glyph>
<glyph name="s" format="1">
  <advance width="442"/>
  <unicode hex="0073"/>
  <outline>
    <contour>
      <point x="186" y="340" type="curve" smooth="yes"/>
      <point x="186" y="359"/>
      <point x="196" y="365"/>
      <point x="245" y="365" type="curve" smooth="yes"/>
      <point x="301" y="365"/>
      <point x="360" y="359"/>
      <point x="394" y="354" type="curve"/>
      <point x="394" y="494" type="line"/>
      <point x="364" y="499"/>
      <point x="315" y="504"/>
      <point x="235" y="504" type="curve" smooth="yes"/>
      <point x="69" y="504"/>
      <point x="18" y="429"/>
      <point x="18" y="333" type="curve" smooth="yes"/>
      <point x="18" y="241"/>
      <point x="53" y="203"/>
      <point x="127" y="193" type="curve" smooth="yes"/>
      <point x="244" y="179" type="line" smooth="yes"/>
      <point x="255" y="177"/>
      <point x="260" y="171"/>
      <point x="260" y="163" type="curve" smooth="yes"/>
      <point x="260" y="139"/>
      <point x="246" y="134"/>
      <point x="203" y="134" type="curve" smooth="yes"/>
      <point x="127" y="134"/>
      <point x="56" y="148"/>
      <point x="33" y="153" type="curve"/>
      <point x="33" y="9" type="line"/>
      <point x="70" y="-2"/>
      <point x="136" y="-11"/>
      <point x="223" y="-11" type="curve" smooth="yes"/>
      <point x="335" y="-11"/>
      <point x="425" y="18"/>
      <point x="425" y="170" type="curve" smooth="yes"/>
      <point x="425" y="270"/>
      <point x="391" y="300"/>
      <point x="310" y="310" type="curve" smooth="yes"/>
      <point x="204" y="323" type="line" smooth="yes"/>
      <point x="193" y="324"/>
      <point x="186" y="329"/>
    </contour>
    <contour>
      <point x="223" y="530" type="move" name="top"/>
    </contour>
    <contour>
      <point x="219" y="-4" type="move" name="bottom"/>
    </contour>
  </outline>
</glyph>
<glyph name="t" format="1">
  <advance width="386"/>
  <unicode hex="0074"/>
  <outline>
    <contour>
      <point x="377" y="9" type="curve"/>
      <point x="377" y="164" type="line"/>
      <point x="362" y="161"/>
      <point x="327" y="157"/>
      <point x="305" y="157" type="curve" smooth="yes"/>
      <point x="259" y="157"/>
      <point x="246" y="166"/>
      <point x="246" y="196" type="curve" smooth="yes"/>
      <point x="246" y="607" type="line"/>
      <point x="94" y="607" type="line"/>
      <point x="66" y="457" type="line"/>
      <point x="66" y="171" type="line" smooth="yes"/>
      <point x="66" y="38"/>
      <point x="125" y="-11"/>
      <point x="253" y="-11" type="curve" smooth="yes"/>
      <point x="299" y="-11"/>
      <point x="361" y="2"/>
    </contour>
    <contour>
      <point x="15" y="345" type="line"/>
      <point x="370" y="345" type="line"/>
      <point x="370" y="494" type="line"/>
      <point x="15" y="494" type="line"/>
    </contour>
    <contour>
      <point x="287" y="727" type="move" name="caronalt"/>
    </contour>
    <contour>
      <point x="229" y="-4" type="move" name="bottom"/>
    </contour>
  </outline>
</glyph>
<glyph name="u" format="1">
  <advance width="527"/>
  <unicode hex="0075"/>
  <outline>
    <contour>
      <point x="32" y="155" type="line" smooth="yes"/>
      <point x="32" y="44"/>
      <point x="85" y="-10"/>
      <point x="193" y="-10" type="curve" smooth="yes"/>
      <point x="249" y="-10"/>
      <point x="315" y="22"/>
      <point x="352" y="63" type="curve"/>
      <point x="352" y="184" type="line"/>
      <point x="339" y="174"/>
      <point x="295" y="157"/>
      <point x="256" y="157" type="curve" smooth="yes"/>
      <point x="223" y="157"/>
      <point x="212" y="169"/>
      <point x="212" y="192" type="curve" smooth="yes"/>
      <point x="212" y="494" type="line"/>
      <point x="32" y="494" type="line"/>
    </contour>
    <contour>
      <point x="494" y="494" type="line"/>
      <point x="314" y="494" type="line"/>
      <point x="314" y="39" type="line"/>
      <point x="326" y="39" type="line"/>
      <point x="332" y="0" type="line"/>
      <point x="494" y="0" type="line"/>
    </contour>
    <contour>
      <point x="267" y="524" type="move" name="top"/>
    </contour>
    <contour>
      <point x="488" y="0" type="move" name="ogonek"/>
    </contour>
  </outline>
</glyph>
<glyph name="v" format="1">
  <advance width="526"/>
  <unicode hex="0076"/>
  <outline>
    <contour>
      <point x="528" y="494" type="line"/>
      <point x="332" y="494" type="line"/>
      <point x="264" y="163" type="line"/>
      <point x="195" y="494" type="line"/>
      <point x="-3" y="494" type="line"/>
      <point x="160" y="0" type="line"/>
      <point x="367" y="0" type="line"/>
    </contour>
  </outline>
</glyph>
<glyph name="w" format="1">
  <advance width="765"/>
  <unicode hex="0077"/>
  <outline>
    <contour>
      <point x="766" y="494" type="line"/>
      <point x="569" y="494" type="line"/>
      <point x="528" y="162" type="line"/>
      <point x="465" y="494" type="line"/>
      <point x="302" y="494" type="line"/>
      <point x="238" y="162" type="line"/>
      <point x="197" y="494" type="line"/>
      <point x="-1" y="494" type="line"/>
      <point x="130" y="0" type="line"/>
      <point x="335" y="0" type="line"/>
      <point x="377" y="237" type="line"/>
      <point x="425" y="0" type="line"/>
      <point x="636" y="0" type="line"/>
    </contour>
    <contour>
      <point x="381" y="524" type="move" name="top"/>
    </contour>
  </outline>
</glyph>
<glyph name="x" format="1">
  <advance width="489"/>
  <unicode hex="0078"/>
  <outline>
    <contour>
      <point x="494" y="0" type="line"/>
      <point x="349" y="257" type="line"/>
      <point x="494" y="494" type="line"/>
      <point x="310" y="494" type="line"/>
      <point x="255" y="373" type="line"/>
      <point x="203" y="494" type="line"/>
      <point x="-6" y="494" type="line"/>
      <point x="141" y="257" type="line"/>
      <point x="-5" y="0" type="line"/>
      <point x="180" y="0" type="line"/>
      <point x="239" y="132" type="line"/>
      <point x="298" y="0" type="line"/>
    </contour>
    <contour>
      <point x="255" y="524" type="move" name="top"/>
    </contour>
  </outline>
</glyph>
<glyph name="y" format="1">
  <advance width="523"/>
  <unicode hex="0079"/>
  <outline>
    <contour>
      <point x="173" y="17" type="line"/>
      <point x="169" y="-3"/>
      <point x="159" y="-14"/>
      <point x="112" y="-14" type="curve"/>
      <point x="90" y="-14"/>
      <point x="72" y="-13"/>
      <point x="61" y="-11" type="curve"/>
      <point x="61" y="-154" type="line"/>
      <point x="80" y="-158"/>
      <point x="115" y="-162"/>
      <point x="150" y="-162" type="curve"/>
      <point x="258" y="-162"/>
      <point x="321" y="-117"/>
      <point x="361" y="0" type="curve" smooth="yes"/>
      <point x="526" y="494" type="line"/>
      <point x="334" y="494" type="line"/>
      <point x="266" y="186" type="line"/>
      <point x="195" y="494" type="line"/>
      <point x="-4" y="494" type="line"/>
    </contour>
    <contour>
      <point x="267" y="524" type="move" name="top"/>
    </contour>
  </outline>
</glyph>
<glyph name="z" format="1">
  <advance width="425"/>
  <unicode hex="007A"/>
  <outline>
    <contour>
      <point x="409" y="0" type="line"/>
      <point x="409" y="156" type="line"/>
      <point x="224" y="156" type="line"/>
      <point x="392" y="345" type="line"/>
      <point x="392" y="494" type="line"/>
      <point x="37" y="494" type="line"/>
      <point x="37" y="345" type="line"/>
      <point x="191" y="345" type="line"/>
      <point x="19" y="156" type="line"/>
      <point x="19" y="0" type="line"/>
    </contour>
    <contour>
      <point x="216" y="524" type="move" name="top"/>
    </contour>
  </outline>
</glyph>
<glyph name="braceleft" format="1">
  <advance width="291"/>
  <unicode hex="007B"/>
  <outline>
    <contour>
      <point x="121" y="317" type="line"/>
      <point x="163" y="325"/>
      <point x="211" y="372"/>
      <point x="211" y="473" type="curve" smooth="yes"/>
      <point x="211" y="570" type="line"/>
      <point x="211" y="606"/>
      <point x="218" y="617"/>
      <point x="278" y="617" type="curve"/>
      <point x="278" y="718" type="line"/>
      <point x="161" y="718"/>
      <point x="101" y="676"/>
      <point x="101" y="576" type="curve"/>
      <point x="101" y="473" type="line" smooth="yes"/>
      <point x="101" y="382"/>
      <point x="42" y="359"/>
      <point x="17" y="359" type="curve"/>
      <point x="-1" y="359" type="line"/>
      <point x="-1" y="271" type="line"/>
      <point x="17" y="271" type="line"/>
      <point x="42" y="271"/>
      <point x="101" y="248"/>
      <point x="101" y="157" type="curve" smooth="yes"/>
      <point x="101" y="50" type="line"/>
      <point x="101" y="-50"/>
      <point x="161" y="-92"/>
      <point x="278" y="-92" type="curve"/>
      <point x="278" y="9" type="line"/>
      <point x="219" y="9"/>
      <point x="211" y="18"/>
      <point x="211" y="56" type="curve"/>
      <point x="211" y="157" type="line"/>
      <point x="211" y="257"/>
      <point x="164" y="305"/>
      <point x="121" y="313" type="curve"/>
    </contour>
  </outline>
</glyph>
<glyph name="bar" format="1">
  <advance width="186"/>
  <unicode hex="007C"/>
  <outline>
    <contour>
      <point x="149" y="-80" type="line"/>
      <point x="149" y="707" type="line"/>
      <point x="38" y="707" type="line"/>
      <point x="38" y="-80" type="line"/>
    </contour>
  </outline>
</glyph>
<glyph name="asciitilde" format="1">
  <advance width="611"/>
  <unicode hex="007E"/>
  <outline>
    <contour>
      <point x="593" y="447" type="curve"/>
      <point x="435" y="447" type="line"/>
      <point x="435" y="412"/>
      <point x="429" y="362"/>
      <point x="394" y="362" type="curve"/>
      <point x="353" y="362"/>
      <point x="272" y="455"/>
      <point x="175" y="455" type="curve"/>
      <point x="50" y="455"/>
      <point x="18" y="316"/>
      <point x="18" y="198" type="curve"/>
      <point x="176" y="198" type="line"/>
      <point x="176" y="233"/>
      <point x="183" y="287"/>
      <point x="217" y="287" type="curve"/>
      <point x="259" y="287"/>
      <point x="339" y="191"/>
      <point x="436" y="191" type="curve"/>
      <point x="561" y="191"/>
      <point x="593" y="328"/>
    </contour>
  </outline>
</glyph>
<glyph name="cent" format="1">
  <advance width="429"/>
  <unicode hex="00A2"/>
  <outline>
    <contour>
      <point x="292" y="504" type="line"/>
      <point x="292" y="650" type="line"/>
      <point x="194" y="650" type="line"/>
      <point x="194" y="504" type="line"/>
    </contour>
    <contour>
      <point x="292" y="-19" type="line"/>
      <point x="292" y="138" type="line"/>
      <point x="194" y="138" type="line"/>
      <point x="194" y="-19" type="line"/>
    </contour>
    <component base="c" yOffset="68"/>
  </outline>
</glyph>
<glyph name="sterling" format="1">
  <advance width="471"/>
  <unicode hex="00A3"/>
  <outline>
    <contour>
      <point x="451" y="0" type="line"/>
      <point x="451" y="165" type="line"/>
      <point x="203" y="165" type="line"/>
      <point x="203" y="168" type="line"/>
      <point x="254" y="183"/>
      <point x="275" y="222"/>
      <point x="275" y="260" type="curve"/>
      <point x="275" y="419" type="line" smooth="yes"/>
      <point x="275" y="458"/>
      <point x="294" y="475"/>
      <point x="333" y="475" type="curve" smooth="yes"/>
      <point x="359" y="475"/>
      <point x="398" y="471"/>
      <point x="435" y="463" type="curve"/>
      <point x="435" y="620" type="line"/>
      <point x="388" y="631"/>
      <point x="355" y="637"/>
      <point x="292" y="637" type="curve" smooth="yes"/>
      <point x="210" y="637"/>
      <point x="89" y="611"/>
      <point x="89" y="451" type="curve" smooth="yes"/>
      <point x="89" y="257" type="line"/>
      <point x="89" y="220"/>
      <point x="63" y="183"/>
      <point x="25" y="166" type="curve"/>
      <point x="25" y="0" type="line"/>
    </contour>
    <contour>
      <point x="25" y="361" type="line"/>
      <point x="25" y="260" type="line"/>
      <point x="401" y="260" type="line"/>
      <point x="401" y="361" type="line"/>
    </contour>
  </outline>
</glyph>
<glyph name="currency" format="1">
  <advance width="596"/>
  <unicode hex="00A4"/>
  <outline>
    <contour>
      <point x="575" y="521" type="line"/>
      <point x="503" y="595" type="line"/>
      <point x="409" y="502" type="line"/>
      <point x="483" y="428" type="line"/>
    </contour>
    <contour>
      <point x="505" y="37" type="line"/>
      <point x="577" y="109" type="line"/>
      <point x="482" y="205" type="line"/>
      <point x="410" y="132" type="line"/>
    </contour>
    <contour>
      <point x="18" y="110" type="line"/>
      <point x="90" y="38" type="line"/>
      <point x="184" y="131" type="line"/>
      <point x="112" y="205" type="line"/>
    </contour>
    <contour>
      <point x="92" y="595" type="line"/>
      <point x="20" y="523" type="line"/>
      <point x="113" y="431" type="line"/>
      <point x="185" y="501" type="line"/>
    </contour>
    <contour>
      <point x="297" y="575" type="curve" smooth="yes"/>
      <point x="151" y="576"/>
      <point x="36" y="462"/>
      <point x="38" y="316" type="curve" smooth="yes"/>
      <point x="36" y="170"/>
      <point x="152" y="55"/>
      <point x="299" y="56" type="curve" smooth="yes"/>
      <point x="444" y="55"/>
      <point x="560" y="169"/>
      <point x="560" y="315" type="curve" smooth="yes"/>
      <point x="561" y="461"/>
      <point x="444" y="576"/>
    </contour>
    <contour>
      <point x="202" y="319" type="curve" smooth="yes"/>
      <point x="203" y="381"/>
      <point x="239" y="419"/>
      <point x="300" y="419" type="curve" smooth="yes"/>
      <point x="360" y="418"/>
      <point x="396" y="380"/>
      <point x="396" y="319" type="curve" smooth="yes"/>
      <point x="396" y="256"/>
      <point x="360" y="218"/>
      <point x="299" y="219" type="curve" smooth="yes"/>
      <point x="239" y="218"/>
      <point x="203" y="256"/>
    </contour>
  </outline>
</glyph>
<glyph name="yen" format="1">
  <advance width="572"/>
  <unicode hex="00A5"/>
  <outline>
    <contour>
      <point x="75" y="302" type="line"/>
      <point x="75" y="217" type="line"/>
      <point x="502" y="217" type="line"/>
      <point x="502" y="302" type="line"/>
    </contour>
    <contour>
      <point x="75" y="186" type="line"/>
      <point x="75" y="101" type="line"/>
      <point x="502" y="101" type="line"/>
      <point x="502" y="186" type="line"/>
    </contour>
    <contour>
      <point x="562" y="627" type="line"/>
      <point x="371" y="627" type="line"/>
      <point x="289" y="385" type="line"/>
      <point x="217" y="627" type="line"/>
      <point x="9" y="627" type="line"/>
      <point x="195" y="230" type="line"/>
      <point x="195" y="0" type="line"/>
      <point x="382" y="0" type="line"/>
      <point x="382" y="230" type="line"/>
    </contour>
  </outline>
</glyph>
<glyph name="section" format="1">
  <advance width="453"/>
  <unicode hex="00A7"/>
  <outline>
    <contour>
      <point x="113" y="453" type="line"/>
      <point x="41" y="415"/>
      <point x="17" y="359"/>
      <point x="17" y="307" type="curve"/>
      <point x="17" y="260"/>
      <point x="47" y="222"/>
      <point x="96" y="202" type="curve" smooth="yes"/>
      <point x="200" y="161" type="line" smooth="yes"/>
      <point x="224" y="151"/>
      <point x="241" y="145"/>
      <point x="241" y="130" type="curve"/>
      <point x="241" y="117"/>
      <point x="228" y="110"/>
      <point x="189" y="110" type="curve"/>
      <point x="145" y="110"/>
      <point x="108" y="118"/>
      <point x="72" y="129" type="curve"/>
      <point x="72" y="7" type="line"/>
      <point x="105" y="-2"/>
      <point x="148" y="-10"/>
      <point x="231" y="-10" type="curve"/>
      <point x="345" y="-10"/>
      <point x="404" y="47"/>
      <point x="404" y="130" type="curve"/>
      <point x="404" y="192"/>
      <point x="376" y="221"/>
      <point x="315" y="247" type="curve" smooth="yes"/>
      <point x="197" y="296" type="line" smooth="yes"/>
      <point x="173" y="306"/>
      <point x="165" y="315"/>
      <point x="165" y="336" type="curve"/>
      <point x="165" y="355"/>
      <point x="178" y="381"/>
      <point x="198" y="396" type="curve"/>
    </contour>
    <contour>
      <point x="264" y="517" type="curve"/>
      <point x="308" y="517"/>
      <point x="345" y="509"/>
      <point x="382" y="498" type="curve"/>
      <point x="382" y="620" type="line"/>
      <point x="348" y="629"/>
      <point x="306" y="637"/>
      <point x="222" y="637" type="curve"/>
      <point x="110" y="637"/>
      <point x="49" y="580"/>
      <point x="49" y="497" type="curve"/>
      <point x="49" y="435"/>
      <point x="78" y="407"/>
      <point x="139" y="380" type="curve" smooth="yes"/>
      <point x="257" y="330" type="line" smooth="yes"/>
      <point x="280" y="321"/>
      <point x="289" y="312"/>
      <point x="289" y="290" type="curve"/>
      <point x="289" y="272"/>
      <point x="275" y="246"/>
      <point x="255" y="231" type="curve"/>
      <point x="340" y="174" type="line"/>
      <point x="412" y="212"/>
      <point x="437" y="268"/>
      <point x="437" y="320" type="curve"/>
      <point x="437" y="368"/>
      <point x="404" y="404"/>
      <point x="355" y="424" type="curve" smooth="yes"/>
      <point x="253" y="466" type="line" smooth="yes"/>
      <point x="229" y="476"/>
      <point x="213" y="482"/>
      <point x="213" y="497" type="curve"/>
      <point x="213" y="510"/>
      <point x="225" y="517"/>
    </contour>
  </outline>
</glyph>
<glyph name="copyright" format="1">
  <advance width="665"/>
  <unicode hex="00A9"/>
  <outline>
    <contour>
      <point x="334" y="-10" type="curve"/>
      <point x="531" y="-10"/>
      <point x="646" y="109"/>
      <point x="646" y="314" type="curve"/>
      <point x="646" y="526"/>
      <point x="538" y="637"/>
      <point x="334" y="637" type="curve"/>
      <point x="135" y="637"/>
      <point x="20" y="519"/>
      <point x="20" y="314" type="curve"/>
      <point x="20" y="103"/>
      <point x="129" y="-10"/>
    </contour>
    <contour>
      <point x="335" y="543" type="curve"/>
      <point x="477" y="543"/>
      <point x="545" y="468"/>
      <point x="545" y="313" type="curve"/>
      <point x="545" y="162"/>
      <point x="477" y="91"/>
      <point x="335" y="91" type="curve"/>
      <point x="190" y="91"/>
      <point x="121" y="162"/>
      <point x="121" y="313" type="curve"/>
      <point x="121" y="468"/>
      <point x="190" y="543"/>
    </contour>
    <contour>
      <point x="452" y="262" type="line"/>
      <point x="423" y="253"/>
      <point x="391" y="247"/>
      <point x="359" y="247" type="curve"/>
      <point x="323" y="247"/>
      <point x="299" y="263"/>
      <point x="299" y="317" type="curve" smooth="yes"/>
      <point x="299" y="376"/>
      <point x="321" y="390"/>
      <point x="357" y="390" type="curve"/>
      <point x="393" y="390"/>
      <point x="408" y="388"/>
      <point x="443" y="384" type="curve"/>
      <point x="443" y="482" type="line"/>
      <point x="412" y="490"/>
      <point x="384" y="494"/>
      <point x="344" y="494" type="curve"/>
      <point x="234" y="494"/>
      <point x="166" y="446"/>
      <point x="166" y="316" type="curve" smooth="yes"/>
      <point x="166" y="177"/>
      <point x="235" y="137"/>
      <point x="335" y="137" type="curve"/>
      <point x="388" y="137"/>
      <point x="429" y="148"/>
      <point x="452" y="159" type="curve"/>
    </contour>
  </outline>
</glyph>
<glyph name="ordfeminine" format="1">
  <advance width="321"/>
  <unicode hex="00AA"/>
  <outline>
    <contour>
      <point x="26" y="226" type="line"/>
      <point x="292" y="226" type="line"/>
      <point x="292" y="316" type="line"/>
      <point x="26" y="316" type="line"/>
    </contour>
    <contour>
      <point x="26" y="438" type="curve"/>
      <point x="26" y="378"/>
      <point x="53" y="348"/>
      <point x="111" y="348" type="curve"/>
      <point x="147" y="348"/>
      <point x="171" y="363"/>
      <point x="198" y="384" type="curve"/>
      <point x="198" y="443" type="line"/>
      <point x="197" y="441"/>
      <point x="174" y="429"/>
      <point x="145" y="429" type="curve"/>
      <point x="129" y="429"/>
      <point x="122" y="433"/>
      <point x="122" y="444" type="curve"/>
      <point x="122" y="456"/>
      <point x="128" y="460"/>
      <point x="151" y="460" type="curve"/>
      <point x="177" y="460"/>
      <point x="191" y="457"/>
      <point x="198" y="455" type="curve"/>
      <point x="198" y="515" type="line"/>
      <point x="191" y="519"/>
      <point x="157" y="523"/>
      <point x="138" y="523" type="curve"/>
      <point x="54" y="523"/>
      <point x="26" y="498"/>
    </contour>
    <contour>
      <point x="191" y="354" type="line"/>
      <point x="288" y="354" type="line"/>
      <point x="288" y="548" type="line" smooth="yes"/>
      <point x="288" y="608"/>
      <point x="245" y="636"/>
      <point x="176" y="636" type="curve"/>
      <point x="121" y="636"/>
      <point x="87" y="633"/>
      <point x="53" y="626" type="curve"/>
      <point x="53" y="542" type="line"/>
      <point x="68" y="544"/>
      <point x="97" y="548"/>
      <point x="143" y="548" type="curve" smooth="yes"/>
      <point x="169" y="548"/>
      <point x="185" y="545"/>
      <point x="185" y="529" type="curve" smooth="yes"/>
      <point x="185" y="375" type="line"/>
      <point x="188" y="375" type="line"/>
    </contour>
  </outline>
</glyph>
<glyph name="guillemotleft" format="1">
  <advance width="518"/>
  <unicode hex="00AB"/>
  <outline>
    <contour>
      <point x="293" y="494" type="line"/>
      <point x="148" y="494" type="line"/>
      <point x="11" y="281" type="line"/>
      <point x="126" y="233" type="line"/>
    </contour>
    <contour>
      <point x="148" y="64" type="line"/>
      <point x="293" y="64" type="line"/>
      <point x="128" y="333" type="line"/>
      <point x="11" y="281" type="line"/>
    </contour>
    <contour>
      <point x="506" y="494" type="line"/>
      <point x="361" y="494" type="line"/>
      <point x="223" y="281" type="line"/>
      <point x="339" y="233" type="line"/>
    </contour>
    <contour>
      <point x="361" y="64" type="line"/>
      <point x="506" y="64" type="line"/>
      <point x="340" y="333" type="line"/>
      <point x="223" y="281" type="line"/>
    </contour>
  </outline>
</glyph>
<glyph name="logicalnot" format="1">
  <advance width="500"/>
  <unicode hex="00AC"/>
  <outline>
    <contour>
      <point x="463" y="106" type="line"/>
      <point x="463" y="392" type="line"/>
      <point x="37" y="392" type="line"/>
      <point x="37" y="240" type="line"/>
      <point x="306" y="240" type="line"/>
      <point x="306" y="106" type="line"/>
    </contour>
  </outline>
</glyph>
<glyph name="registered" format="1">
  <advance width="395"/>
  <unicode hex="00AE"/>
  <outline>
    <contour>
      <point x="198" y="270" type="curve"/>
      <point x="316" y="270"/>
      <point x="379" y="334"/>
      <point x="379" y="454" type="curve"/>
      <point x="379" y="578"/>
      <point x="316" y="637"/>
      <point x="199" y="637" type="curve"/>
      <point x="80" y="637"/>
      <point x="16" y="573"/>
      <point x="16" y="454" type="curve"/>
      <point x="16" y="329"/>
      <point x="79" y="270"/>
    </contour>
    <contour>
      <point x="199" y="583" type="curve"/>
      <point x="280" y="583"/>
      <point x="317" y="542"/>
      <point x="317" y="454" type="curve"/>
      <point x="317" y="367"/>
      <point x="280" y="328"/>
      <point x="199" y="328" type="curve"/>
      <point x="116" y="328"/>
      <point x="78" y="367"/>
      <point x="78" y="454" type="curve"/>
      <point x="78" y="542"/>
      <point x="116" y="583"/>
    </contour>
    <contour>
      <point x="198" y="418" type="line" smooth="yes"/>
      <point x="246" y="418"/>
      <point x="283" y="432"/>
      <point x="283" y="488" type="curve"/>
      <point x="283" y="549"/>
      <point x="242" y="557"/>
      <point x="197" y="557" type="curve" smooth="yes"/>
      <point x="161" y="557" type="line"/>
      <point x="161" y="506" type="line"/>
      <point x="197" y="506" type="line" smooth="yes"/>
      <point x="214" y="506"/>
      <point x="226" y="504"/>
      <point x="226" y="488" type="curve"/>
      <point x="226" y="464"/>
      <point x="213" y="463"/>
      <point x="197" y="463" type="curve" smooth="yes"/>
      <point x="161" y="463" type="line"/>
      <point x="161" y="418" type="line"/>
    </contour>
    <contour>
      <point x="178" y="355" type="line"/>
      <point x="178" y="557" type="line"/>
      <point x="122" y="557" type="line"/>
      <point x="122" y="355" type="line"/>
    </contour>
    <contour>
      <point x="179" y="428" type="line"/>
      <point x="216" y="355" type="line"/>
      <point x="284" y="355" type="line"/>
      <point x="241" y="428" type="line"/>
    </contour>
  </outline>
</glyph>
<glyph name="macron" format="1">
  <advance width="357"/>
  <unicode hex="00AF"/>
  <outline>
    <contour>
      <point x="307" y="547" type="line"/>
      <point x="307" y="663" type="line"/>
      <point x="50" y="663" type="line"/>
      <point x="50" y="547" type="line"/>
    </contour>
    <contour>
      <point x="179" y="530" type="move" name="_top"/>
    </contour>
  </outline>
</glyph>
<glyph name="degree" format="1">
  <advance width="300"/>
  <unicode hex="00B0"/>
  <outline>
    <contour>
      <point x="150" y="366" type="curve" smooth="yes"/>
      <point x="234" y="366"/>
      <point x="288" y="417"/>
      <point x="288" y="499" type="curve" smooth="yes"/>
      <point x="288" y="582"/>
      <point x="234" y="634"/>
      <point x="150" y="634" type="curve" smooth="yes"/>
      <point x="66" y="634"/>
      <point x="12" y="582"/>
      <point x="12" y="499" type="curve" smooth="yes"/>
      <point x="12" y="417"/>
      <point x="66" y="366"/>
    </contour>
    <contour>
      <point x="150" y="463" type="curve" smooth="yes"/>
      <point x="127" y="463"/>
      <point x="115" y="477"/>
      <point x="115" y="501" type="curve" smooth="yes"/>
      <point x="115" y="524"/>
      <point x="127" y="537"/>
      <point x="150" y="537" type="curve" smooth="yes"/>
      <point x="173" y="537"/>
      <point x="186" y="524"/>
      <point x="186" y="501" type="curve" smooth="yes"/>
      <point x="186" y="477"/>
      <point x="173" y="463"/>
    </contour>
  </outline>
</glyph>
<glyph name="plusminus" format="1">
  <advance width="500"/>
  <unicode hex="00B1"/>
  <outline>
    <contour>
      <point x="463" y="335" type="line"/>
      <point x="463" y="487" type="line"/>
      <point x="37" y="487" type="line"/>
      <point x="37" y="335" type="line"/>
    </contour>
    <contour>
      <point x="329" y="601" type="line"/>
      <point x="172" y="601" type="line"/>
      <point x="172" y="219" type="line"/>
      <point x="329" y="219" type="line"/>
    </contour>
    <component base="minus" yOffset="-222"/>
  </outline>
</glyph>
<glyph name="uni00B2" format="1">
  <advance width="287"/>
  <unicode hex="00B2"/>
  <outline>
    <contour>
      <point x="267" y="270" type="line"/>
      <point x="267" y="378" type="line"/>
      <point x="152" y="378" type="line"/>
      <point x="231" y="447" type="line" smooth="yes"/>
      <point x="258" y="471"/>
      <point x="269" y="496"/>
      <point x="269" y="537" type="curve"/>
      <point x="269" y="592"/>
      <point x="234" y="633"/>
      <point x="159" y="633" type="curve"/>
      <point x="108" y="633"/>
      <point x="58" y="626"/>
      <point x="31" y="619" type="curve"/>
      <point x="31" y="519" type="line"/>
      <point x="37" y="519"/>
      <point x="96" y="528"/>
      <point x="135" y="528" type="curve"/>
      <point x="151" y="528"/>
      <point x="154" y="520"/>
      <point x="154" y="515" type="curve"/>
      <point x="154" y="506"/>
      <point x="150" y="500"/>
      <point x="139" y="489" type="curve" smooth="yes"/>
      <point x="14" y="378" type="line"/>
      <point x="14" y="270" type="line"/>
    </contour>
  </outline>
</glyph>
<glyph name="uni00B3" format="1">
  <advance width="277"/>
  <unicode hex="00B3"/>
  <outline>
    <contour>
      <point x="194" y="458" type="line"/>
      <point x="236" y="469"/>
      <point x="250" y="500"/>
      <point x="250" y="539" type="curve"/>
      <point x="250" y="601"/>
      <point x="213" y="633"/>
      <point x="145" y="633" type="curve"/>
      <point x="101" y="633"/>
      <point x="48" y="626"/>
      <point x="22" y="617" type="curve"/>
      <point x="22" y="526" type="line"/>
      <point x="28" y="526"/>
      <point x="83" y="534"/>
      <point x="109" y="534" type="curve"/>
      <point x="137" y="534"/>
      <point x="142" y="527"/>
      <point x="142" y="516" type="curve"/>
      <point x="142" y="505"/>
      <point x="134" y="498"/>
      <point x="109" y="498" type="curve"/>
      <point x="52" y="498" type="line"/>
      <point x="52" y="405" type="line"/>
      <point x="124" y="405" type="line"/>
      <point x="143" y="405"/>
      <point x="154" y="401"/>
      <point x="154" y="386" type="curve"/>
      <point x="154" y="370"/>
      <point x="146" y="366"/>
      <point x="112" y="366" type="curve"/>
      <point x="78" y="366"/>
      <point x="48" y="367"/>
      <point x="16" y="372" type="curve"/>
      <point x="16" y="276" type="line"/>
      <point x="37" y="268"/>
      <point x="83" y="264"/>
      <point x="129" y="264" type="curve"/>
      <point x="208" y="264"/>
      <point x="263" y="298"/>
      <point x="263" y="374" type="curve"/>
      <point x="263" y="424"/>
      <point x="242" y="454"/>
      <point x="195" y="458" type="curve"/>
    </contour>
  </outline>
</glyph>
<glyph name="acute" format="1">
  <advance width="392"/>
  <unicode hex="00B4"/>
  <outline>
    <contour>
      <point x="342" y="678" type="line"/>
      <point x="156" y="678" type="line"/>
      <point x="50" y="542" type="line"/>
      <point x="187" y="542" type="line"/>
    </contour>
    <contour>
      <point x="155" y="530" type="move" name="_top"/>
    </contour>
  </outline>
</glyph>
<glyph name="paragraph" format="1">
  <advance width="489"/>
  <unicode hex="00B6"/>
  <outline>
    <contour>
      <point x="450" y="25" type="curve" smooth="yes"/>
      <point x="450" y="627" type="line"/>
      <point x="428" y="630"/>
      <point x="360" y="639"/>
      <point x="270" y="639" type="curve"/>
      <point x="78" y="639"/>
      <point x="14" y="572"/>
      <point x="14" y="382" type="curve" smooth="yes"/>
      <point x="14" y="196"/>
      <point x="66" y="131"/>
      <point x="211" y="131" type="curve"/>
      <point x="232" y="131"/>
      <point x="252" y="132"/>
      <point x="270" y="135" type="curve"/>
      <point x="270" y="30" type="line" smooth="yes"/>
      <point x="270" y="-2"/>
      <point x="257" y="-10"/>
      <point x="225" y="-10" type="curve"/>
      <point x="213" y="-10"/>
      <point x="204" y="-9"/>
      <point x="197" y="-8" type="curve"/>
      <point x="197" y="-156" type="line"/>
      <point x="212" y="-158"/>
      <point x="232" y="-162"/>
      <point x="278" y="-162" type="curve"/>
      <point x="376" y="-162"/>
      <point x="450" y="-99"/>
    </contour>
    <contour>
      <point x="184" y="383" type="curve" smooth="yes"/>
      <point x="184" y="470"/>
      <point x="195" y="479"/>
      <point x="246" y="479" type="curve"/>
      <point x="257" y="479"/>
      <point x="263" y="479"/>
      <point x="270" y="478" type="curve"/>
      <point x="270" y="295" type="line"/>
      <point x="259" y="293"/>
      <point x="248" y="292"/>
      <point x="238" y="292" type="curve"/>
      <point x="193" y="292"/>
      <point x="184" y="303"/>
    </contour>
  </outline>
</glyph>
<glyph name="cedilla" format="1">
  <advance width="333"/>
  <unicode hex="00B8"/>
  <outline>
    <contour>
      <point x="281" y="-109" type="curve"/>
      <point x="281" y="-57"/>
      <point x="236" y="-38"/>
      <point x="195" y="-38" type="curve"/>
      <point x="205" y="15" type="line"/>
      <point x="99" y="25" type="line"/>
      <point x="77" y="-82" type="line"/>
      <point x="101" y="-81"/>
      <point x="111" y="-80"/>
      <point x="126" y="-80" type="curve"/>
      <point x="151" y="-80"/>
      <point x="166" y="-85"/>
      <point x="166" y="-100" type="curve"/>
      <point x="166" y="-115"/>
      <point x="160" y="-121"/>
      <point x="135" y="-121" type="curve" smooth="yes"/>
      <point x="110" y="-121"/>
      <point x="74" y="-116"/>
      <point x="60" y="-112" type="curve"/>
      <point x="60" y="-184" type="line"/>
      <point x="68" y="-187"/>
      <point x="113" y="-195"/>
      <point x="161" y="-195" type="curve" smooth="yes"/>
      <point x="222" y="-195"/>
      <point x="281" y="-179"/>
    </contour>
    <contour>
      <point x="151" y="0" type="move" name="_bottom"/>
    </contour>
  </outline>
</glyph>
<glyph name="ordmasculine" format="1">
  <advance width="342"/>
  <unicode hex="00BA"/>
  <outline>
    <contour>
      <point x="30" y="226" type="line"/>
      <point x="312" y="226" type="line"/>
      <point x="312" y="316" type="line"/>
      <point x="30" y="316" type="line"/>
    </contour>
    <contour>
      <point x="172" y="348" type="curve" smooth="yes"/>
      <point x="272" y="348"/>
      <point x="319" y="394"/>
      <point x="319" y="492" type="curve" smooth="yes"/>
      <point x="319" y="589"/>
      <point x="272" y="636"/>
      <point x="172" y="636" type="curve" smooth="yes"/>
      <point x="71" y="636"/>
      <point x="25" y="590"/>
      <point x="25" y="492" type="curve" smooth="yes"/>
      <point x="25" y="394"/>
      <point x="72" y="348"/>
    </contour>
    <contour>
      <point x="172" y="443" type="curve" smooth="yes"/>
      <point x="140" y="443"/>
      <point x="128" y="457"/>
      <point x="128" y="493" type="curve" smooth="yes"/>
      <point x="128" y="530"/>
      <point x="139" y="543"/>
      <point x="172" y="543" type="curve" smooth="yes"/>
      <point x="204" y="543"/>
      <point x="215" y="530"/>
      <point x="215" y="493" type="curve" smooth="yes"/>
      <point x="215" y="457"/>
      <point x="204" y="443"/>
    </contour>
  </outline>
</glyph>
<glyph name="AE" format="1">
  <advance width="751"/>
  <unicode hex="00C6"/>
  <outline>
    <contour>
      <point x="-6" y="0" type="line"/>
      <point x="185" y="0" type="line"/>
      <point x="268" y="286" type="line" smooth="yes"/>
      <point x="285" y="345"/>
      <point x="328" y="515"/>
      <point x="350" y="627" type="curve"/>
      <point x="213" y="627" type="line"/>
    </contour>
    <contour>
      <point x="598" y="0" type="line"/>
      <point x="409" y="627" type="line"/>
      <point x="260" y="627" type="line"/>
      <point x="284" y="510"/>
      <point x="327" y="346"/>
      <point x="345" y="286" type="curve" smooth="yes"/>
      <point x="429" y="0" type="line"/>
    </contour>
    <contour>
      <point x="147" y="87" type="line"/>
      <point x="452" y="87" type="line"/>
      <point x="452" y="231" type="line"/>
      <point x="147" y="231" type="line"/>
    </contour>
    <contour>
      <point x="387" y="464" type="line"/>
      <point x="720" y="464" type="line"/>
      <point x="720" y="627" type="line"/>
      <point x="387" y="627" type="line"/>
    </contour>
    <contour>
      <point x="452" y="241" type="line"/>
      <point x="683" y="241" type="line"/>
      <point x="683" y="393" type="line"/>
      <point x="452" y="393" type="line"/>
    </contour>
    <contour>
      <point x="530" y="0" type="line"/>
      <point x="729" y="0" type="line"/>
      <point x="729" y="167" type="line"/>
      <point x="530" y="167" type="line"/>
    </contour>
    <contour>
      <point x="422" y="645" type="move" name="top"/>
    </contour>
  </outline>
</glyph>
<glyph name="multiply" format="1">
  <advance width="500"/>
  <unicode hex="00D7"/>
  <outline>
    <contour>
      <point x="472" y="437" type="line"/>
      <point x="364" y="544" type="line"/>
      <point x="27" y="207" type="line"/>
      <point x="135" y="100" type="line"/>
    </contour>
    <contour>
      <point x="139" y="544" type="line"/>
      <point x="28" y="433" type="line"/>
      <point x="362" y="99" type="line"/>
      <point x="474" y="209" type="line"/>
    </contour>
  </outline>
</glyph>
<glyph name="Oslash" format="1">
  <advance width="645"/>
  <unicode hex="00D8"/>
  <outline>
    <contour>
      <point x="36" y="-10" type="line"/>
      <point x="134" y="-75" type="line"/>
      <point x="247" y="95" type="line"/>
      <point x="149" y="160" type="line"/>
    </contour>
    <contour>
      <point x="499" y="475" type="line"/>
      <point x="610" y="643" type="line"/>
      <point x="511" y="707" type="line"/>
      <point x="407" y="550" type="line"/>
    </contour>
    <contour>
      <point x="245" y="111" type="line"/>
      <point x="485" y="475" type="line"/>
      <point x="408" y="533" type="line"/>
      <point x="161" y="159" type="line"/>
    </contour>
    <component base="O"/>
    <contour>
      <point x="322.0" y="655.0" type="move" name="top"/>
    </contour>
  </outline>
</glyph>
<glyph name="Thorn" format="1">
  <advance width="568"/>
  <unicode hex="00DE"/>
  <outline>
    <contour>
      <point x="277" y="85" type="line" smooth="yes"/>
      <point x="460" y="85"/>
      <point x="550" y="156"/>
      <point x="550" y="320" type="curve"/>
      <point x="550" y="488"/>
      <point x="470" y="547"/>
      <point x="274" y="547" type="curve" smooth="yes"/>
      <point x="169" y="547" type="line"/>
      <point x="169" y="379" type="line"/>
      <point x="283" y="379" type="line" smooth="yes"/>
      <point x="335" y="379"/>
      <point x="361" y="367"/>
      <point x="361" y="317" type="curve"/>
      <point x="361" y="260"/>
      <point x="335" y="247"/>
      <point x="283" y="247" type="curve" smooth="yes"/>
      <point x="169" y="247" type="line"/>
      <point x="169" y="85" type="line"/>
    </contour>
    <contour>
      <point x="224" y="0" type="line"/>
      <point x="224" y="627" type="line"/>
      <point x="39" y="627" type="line"/>
      <point x="39" y="0" type="line"/>
    </contour>
  </outline>
</glyph>
<glyph name="germandbls" format="1">
  <advance width="590"/>
  <unicode hex="00DF"/>
  <outline>
    <contour>
      <point x="257" y="677" type="curve"/>
      <point x="114" y="677"/>
      <point x="34" y="613"/>
      <point x="34" y="484" type="curve" smooth="yes"/>
      <point x="34" y="0" type="line"/>
      <point x="214" y="0" type="line"/>
      <point x="214" y="481" type="line" smooth="yes"/>
      <point x="214" y="509"/>
      <point x="226" y="522"/>
      <point x="258" y="522" type="curve"/>
      <point x="278" y="522"/>
      <point x="300" y="517"/>
      <point x="300" y="490" type="curve" smooth="yes"/>
      <point x="300" y="482"/>
      <point x="299" y="477"/>
      <point x="297" y="464" type="curve" smooth="yes"/>
      <point x="265" y="239" type="line"/>
      <point x="381" y="212" type="line" smooth="yes"/>
      <point x="399" y="208"/>
      <point x="403" y="202"/>
      <point x="403" y="182" type="curve" smooth="yes"/>
      <point x="403" y="159"/>
      <point x="394" y="147"/>
      <point x="365" y="147" type="curve" smooth="yes"/>
      <point x="334" y="147"/>
      <point x="300" y="151"/>
      <point x="275" y="155" type="curve"/>
      <point x="275" y="3" type="line"/>
      <point x="306" y="-4"/>
      <point x="352" y="-10"/>
      <point x="403" y="-10" type="curve" smooth="yes"/>
      <point x="502" y="-10"/>
      <point x="572" y="37"/>
      <point x="572" y="176" type="curve" smooth="yes"/>
      <point x="572" y="282"/>
      <point x="547" y="318"/>
      <point x="486" y="332" type="curve" smooth="yes"/>
      <point x="447" y="342" type="line"/>
      <point x="469" y="470" type="line" smooth="yes"/>
      <point x="473" y="489"/>
      <point x="476" y="518"/>
      <point x="476" y="533" type="curve" smooth="yes"/>
      <point x="476" y="614"/>
      <point x="429" y="677"/>
    </contour>
  </outline>
</glyph>
<glyph name="ae" format="1">
  <advance width="722"/>
  <unicode hex="00E6"/>
  <outline>
    <contour>
      <point x="490" y="362" type="curve"/>
      <point x="531" y="362"/>
      <point x="540" y="352"/>
      <point x="542" y="318" type="curve"/>
      <point x="543" y="310"/>
      <point x="543" y="301"/>
      <point x="543" y="295" type="curve"/>
      <point x="435" y="295" type="line"/>
      <point x="435" y="341"/>
      <point x="444" y="362"/>
    </contour>
    <contour>
      <point x="681" y="24" type="curve"/>
      <point x="681" y="161" type="line"/>
      <point x="656" y="155"/>
      <point x="586" y="143"/>
      <point x="508" y="143" type="curve" smooth="yes"/>
      <point x="454" y="143"/>
      <point x="437" y="156"/>
      <point x="435" y="198" type="curve"/>
      <point x="697" y="198" type="line"/>
      <point x="701" y="233"/>
      <point x="702" y="255"/>
      <point x="702" y="299" type="curve"/>
      <point x="702" y="437"/>
      <point x="655" y="504"/>
      <point x="497" y="504" type="curve"/>
      <point x="341" y="504"/>
      <point x="272" y="404"/>
      <point x="272" y="246" type="curve" smooth="yes"/>
      <point x="272" y="66"/>
      <point x="335" y="-11"/>
      <point x="488" y="-11" type="curve" smooth="yes"/>
      <point x="582" y="-11"/>
      <point x="656" y="11"/>
    </contour>
    <contour>
      <point x="13" y="146" type="curve"/>
      <point x="13" y="38"/>
      <point x="55" y="-11"/>
      <point x="156" y="-11" type="curve"/>
      <point x="232" y="-11"/>
      <point x="296" y="24"/>
      <point x="333" y="61" type="curve"/>
      <point x="295" y="148" type="line"/>
      <point x="287" y="139"/>
      <point x="251" y="122"/>
      <point x="212" y="122" type="curve"/>
      <point x="184" y="122"/>
      <point x="175" y="132"/>
      <point x="175" y="156" type="curve"/>
      <point x="175" y="181"/>
      <point x="184" y="190"/>
      <point x="221" y="190" type="curve" smooth="yes"/>
      <point x="231" y="190"/>
      <point x="288" y="189"/>
      <point x="293" y="186" type="curve"/>
      <point x="293" y="287" type="line"/>
      <point x="284" y="290"/>
      <point x="215" y="292"/>
      <point x="196" y="292" type="curve" smooth="yes"/>
      <point x="68" y="292"/>
      <point x="13" y="252"/>
    </contour>
    <contour>
      <point x="416" y="341" type="line"/>
      <point x="416" y="452"/>
      <point x="355" y="504"/>
      <point x="244" y="504" type="curve" smooth="yes"/>
      <point x="170" y="504"/>
      <point x="106" y="497"/>
      <point x="58" y="486" type="curve"/>
      <point x="58" y="339" type="line"/>
      <point x="88" y="344"/>
      <point x="127" y="349"/>
      <point x="197" y="349" type="curve" smooth="yes"/>
      <point x="252" y="349"/>
      <point x="272" y="338"/>
      <point x="272" y="312" type="curve" smooth="yes"/>
      <point x="272" y="217" type="line"/>
    </contour>
    <contour>
      <point x="376" y="530" type="move" name="top"/>
    </contour>
  </outline>
</glyph>
<glyph name="eth" format="1">
  <advance width="541"/>
  <unicode hex="00F0"/>
  <outline>
    <contour>
      <point x="522" y="566" type="line"/>
      <point x="522" y="664" type="line"/>
      <point x="141" y="579" type="line"/>
      <point x="141" y="481" type="line"/>
    </contour>
    <contour>
      <point x="269" y="-11" type="curve" smooth="yes"/>
      <point x="448" y="-11"/>
      <point x="520" y="59"/>
      <point x="520" y="237" type="curve" smooth="yes"/>
      <point x="520" y="402"/>
      <point x="437" y="467"/>
      <point x="269" y="467" type="curve" smooth="yes"/>
      <point x="90" y="467"/>
      <point x="19" y="400"/>
      <point x="19" y="228" type="curve" smooth="yes"/>
      <point x="19" y="57"/>
      <point x="90" y="-11"/>
    </contour>
    <contour>
      <point x="269" y="156" type="curve" smooth="yes"/>
      <point x="212" y="156"/>
      <point x="199" y="168"/>
      <point x="199" y="231" type="curve" smooth="yes"/>
      <point x="199" y="293"/>
      <point x="212" y="305"/>
      <point x="269" y="305" type="curve" smooth="yes"/>
      <point x="326" y="305"/>
      <point x="340" y="293"/>
      <point x="340" y="231" type="curve" smooth="yes"/>
      <point x="340" y="168"/>
      <point x="326" y="156"/>
    </contour>
    <contour>
      <point x="376" y="665" type="curve"/>
      <point x="186" y="665" type="line"/>
      <point x="278" y="562"/>
      <point x="340" y="450"/>
      <point x="324" y="352" type="curve"/>
      <point x="520" y="237" type="line"/>
      <point x="520" y="440"/>
      <point x="469" y="563"/>
    </contour>
  </outline>
</glyph>
<glyph name="oslash" format="1">
  <advance width="539"/>
  <unicode hex="00F8"/>
  <outline>
    <contour>
      <point x="16" y="-20" type="line"/>
      <point x="114" y="-87" type="line"/>
      <point x="202" y="40" type="line"/>
      <point x="227" y="108" type="line"/>
      <point x="381" y="334" type="line"/>
      <point x="435" y="381" type="line"/>
      <point x="525" y="512" type="line"/>
      <point x="427" y="578" type="line"/>
      <point x="348" y="461" type="line"/>
      <point x="325" y="401" type="line"/>
      <point x="159" y="161" type="line"/>
      <point x="92" y="91" type="line"/>
    </contour>
    <contour>
      <point x="269" y="-11" type="curve" smooth="yes"/>
      <point x="449" y="-11"/>
      <point x="520" y="61"/>
      <point x="520" y="247" type="curve" smooth="yes"/>
      <point x="520" y="430"/>
      <point x="448" y="504"/>
      <point x="269" y="504" type="curve" smooth="yes"/>
      <point x="90" y="504"/>
      <point x="19" y="432"/>
      <point x="19" y="247" type="curve" smooth="yes"/>
      <point x="19" y="64"/>
      <point x="92" y="-11"/>
    </contour>
    <contour>
      <point x="269" y="144" type="curve" smooth="yes"/>
      <point x="203" y="144"/>
      <point x="189" y="161"/>
      <point x="189" y="249" type="curve" smooth="yes"/>
      <point x="189" y="337"/>
      <point x="204" y="354"/>
      <point x="269" y="354" type="curve" smooth="yes"/>
      <point x="336" y="354"/>
      <point x="351" y="337"/>
      <point x="351" y="249" type="curve" smooth="yes"/>
      <point x="351" y="161"/>
      <point x="336" y="144"/>
    </contour>
    <contour>
      <point x="269.0" y="530.0" type="move" name="top"/>
    </contour>
  </outline>
</glyph>
<glyph name="Dcroat" format="1">
  <advance width="650"/>
  <unicode hex="0110"/>
  <outline>
    <contour>
      <point x="372" y="259" type="line"/>
      <point x="372" y="381" type="line"/>
      <point x="15" y="381" type="line"/>
      <point x="15" y="259" type="line"/>
    </contour>
    <component base="D" xOffset="47"/>
  </outline>
</glyph>
<glyph name="dcroat" format="1">
  <advance width="544"/>
  <unicode hex="0111"/>
  <outline>
    <contour>
      <point x="580" y="527" type="line"/>
      <point x="580" y="621" type="line"/>
      <point x="199" y="621" type="line"/>
      <point x="199" y="527" type="line"/>
    </contour>
    <contour>
      <point x="510" y="665" type="line"/>
      <point x="330" y="665" type="line"/>
      <point x="330" y="46" type="line"/>
      <point x="341" y="46" type="line"/>
      <point x="350" y="0" type="line"/>
      <point x="510" y="0" type="line"/>
    </contour>
    <contour>
      <point x="372" y="197" type="line"/>
      <point x="358" y="186"/>
      <point x="324" y="156"/>
      <point x="263" y="156" type="curve"/>
      <point x="213" y="156"/>
      <point x="199" y="168"/>
      <point x="199" y="241" type="curve" smooth="yes"/>
      <point x="199" y="317"/>
      <point x="214" y="331"/>
      <point x="269" y="331" type="curve"/>
      <point x="322" y="331"/>
      <point x="344" y="318"/>
      <point x="361" y="307" type="curve"/>
      <point x="394" y="429" type="line"/>
      <point x="379" y="473"/>
      <point x="307" y="490"/>
      <point x="235" y="490" type="curve"/>
      <point x="89" y="490"/>
      <point x="19" y="420"/>
      <point x="19" y="241" type="curve" smooth="yes"/>
      <point x="19" y="63"/>
      <point x="67" y="-11"/>
      <point x="200" y="-11" type="curve"/>
      <point x="295" y="-11"/>
      <point x="357" y="41"/>
      <point x="390" y="149" type="curve"/>
    </contour>
  </outline>
</glyph>
<glyph name="Hbar" format="1">
  <advance width="686"/>
  <unicode hex="0126"/>
  <outline>
    <contour>
      <point x="669" y="450" type="line"/>
      <point x="669" y="554" type="line"/>
      <point x="17" y="554" type="line"/>
      <point x="17" y="450" type="line"/>
    </contour>
    <component base="H" xOffset="33"/>
  </outline>
</glyph>
<glyph name="hbar" format="1">
  <advance width="541"/>
  <unicode hex="0127"/>
  <outline>
    <contour>
      <point x="338" y="527" type="line"/>
      <point x="338" y="621" type="line"/>
      <point x="-42" y="621" type="line"/>
      <point x="-42" y="527" type="line"/>
    </contour>
    <contour>
      <point x="34" y="0" type="line"/>
      <point x="214" y="0" type="line"/>
      <point x="214" y="665" type="line"/>
      <point x="34" y="665" type="line"/>
    </contour>
    <contour>
      <point x="180" y="315" type="line"/>
      <point x="194" y="325"/>
      <point x="239" y="342"/>
      <point x="284" y="342" type="curve" smooth="yes"/>
      <point x="318" y="342"/>
      <point x="329" y="329"/>
      <point x="329" y="305" type="curve" smooth="yes"/>
      <point x="329" y="0" type="line"/>
      <point x="509" y="0" type="line"/>
      <point x="509" y="342" type="line" smooth="yes"/>
      <point x="509" y="451"/>
      <point x="456" y="504"/>
      <point x="353" y="504" type="curve" smooth="yes"/>
      <point x="282" y="504"/>
      <point x="220" y="472"/>
      <point x="180" y="427" type="curve"/>
    </contour>
  </outline>
</glyph>
<glyph name="dotlessi" format="1">
  <advance width="247"/>
  <unicode hex="0131"/>
  <outline>
    <contour>
      <point x="34" y="0" type="line"/>
      <point x="214" y="0" type="line"/>
      <point x="214" y="494" type="line"/>
      <point x="34" y="494" type="line"/>
    </contour>
    <contour>
      <point x="124" y="524" type="move" name="top"/>
    </contour>
  </outline>
</glyph>
<glyph name="Lslash" format="1">
  <advance width="506"/>
  <unicode hex="0141"/>
  <outline>
    <contour>
      <point x="394" y="327" type="line"/>
      <point x="394" y="452" type="line"/>
      <point x="17" y="345" type="line"/>
      <point x="17" y="220" type="line"/>
    </contour>
    <component base="L" xOffset="48"/>
  </outline>
</glyph>
<glyph name="lslash" format="1">
  <advance width="346"/>
  <unicode hex="0142"/>
  <outline>
    <contour>
      <point x="335" y="315" type="line"/>
      <point x="335" y="437" type="line"/>
      <point x="17" y="340" type="line"/>
      <point x="17" y="218" type="line"/>
    </contour>
    <component base="l" xOffset="45"/>
  </outline>
</glyph>
<glyph name="Eng" format="1">
  <advance width="634"/>
  <unicode hex="014A"/>
  <outline>
    <contour>
      <point x="595" y="9" type="curve" smooth="yes"/>
      <point x="595" y="627" type="line"/>
      <point x="422" y="627" type="line"/>
      <point x="422" y="299" type="line"/>
      <point x="212" y="627" type="line"/>
      <point x="39" y="627" type="line"/>
      <point x="39" y="0" type="line"/>
      <point x="212" y="0" type="line"/>
      <point x="212" y="311" type="line"/>
      <point x="416" y="12" type="line"/>
      <point x="413" y="-11"/>
      <point x="400" y="-17"/>
      <point x="366" y="-17" type="curve"/>
      <point x="359" y="-17"/>
      <point x="353" y="-17"/>
      <point x="345" y="-16" type="curve"/>
      <point x="345" y="-162" type="line"/>
      <point x="359" y="-164"/>
      <point x="373" y="-168"/>
      <point x="420" y="-168" type="curve"/>
      <point x="517" y="-168"/>
      <point x="595" y="-109"/>
    </contour>
  </outline>
</glyph>
<glyph name="eng" format="1">
  <advance width="541"/>
  <unicode hex="014B"/>
  <outline>
    <contour>
      <point x="34" y="0" type="line"/>
      <point x="214" y="0" type="line"/>
      <point x="214" y="442" type="line"/>
      <point x="196" y="442" type="line"/>
      <point x="189" y="494" type="line"/>
      <point x="34" y="494" type="line"/>
    </contour>
    <contour>
      <point x="509" y="4" type="curve" smooth="yes"/>
      <point x="509" y="342" type="line" smooth="yes"/>
      <point x="509" y="451"/>
      <point x="452" y="504"/>
      <point x="351" y="504" type="curve" smooth="yes"/>
      <point x="278" y="504"/>
      <point x="226" y="481"/>
      <point x="180" y="417" type="curve"/>
      <point x="180" y="305" type="line"/>
      <point x="196" y="322"/>
      <point x="233" y="342"/>
      <point x="278" y="342" type="curve" smooth="yes"/>
      <point x="312" y="342"/>
      <point x="329" y="329"/>
      <point x="329" y="305" type="curve" smooth="yes"/>
      <point x="329" y="28" type="line" smooth="yes"/>
      <point x="329" y="-3"/>
      <point x="319" y="-11"/>
      <point x="282" y="-11" type="curve"/>
      <point x="275" y="-11"/>
      <point x="270" y="-11"/>
      <point x="261" y="-10" type="curve"/>
      <point x="261" y="-156" type="line"/>
      <point x="275" y="-158"/>
      <point x="290" y="-162"/>
      <point x="334" y="-162" type="curve"/>
      <point x="437" y="-162"/>
      <point x="509" y="-111"/>
    </contour>
  </outline>
</glyph>
<glyph name="OE" format="1">
  <advance width="841"/>
  <unicode hex="0152"/>
  <outline>
    <contour>
      <point x="310" y="-11" type="curve"/>
      <point x="516" y="-11"/>
      <point x="593" y="88"/>
      <point x="593" y="314" type="curve"/>
      <point x="593" y="547"/>
      <point x="525" y="637"/>
      <point x="310" y="637" type="curve"/>
      <point x="105" y="637"/>
      <point x="21" y="538"/>
      <point x="21" y="314" type="curve"/>
      <point x="21" y="79"/>
      <point x="96" y="-11"/>
    </contour>
    <contour>
      <point x="310" y="163" type="curve"/>
      <point x="233" y="163"/>
      <point x="210" y="185"/>
      <point x="210" y="314" type="curve"/>
      <point x="210" y="446"/>
      <point x="233" y="469"/>
      <point x="310" y="469" type="curve"/>
      <point x="388" y="469"/>
      <point x="411" y="446"/>
      <point x="411" y="314" type="curve"/>
      <point x="411" y="185"/>
      <point x="388" y="163"/>
    </contour>
    <contour>
      <point x="568" y="464" type="line"/>
      <point x="810" y="464" type="line"/>
      <point x="810" y="627" type="line"/>
      <point x="373" y="627" type="line"/>
    </contour>
    <contour>
      <point x="566" y="241" type="line"/>
      <point x="773" y="241" type="line"/>
      <point x="773" y="393" type="line"/>
      <point x="566" y="393" type="line"/>
    </contour>
    <contour>
      <point x="368" y="0" type="line"/>
      <point x="819" y="0" type="line"/>
      <point x="819" y="167" type="line"/>
      <point x="562" y="167" type="line"/>
    </contour>
  </outline>
</glyph>
<glyph name="oe" format="1">
  <advance width="792"/>
  <unicode hex="0153"/>
  <outline>
    <contour>
      <point x="257" y="-11" type="curve" smooth="yes"/>
      <point x="412" y="-11"/>
      <point x="474" y="61"/>
      <point x="474" y="247" type="curve" smooth="yes"/>
      <point x="474" y="430"/>
      <point x="411" y="504"/>
      <point x="257" y="504" type="curve" smooth="yes"/>
      <point x="91" y="504"/>
      <point x="19" y="432"/>
      <point x="19" y="247" type="curve" smooth="yes"/>
      <point x="19" y="64"/>
      <point x="92" y="-11"/>
    </contour>
    <contour>
      <point x="266" y="156" type="curve" smooth="yes"/>
      <point x="211" y="156"/>
      <point x="199" y="171"/>
      <point x="199" y="249" type="curve" smooth="yes"/>
      <point x="199" y="327"/>
      <point x="211" y="342"/>
      <point x="266" y="342" type="curve" smooth="yes"/>
      <point x="322" y="342"/>
      <point x="333" y="327"/>
      <point x="333" y="249" type="curve" smooth="yes"/>
      <point x="333" y="171"/>
      <point x="322" y="156"/>
    </contour>
    <contour>
      <point x="559" y="362" type="curve"/>
      <point x="600" y="362"/>
      <point x="610" y="352"/>
      <point x="612" y="318" type="curve"/>
      <point x="613" y="310"/>
      <point x="613" y="301"/>
      <point x="613" y="295" type="curve"/>
      <point x="505" y="295" type="line"/>
      <point x="505" y="341"/>
      <point x="514" y="362"/>
    </contour>
    <contour>
      <point x="751" y="24" type="curve"/>
      <point x="751" y="161" type="line"/>
      <point x="726" y="155"/>
      <point x="656" y="143"/>
      <point x="578" y="143" type="curve" smooth="yes"/>
      <point x="524" y="143"/>
      <point x="507" y="156"/>
      <point x="505" y="198" type="curve"/>
      <point x="767" y="198" type="line"/>
      <point x="771" y="233"/>
      <point x="772" y="255"/>
      <point x="772" y="299" type="curve"/>
      <point x="772" y="437"/>
      <point x="725" y="504"/>
      <point x="567" y="504" type="curve"/>
      <point x="429" y="504"/>
      <point x="366" y="421"/>
      <point x="366" y="246" type="curve" smooth="yes"/>
      <point x="366" y="66"/>
      <point x="421" y="-11"/>
      <point x="557" y="-11" type="curve" smooth="yes"/>
      <point x="652" y="-11"/>
      <point x="726" y="10"/>
    </contour>
  </outline>
</glyph>
<glyph name="Tbar" format="1">
  <advance width="530"/>
  <unicode hex="0166"/>
  <outline>
    <contour>
      <point x="474" y="225" type="line"/>
      <point x="474" y="347" type="line"/>
      <point x="55" y="347" type="line"/>
      <point x="55" y="225" type="line"/>
    </contour>
    <component base="T" xOffset="5"/>
  </outline>
</glyph>
<glyph name="tbar" format="1">
  <advance width="392"/>
  <unicode hex="0167"/>
  <outline>
    <contour>
      <point x="372" y="211" type="line"/>
      <point x="372" y="304" type="line"/>
      <point x="17" y="304" type="line"/>
      <point x="17" y="211" type="line"/>
    </contour>
    <component base="t" xOffset="3"/>
  </outline>
</glyph>
<glyph name="uni018F" format="1">
  <advance width="580"/>
  <unicode hex="018F"/>
  <outline>
    <contour>
      <point x="559" y="314" type="curve" smooth="yes"/>
      <point x="559" y="527"/>
      <point x="482" y="637"/>
      <point x="267" y="637" type="curve"/>
      <point x="184" y="637"/>
      <point x="115" y="625"/>
      <point x="79" y="617" type="curve"/>
      <point x="79" y="454" type="line"/>
      <point x="124" y="462"/>
      <point x="182" y="469"/>
      <point x="242" y="469" type="curve" smooth="yes"/>
      <point x="345" y="469"/>
      <point x="367" y="436"/>
      <point x="367" y="309" type="curve" smooth="yes"/>
      <point x="367" y="196"/>
      <point x="354" y="157"/>
      <point x="281" y="156" type="curve"/>
      <point x="232" y="157"/>
      <point x="205" y="179"/>
      <point x="205" y="231" type="curve"/>
      <point x="205" y="239"/>
      <point x="205" y="243"/>
      <point x="206" y="252" type="curve"/>
      <point x="428" y="252" type="line"/>
      <point x="428" y="386" type="line"/>
      <point x="29" y="386" type="line"/>
      <point x="23" y="341"/>
      <point x="20" y="308"/>
      <point x="20" y="253" type="curve"/>
      <point x="20" y="75"/>
      <point x="105" y="-11"/>
      <point x="271" y="-11" type="curve"/>
      <point x="463" y="-11"/>
      <point x="559" y="78"/>
    </contour>
  </outline>
</glyph>
<glyph name="florin" format="1">
  <advance width="448"/>
  <unicode hex="0192"/>
  <outline>
    <contour>
      <point x="434" y="627" type="line"/>
      <point x="419" y="630"/>
      <point x="372" y="637"/>
      <point x="329" y="637" type="curve"/>
      <point x="195" y="637"/>
      <point x="141" y="589"/>
      <point x="121" y="464" type="curve" smooth="yes"/>
      <point x="20" y="-152" type="line"/>
      <point x="207" y="-152" type="line"/>
      <point x="302" y="424" type="line" smooth="yes"/>
      <point x="309" y="463"/>
      <point x="323" y="474"/>
      <point x="365" y="474" type="curve"/>
      <point x="389" y="474"/>
      <point x="415" y="472"/>
      <point x="434" y="470" type="curve"/>
    </contour>
    <contour>
      <point x="22" y="282" type="line"/>
      <point x="412" y="282" type="line"/>
      <point x="412" y="382" type="line"/>
      <point x="22" y="382" type="line"/>
    </contour>
  </outline>
</glyph>
<glyph name="uni01B5" format="1">
  <advance width="509"/>
  <unicode hex="01B5"/>
  <outline>
    <contour>
      <point x="472" y="268" type="line"/>
      <point x="472" y="373" type="line"/>
      <point x="40" y="373" type="line"/>
      <point x="40" y="268" type="line"/>
    </contour>
    <component base="Z" xOffset="2"/>
  </outline>
</glyph>
<glyph name="uni01B6" format="1">
  <advance width="429"/>
  <unicode hex="01B6"/>
  <outline>
    <contour>
      <point x="392" y="213" type="line"/>
      <point x="392" y="302" type="line"/>
      <point x="38" y="302" type="line"/>
      <point x="38" y="213" type="line"/>
    </contour>
    <component base="z" xOffset="2"/>
  </outline>
</glyph>
<glyph name="uni0259" format="1">
  <advance width="496"/>
  <unicode hex="0259"/>
  <outline>
    <contour>
      <point x="238" y="133" type="curve"/>
      <point x="193" y="133"/>
      <point x="182" y="143"/>
      <point x="180" y="177" type="curve"/>
      <point x="180" y="185"/>
      <point x="180" y="194"/>
      <point x="180" y="200" type="curve"/>
      <point x="299" y="200" type="line"/>
      <point x="299" y="154"/>
      <point x="289" y="133"/>
    </contour>
    <contour>
      <point x="41" y="469" type="curve"/>
      <point x="41" y="334" type="line"/>
      <point x="67" y="340"/>
      <point x="140" y="352"/>
      <point x="220" y="352" type="curve" smooth="yes"/>
      <point x="278" y="352"/>
      <point x="297" y="339"/>
      <point x="299" y="297" type="curve"/>
      <point x="25" y="297" type="line"/>
      <point x="21" y="262"/>
      <point x="20" y="239"/>
      <point x="20" y="195" type="curve"/>
      <point x="20" y="57"/>
      <point x="70" y="-11"/>
      <point x="240" y="-11" type="curve"/>
      <point x="404" y="-11"/>
      <point x="477" y="72"/>
      <point x="477" y="247" type="curve" smooth="yes"/>
      <point x="477" y="427"/>
      <point x="409" y="504"/>
      <point x="245" y="504" type="curve" smooth="yes"/>
      <point x="143" y="504"/>
      <point x="68" y="483"/>
    </contour>
  </outline>
</glyph>
<glyph name="circumflex" format="1">
  <advance width="469"/>
  <unicode hex="02C6"/>
  <outline>
    <contour>
      <point x="289" y="542" type="line"/>
      <point x="419" y="542" type="line"/>
      <point x="312" y="678" type="line"/>
      <point x="157" y="678" type="line"/>
      <point x="50" y="542" type="line"/>
      <point x="180" y="542" type="line"/>
      <point x="234" y="597" type="line"/>
    </contour>
    <contour>
      <point x="234" y="530" type="move" name="_top"/>
    </contour>
  </outline>
</glyph>
<glyph name="caron" format="1">
  <advance width="469"/>
  <unicode hex="02C7"/>
  <outline>
    <component base="circumflex" xScale="-1.0" yScale="-1.0" xOffset="469" yOffset="1220"/>
    <contour>
      <point x="235" y="530" type="move" name="_top"/>
    </contour>
  </outline>
</glyph>
<glyph name="breve" format="1">
  <advance width="387"/>
  <unicode hex="02D8"/>
  <outline>
    <contour>
      <point x="337" y="678" type="curve"/>
      <point x="236" y="678" type="line"/>
      <point x="236" y="645"/>
      <point x="221" y="631"/>
      <point x="194" y="631" type="curve" smooth="yes"/>
      <point x="167" y="631"/>
      <point x="151" y="645"/>
      <point x="151" y="678" type="curve"/>
      <point x="50" y="678" type="line"/>
      <point x="50" y="588"/>
      <point x="108" y="535"/>
      <point x="194" y="535" type="curve" smooth="yes"/>
      <point x="280" y="535"/>
      <point x="337" y="588"/>
    </contour>
    <contour>
      <point x="194" y="530" type="move" name="_top"/>
    </contour>
  </outline>
</glyph>
<glyph name="ring" format="1">
  <advance width="341"/>
  <unicode hex="02DA"/>
  <outline>
    <contour>
      <point x="169" y="612" type="curve" smooth="yes"/>
      <point x="146" y="612"/>
      <point x="131" y="624"/>
      <point x="131" y="643" type="curve" smooth="yes"/>
      <point x="131" y="662"/>
      <point x="146" y="674"/>
      <point x="169" y="674" type="curve" smooth="yes"/>
      <point x="194" y="674"/>
      <point x="209" y="662"/>
      <point x="209" y="643" type="curve" smooth="yes"/>
      <point x="209" y="624"/>
      <point x="194" y="612"/>
    </contour>
    <contour>
      <point x="169" y="534" type="curve" smooth="yes"/>
      <point x="243" y="534"/>
      <point x="291" y="575"/>
      <point x="291" y="643" type="curve" smooth="yes"/>
      <point x="291" y="710"/>
      <point x="244" y="749"/>
      <point x="169" y="749" type="curve" smooth="yes"/>
      <point x="95" y="749"/>
      <point x="48" y="710"/>
      <point x="48" y="643" type="curve" smooth="yes"/>
      <point x="48" y="575"/>
      <point x="96" y="534"/>
    </contour>
    <contour>
      <point x="169" y="530" type="move" name="_top"/>
    </contour>
  </outline>
</glyph>
<glyph name="ogonek" format="1">
  <advance width="335"/>
  <unicode hex="02DB"/>
  <outline>
    <contour>
      <point x="285" y="9" type="curve"/>
      <point x="217" y="35" type="line"/>
      <point x="181" y="29"/>
      <point x="46" y="15"/>
      <point x="46" y="-95" type="curve"/>
      <point x="46" y="-161"/>
      <point x="87" y="-195"/>
      <point x="166" y="-195" type="curve"/>
      <point x="209" y="-195"/>
      <point x="243" y="-186"/>
      <point x="249" y="-184" type="curve"/>
      <point x="249" y="-88" type="line"/>
      <point x="239" y="-90"/>
      <point x="223" y="-91"/>
      <point x="210" y="-91" type="curve"/>
      <point x="177" y="-91"/>
      <point x="161" y="-83"/>
      <point x="161" y="-59" type="curve"/>
      <point x="161" y="-17"/>
      <point x="233" y="0"/>
    </contour>
    <contour>
      <point x="285" y="9" type="move" name="_ogonek"/>
    </contour>
  </outline>
</glyph>
<glyph name="tilde" format="1">
  <advance width="407"/>
  <unicode hex="02DC"/>
  <outline>
    <contour>
      <point x="357" y="679" type="curve"/>
      <point x="265" y="679" type="line"/>
      <point x="265" y="664"/>
      <point x="263" y="642"/>
      <point x="247" y="642" type="curve"/>
      <point x="223" y="642"/>
      <point x="181" y="683"/>
      <point x="134" y="683" type="curve"/>
      <point x="67" y="683"/>
      <point x="50" y="608"/>
      <point x="50" y="542" type="curve"/>
      <point x="143" y="542" type="line"/>
      <point x="143" y="558"/>
      <point x="144" y="582"/>
      <point x="160" y="582" type="curve"/>
      <point x="182" y="582"/>
      <point x="226" y="538"/>
      <point x="273" y="538" type="curve"/>
      <point x="340" y="538"/>
      <point x="357" y="613"/>
    </contour>
    <contour>
      <point x="204" y="530" type="move" name="_top"/>
    </contour>
  </outline>
</glyph>
<glyph name="hungarumlaut" format="1">
  <advance width="564"/>
  <unicode hex="02DD"/>
  <outline>
    <contour>
      <point x="316" y="678" type="line"/>
      <point x="154" y="678" type="line"/>
      <point x="47" y="542" type="line"/>
      <point x="175" y="542" type="line"/>
    </contour>
    <contour>
      <point x="513" y="678" type="line"/>
      <point x="350" y="678" type="line"/>
      <point x="244" y="542" type="line"/>
      <point x="371" y="542" type="line"/>
    </contour>
    <contour>
      <point x="250" y="530" type="move" name="_top"/>
    </contour>
  </outline>
</glyph>
<glyph name="uni0312" format="1">
  <advance width="244"/>
  <unicode hex="0312"/>
  <outline>
    <contour>
      <point x="70" y="662" type="curve" smooth="yes"/>
      <point x="50" y="546" type="line"/>
      <point x="195" y="546" type="line"/>
      <point x="195" y="720" type="line"/>
      <point x="142" y="720" type="line" smooth="yes"/>
      <point x="104" y="720"/>
      <point x="76" y="698"/>
    </contour>
    <contour>
      <point x="122" y="530" type="move" name="_top"/>
    </contour>
  </outline>
</glyph>
<glyph name="uni0326" format="1">
  <advance width="244"/>
  <unicode hex="0326"/>
  <outline>
    <contour>
      <point x="175" y="-159" type="curve" smooth="yes"/>
      <point x="195" y="-43" type="line"/>
      <point x="50" y="-43" type="line"/>
      <point x="50" y="-217" type="line"/>
      <point x="103" y="-217" type="line" smooth="yes"/>
      <point x="141" y="-217"/>
      <point x="169" y="-194"/>
    </contour>
    <contour>
      <point x="124" y="0" type="move" name="_bottom"/>
    </contour>
  </outline>
</glyph>
<glyph name="uni0394" format="1">
  <advance width="616"/>
  <unicode hex="0394"/>
  <outline>
    <contour>
      <point x="489" y="0" type="line"/>
      <point x="599" y="0" type="line"/>
      <point x="599" y="174" type="line"/>
      <point x="404" y="627" type="line"/>
      <point x="226" y="627" type="line"/>
    </contour>
    <contour>
      <point x="127" y="0" type="line"/>
      <point x="390" y="627" type="line"/>
      <point x="212" y="627" type="line"/>
      <point x="17" y="174" type="line"/>
      <point x="17" y="0" type="line"/>
    </contour>
    <contour>
      <point x="108" y="174" type="line"/>
      <point x="108" y="0" type="line"/>
      <point x="502" y="0" type="line"/>
      <point x="502" y="174" type="line"/>
    </contour>
  </outline>
</glyph>
<glyph name="uni03A9" format="1">
  <advance width="669"/>
  <unicode hex="03A9"/>
  <outline>
    <contour>
      <point x="310" y="0" type="line"/>
      <point x="310" y="241" type="line"/>
      <point x="159" y="241" type="line"/>
      <point x="159" y="0" type="line"/>
    </contour>
    <contour>
      <point x="46" y="157" type="line"/>
      <point x="46" y="0" type="line"/>
      <point x="310" y="0" type="line"/>
      <point x="310" y="157" type="line"/>
    </contour>
    <contour>
      <point x="310" y="144" type="curve"/>
      <point x="310" y="263" type="line"/>
      <point x="266" y="268"/>
      <point x="214" y="300"/>
      <point x="214" y="370" type="curve"/>
      <point x="214" y="440"/>
      <point x="254" y="476"/>
      <point x="335" y="476" type="curve" smooth="yes"/>
      <point x="415" y="476"/>
      <point x="456" y="440"/>
      <point x="456" y="370" type="curve"/>
      <point x="456" y="299"/>
      <point x="405" y="271"/>
      <point x="360" y="263" type="curve"/>
      <point x="360" y="144" type="line"/>
      <point x="541" y="138"/>
      <point x="651" y="239"/>
      <point x="651" y="385" type="curve"/>
      <point x="651" y="538"/>
      <point x="546" y="647"/>
      <point x="335" y="647" type="curve" smooth="yes"/>
      <point x="123" y="647"/>
      <point x="18" y="538"/>
      <point x="18" y="384" type="curve"/>
      <point x="18" y="239"/>
      <point x="126" y="137"/>
    </contour>
    <contour>
      <point x="360" y="0" type="line"/>
      <point x="511" y="0" type="line"/>
      <point x="511" y="241" type="line"/>
      <point x="360" y="241" type="line"/>
    </contour>
    <contour>
      <point x="625" y="157" type="line"/>
      <point x="360" y="157" type="line"/>
      <point x="360" y="0" type="line"/>
      <point x="625" y="0" type="line"/>
    </contour>
  </outline>
</glyph>
<glyph name="uni03BC" format="1">
  <advance width="536"/>
  <unicode hex="03BC"/>
  <outline>
    <contour>
      <point x="233" y="-7" type="curve" smooth="yes"/>
      <point x="273" y="-7"/>
      <point x="311" y="9"/>
      <point x="337" y="35" type="curve"/>
      <point x="341" y="0" type="line"/>
      <point x="503" y="0" type="line"/>
      <point x="503" y="494" type="line"/>
      <point x="323" y="494" type="line"/>
      <point x="323" y="164" type="line"/>
      <point x="306" y="159"/>
      <point x="283" y="153"/>
      <point x="256" y="153" type="curve" smooth="yes"/>
      <point x="224" y="153"/>
      <point x="214" y="166"/>
      <point x="214" y="189" type="curve" smooth="yes"/>
      <point x="214" y="494" type="line"/>
      <point x="34" y="494" type="line"/>
      <point x="34" y="60" type="line" smooth="yes"/>
      <point x="34" y="-14"/>
      <point x="34" y="-86"/>
      <point x="60" y="-152" type="curve"/>
      <point x="235" y="-152" type="line"/>
      <point x="211" y="-108"/>
      <point x="203" y="-56"/>
      <point x="203" y="-4" type="curve"/>
      <point x="208" y="-6"/>
      <point x="217" y="-7"/>
    </contour>
  </outline>
</glyph>
<glyph name="pi" format="1">
  <advance width="580"/>
  <unicode hex="03C0"/>
  <outline>
    <contour>
      <point x="22" y="494" type="line"/>
      <point x="22" y="326" type="line"/>
      <point x="559" y="326" type="line"/>
      <point x="559" y="494" type="line"/>
    </contour>
    <contour>
      <point x="487" y="205" type="curve" smooth="yes"/>
      <point x="487" y="380" type="line"/>
      <point x="316" y="380" type="line"/>
      <point x="316" y="140" type="line" smooth="yes"/>
      <point x="316" y="52"/>
      <point x="368" y="0"/>
      <point x="456" y="0" type="curve" smooth="yes"/>
      <point x="537" y="0" type="line"/>
      <point x="537" y="170" type="line"/>
      <point x="521" y="170" type="line" smooth="yes"/>
      <point x="496" y="170"/>
      <point x="487" y="181"/>
    </contour>
    <contour>
      <point x="209" y="0" type="line"/>
      <point x="234" y="78"/>
      <point x="270" y="195"/>
      <point x="263" y="380" type="curve"/>
      <point x="92" y="380" type="line"/>
      <point x="104" y="215"/>
      <point x="53" y="82"/>
      <point x="20" y="0" type="curve"/>
    </contour>
  </outline>
</glyph>
<glyph name="uni1E9E" format="1">
  <advance width="656"/>
  <unicode hex="1E9E"/>
  <outline>
    <contour>
      <point x="303" y="637" type="curve"/>
      <point x="126" y="637"/>
      <point x="35" y="575"/>
      <point x="35" y="425" type="curve" smooth="yes"/>
      <point x="35" y="0" type="line"/>
      <point x="221" y="0" type="line"/>
      <point x="221" y="418" type="line" smooth="yes"/>
      <point x="221" y="461"/>
      <point x="247" y="475"/>
      <point x="291" y="475" type="curve"/>
      <point x="313" y="475"/>
      <point x="348" y="473"/>
      <point x="359" y="470" type="curve"/>
      <point x="320" y="258" type="line"/>
      <point x="437" y="231" type="line" smooth="yes"/>
      <point x="458" y="226"/>
      <point x="462" y="221"/>
      <point x="462" y="199" type="curve" smooth="yes"/>
      <point x="462" y="170"/>
      <point x="453" y="154"/>
      <point x="417" y="154" type="curve" smooth="yes"/>
      <point x="377" y="154"/>
      <point x="336" y="157"/>
      <point x="305" y="162" type="curve"/>
      <point x="305" y="3" type="line"/>
      <point x="343" y="-4"/>
      <point x="398" y="-10"/>
      <point x="461" y="-10" type="curve" smooth="yes"/>
      <point x="566" y="-10"/>
      <point x="641" y="43"/>
      <point x="641" y="205" type="curve" smooth="yes"/>
      <point x="641" y="308"/>
      <point x="616" y="342"/>
      <point x="551" y="358" type="curve" smooth="yes"/>
      <point x="508" y="369" type="line"/>
      <point x="553" y="600" type="line"/>
      <point x="487" y="621"/>
      <point x="401" y="637"/>
    </contour>
  </outline>
</glyph>
<glyph name="endash" format="1">
  <advance width="461"/>
  <unicode hex="2013"/>
  <outline>
    <contour>
      <point x="435" y="251" type="line"/>
      <point x="435" y="386" type="line"/>
      <point x="26" y="386" type="line"/>
      <point x="26" y="251" type="line"/>
    </contour>
  </outline>
</glyph>
<glyph name="emdash" format="1">
  <advance width="741"/>
  <unicode hex="2014"/>
  <outline>
    <contour>
      <point x="715" y="251" type="line"/>
      <point x="715" y="386" type="line"/>
      <point x="26" y="386" type="line"/>
      <point x="26" y="251" type="line"/>
    </contour>
  </outline>
</glyph>
<glyph name="quoteright" format="1">
  <advance width="191"/>
  <unicode hex="2019"/>
  <outline>
    <contour>
      <point x="152" y="439" type="curve" smooth="yes"/>
      <point x="184" y="627" type="line"/>
      <point x="26" y="627" type="line"/>
      <point x="26" y="381" type="line"/>
      <point x="80" y="381" type="line" smooth="yes"/>
      <point x="118" y="381"/>
      <point x="146" y="403"/>
    </contour>
  </outline>
</glyph>
<glyph name="dagger" format="1">
  <advance width="334"/>
  <unicode hex="2020"/>
  <outline>
    <contour>
      <point x="147" y="520" type="line"/>
      <point x="147" y="436" type="line"/>
      <point x="319" y="426" type="line"/>
      <point x="319" y="532" type="line"/>
    </contour>
    <contour>
      <point x="228" y="221" type="line"/>
      <point x="214" y="478" type="line"/>
      <point x="121" y="478" type="line"/>
      <point x="106" y="221" type="line"/>
    </contour>
    <contour>
      <point x="187" y="437" type="line"/>
      <point x="187" y="521" type="line"/>
      <point x="14" y="532" type="line"/>
      <point x="14" y="426" type="line"/>
    </contour>
    <contour>
      <point x="121" y="463" type="line"/>
      <point x="214" y="463" type="line"/>
      <point x="224" y="627" type="line"/>
      <point x="110" y="627" type="line"/>
    </contour>
  </outline>
</glyph>
<glyph name="daggerdbl" format="1">
  <advance width="353"/>
  <unicode hex="2021"/>
  <outline>
    <contour>
      <point x="156" y="520" type="line"/>
      <point x="156" y="436" type="line"/>
      <point x="329" y="426" type="line"/>
      <point x="329" y="532" type="line"/>
    </contour>
    <contour>
      <point x="224" y="236" type="line"/>
      <point x="224" y="478" type="line"/>
      <point x="131" y="478" type="line"/>
      <point x="131" y="236" type="line"/>
    </contour>
    <contour>
      <point x="197" y="437" type="line"/>
      <point x="197" y="521" type="line"/>
      <point x="24" y="532" type="line"/>
      <point x="24" y="426" type="line"/>
    </contour>
    <contour>
      <point x="131" y="463" type="line"/>
      <point x="224" y="463" type="line"/>
      <point x="234" y="627" type="line"/>
      <point x="119" y="627" type="line"/>
    </contour>
    <contour>
      <point x="197" y="225" type="line"/>
      <point x="197" y="309" type="line"/>
      <point x="24" y="319" type="line"/>
      <point x="24" y="213" type="line"/>
    </contour>
    <contour>
      <point x="156" y="308" type="line"/>
      <point x="156" y="224" type="line"/>
      <point x="329" y="213" type="line"/>
      <point x="329" y="319" type="line"/>
    </contour>
    <contour>
      <point x="222" y="282" type="line"/>
      <point x="130" y="282" type="line"/>
      <point x="119" y="118" type="line"/>
      <point x="234" y="118" type="line"/>
    </contour>
  </outline>
</glyph>
<glyph name="ellipsis" format="1">
  <advance width="687"/>
  <unicode hex="2026"/>
  <outline>
    <contour>
      <point x="270" y="0" type="line"/>
      <point x="418" y="0" type="line"/>
      <point x="418" y="162" type="line"/>
      <point x="270" y="162" type="line"/>
    </contour>
    <contour>
      <point x="24" y="0" type="line"/>
      <point x="172" y="0" type="line"/>
      <point x="172" y="162" type="line"/>
      <point x="24" y="162" type="line"/>
    </contour>
    <contour>
      <point x="515" y="0" type="line"/>
      <point x="663" y="0" type="line"/>
      <point x="663" y="162" type="line"/>
      <point x="515" y="162" type="line"/>
    </contour>
  </outline>
</glyph>
<glyph name="perthousand" format="1">
  <advance width="992"/>
  <unicode hex="2030"/>
  <outline>
    <contour>
      <point x="155" y="541" type="curve"/>
      <point x="176" y="541"/>
      <point x="183" y="527"/>
      <point x="183" y="477" type="curve"/>
      <point x="183" y="433"/>
      <point x="176" y="419"/>
      <point x="155" y="419" type="curve"/>
      <point x="133" y="419"/>
      <point x="126" y="433"/>
      <point x="126" y="477" type="curve"/>
      <point x="126" y="527"/>
      <point x="133" y="541"/>
    </contour>
    <contour>
      <point x="155" y="320" type="curve"/>
      <point x="255" y="320"/>
      <point x="294" y="366"/>
      <point x="294" y="477" type="curve"/>
      <point x="294" y="589"/>
      <point x="255" y="635"/>
      <point x="155" y="635" type="curve"/>
      <point x="55" y="635"/>
      <point x="13" y="589"/>
      <point x="13" y="477" type="curve"/>
      <point x="13" y="366"/>
      <point x="55" y="320"/>
    </contour>
    <contour>
      <point x="532" y="214" type="curve"/>
      <point x="553" y="214"/>
      <point x="561" y="200"/>
      <point x="561" y="151" type="curve"/>
      <point x="561" y="106"/>
      <point x="553" y="92"/>
      <point x="532" y="92" type="curve"/>
      <point x="511" y="92"/>
      <point x="503" y="106"/>
      <point x="503" y="151" type="curve"/>
      <point x="503" y="200"/>
      <point x="511" y="214"/>
    </contour>
    <contour>
      <point x="532" y="-7" type="curve"/>
      <point x="632" y="-7"/>
      <point x="672" y="39"/>
      <point x="672" y="151" type="curve"/>
      <point x="672" y="262"/>
      <point x="632" y="308"/>
      <point x="532" y="308" type="curve"/>
      <point x="432" y="308"/>
      <point x="391" y="262"/>
      <point x="391" y="151" type="curve"/>
      <point x="391" y="39"/>
      <point x="432" y="-7"/>
    </contour>
    <contour>
      <point x="839" y="214" type="curve"/>
      <point x="860" y="214"/>
      <point x="868" y="200"/>
      <point x="868" y="151" type="curve"/>
      <point x="868" y="106"/>
      <point x="860" y="92"/>
      <point x="839" y="92" type="curve"/>
      <point x="818" y="92"/>
      <point x="810" y="106"/>
      <point x="810" y="151" type="curve"/>
      <point x="810" y="200"/>
      <point x="818" y="214"/>
    </contour>
    <contour>
      <point x="839" y="-7" type="curve"/>
      <point x="939" y="-7"/>
      <point x="979" y="39"/>
      <point x="979" y="151" type="curve"/>
      <point x="979" y="262"/>
      <point x="939" y="308"/>
      <point x="839" y="308" type="curve"/>
      <point x="739" y="308"/>
      <point x="698" y="262"/>
      <point x="698" y="151" type="curve"/>
      <point x="698" y="39"/>
      <point x="739" y="-7"/>
    </contour>
    <component base="fraction" xOffset="242"/>
  </outline>
</glyph>
<glyph name="guilsinglleft" format="1">
  <advance width="332"/>
  <unicode hex="2039"/>
  <outline>
    <contour>
      <point x="320" y="494" type="line"/>
      <point x="148" y="494" type="line"/>
      <point x="11" y="281" type="line"/>
      <point x="153" y="232" type="line"/>
    </contour>
    <contour>
      <point x="148" y="64" type="line"/>
      <point x="320" y="64" type="line"/>
      <point x="154" y="333" type="line"/>
      <point x="11" y="281" type="line"/>
    </contour>
  </outline>
</glyph>
<glyph name="fraction" format="1">
  <advance width="200"/>
  <unicode hex="2044"/>
  <outline>
    <contour>
      <point x="9" y="0" type="line"/>
      <point x="309" y="627" type="line"/>
      <point x="191" y="627" type="line"/>
      <point x="-109" y="0" type="line"/>
    </contour>
  </outline>
</glyph>
<glyph name="uni2070" format="1">
  <advance width="349"/>
  <unicode hex="2070"/>
  <outline>
    <contour>
      <point x="175" y="528" type="curve"/>
      <point x="207" y="528"/>
      <point x="213" y="519"/>
      <point x="213" y="449" type="curve"/>
      <point x="213" y="380"/>
      <point x="208" y="371"/>
      <point x="175" y="371" type="curve"/>
      <point x="142" y="371"/>
      <point x="136" y="381"/>
      <point x="136" y="449" type="curve"/>
      <point x="136" y="520"/>
      <point x="142" y="528"/>
    </contour>
    <contour>
      <point x="175" y="264" type="curve"/>
      <point x="283" y="264"/>
      <point x="332" y="300"/>
      <point x="332" y="449" type="curve"/>
      <point x="332" y="594"/>
      <point x="297" y="633"/>
      <point x="175" y="633" type="curve"/>
      <point x="68" y="633"/>
      <point x="17" y="596"/>
      <point x="17" y="449" type="curve"/>
      <point x="17" y="302"/>
      <point x="52" y="264"/>
    </contour>
  </outline>
</glyph>
<glyph name="uni2075" format="1">
  <advance width="280"/>
  <unicode hex="2075"/>
  <outline>
    <contour>
      <point x="139" y="264" type="curve"/>
      <point x="212" y="264"/>
      <point x="267" y="300"/>
      <point x="267" y="381" type="curve" smooth="yes"/>
      <point x="267" y="474"/>
      <point x="224" y="492"/>
      <point x="177" y="492" type="curve" smooth="yes"/>
      <point x="168" y="492"/>
      <point x="157" y="492"/>
      <point x="146" y="491" type="curve"/>
      <point x="146" y="526" type="line"/>
      <point x="243" y="526" type="line"/>
      <point x="243" y="627" type="line"/>
      <point x="31" y="627" type="line"/>
      <point x="31" y="401" type="line"/>
      <point x="54" y="404"/>
      <point x="81" y="405"/>
      <point x="109" y="405" type="curve" smooth="yes"/>
      <point x="145" y="405"/>
      <point x="151" y="400"/>
      <point x="151" y="384" type="curve" smooth="yes"/>
      <point x="151" y="373"/>
      <point x="142" y="367"/>
      <point x="111" y="367" type="curve"/>
      <point x="76" y="367"/>
      <point x="50" y="368"/>
      <point x="17" y="373" type="curve"/>
      <point x="17" y="276" type="line"/>
      <point x="40" y="268"/>
      <point x="87" y="264"/>
    </contour>
  </outline>
</glyph>
<glyph name="uni2076" format="1">
  <advance width="310"/>
  <unicode hex="2076"/>
  <outline>
    <contour>
      <point x="16" y="439" type="curve"/>
      <point x="16" y="306"/>
      <point x="53" y="264"/>
      <point x="166" y="264" type="curve"/>
      <point x="251" y="264"/>
      <point x="300" y="312"/>
      <point x="300" y="393" type="curve"/>
      <point x="300" y="472"/>
      <point x="268" y="509"/>
      <point x="202" y="509" type="curve"/>
      <point x="157" y="509"/>
      <point x="132" y="492"/>
      <point x="121" y="488" type="curve"/>
      <point x="121" y="414" type="line"/>
      <point x="127" y="416"/>
      <point x="147" y="420"/>
      <point x="162" y="420" type="curve"/>
      <point x="184" y="420"/>
      <point x="193" y="416"/>
      <point x="193" y="389" type="curve"/>
      <point x="193" y="368"/>
      <point x="183" y="359"/>
      <point x="163" y="359" type="curve"/>
      <point x="131" y="359"/>
      <point x="129" y="370"/>
      <point x="129" y="429" type="curve"/>
      <point x="129" y="522"/>
      <point x="142" y="538"/>
      <point x="203" y="538" type="curve"/>
      <point x="230" y="538"/>
      <point x="255" y="536"/>
      <point x="267" y="534" type="curve"/>
      <point x="267" y="627" type="line"/>
      <point x="255" y="631"/>
      <point x="225" y="633"/>
      <point x="200" y="633" type="curve"/>
      <point x="77" y="633"/>
      <point x="16" y="573"/>
    </contour>
  </outline>
</glyph>
<glyph name="uni2077" format="1">
  <advance width="280"/>
  <unicode hex="2077"/>
  <outline>
    <contour>
      <point x="268" y="523" type="line"/>
      <point x="268" y="627" type="line"/>
      <point x="17" y="627" type="line"/>
      <point x="17" y="523" type="line"/>
      <point x="141" y="523" type="line"/>
      <point x="6" y="270" type="line"/>
      <point x="139" y="270" type="line"/>
    </contour>
  </outline>
</glyph>
<glyph name="uni2078" format="1">
  <advance width="315"/>
  <unicode hex="2078"/>
  <outline>
    <contour>
      <point x="157" y="264" type="curve"/>
      <point x="257" y="264"/>
      <point x="300" y="295"/>
      <point x="300" y="367" type="curve"/>
      <point x="300" y="408"/>
      <point x="281" y="442"/>
      <point x="241" y="455" type="curve"/>
      <point x="281" y="471"/>
      <point x="293" y="501"/>
      <point x="293" y="536" type="curve"/>
      <point x="293" y="608"/>
      <point x="257" y="633"/>
      <point x="157" y="633" type="curve"/>
      <point x="63" y="633"/>
      <point x="22" y="605"/>
      <point x="22" y="537" type="curve"/>
      <point x="21" y="501"/>
      <point x="33" y="472"/>
      <point x="73" y="455" type="curve"/>
      <point x="34" y="442"/>
      <point x="15" y="409"/>
      <point x="15" y="370" type="curve"/>
      <point x="15" y="292"/>
      <point x="53" y="264"/>
    </contour>
    <contour>
      <point x="157" y="541" type="curve"/>
      <point x="181" y="541"/>
      <point x="191" y="536"/>
      <point x="191" y="518" type="curve"/>
      <point x="191" y="499"/>
      <point x="180" y="494"/>
      <point x="157" y="494" type="curve"/>
      <point x="134" y="494"/>
      <point x="125" y="499"/>
      <point x="125" y="519" type="curve"/>
      <point x="125" y="536"/>
      <point x="133" y="541"/>
    </contour>
    <contour>
      <point x="157" y="407" type="curve"/>
      <point x="182" y="407"/>
      <point x="192" y="401"/>
      <point x="192" y="384" type="curve"/>
      <point x="192" y="365"/>
      <point x="182" y="359"/>
      <point x="157" y="359" type="curve"/>
      <point x="132" y="359"/>
      <point x="123" y="365"/>
      <point x="123" y="385" type="curve"/>
      <point x="123" y="401"/>
      <point x="132" y="407"/>
    </contour>
  </outline>
</glyph>
<glyph name="uni2079" format="1">
  <advance width="312"/>
  <unicode hex="2079"/>
  <outline>
    <contour>
      <point x="296" y="457" type="curve"/>
      <point x="296" y="590"/>
      <point x="259" y="633"/>
      <point x="148" y="633" type="curve"/>
      <point x="60" y="633"/>
      <point x="11" y="584"/>
      <point x="11" y="503" type="curve"/>
      <point x="11" y="425"/>
      <point x="44" y="388"/>
      <point x="111" y="388" type="curve"/>
      <point x="153" y="388"/>
      <point x="179" y="404"/>
      <point x="191" y="408" type="curve"/>
      <point x="191" y="484" type="line"/>
      <point x="184" y="482"/>
      <point x="173" y="476"/>
      <point x="150" y="476" type="curve"/>
      <point x="127" y="476"/>
      <point x="119" y="479"/>
      <point x="119" y="507" type="curve"/>
      <point x="119" y="528"/>
      <point x="128" y="537"/>
      <point x="149" y="537" type="curve"/>
      <point x="181" y="537"/>
      <point x="183" y="526"/>
      <point x="183" y="468" type="curve"/>
      <point x="183" y="376"/>
      <point x="170" y="360"/>
      <point x="108" y="360" type="curve"/>
      <point x="78" y="360"/>
      <point x="57" y="362"/>
      <point x="42" y="364" type="curve"/>
      <point x="42" y="269" type="line"/>
      <point x="54" y="266"/>
      <point x="88" y="264"/>
      <point x="111" y="264" type="curve"/>
      <point x="235" y="264"/>
      <point x="296" y="324"/>
    </contour>
  </outline>
</glyph>
<glyph name="Euro" format="1">
  <advance width="524"/>
  <unicode hex="20AC"/>
  <outline>
    <contour>
      <point x="14" y="420" type="line"/>
      <point x="14" y="335" type="line"/>
      <point x="442" y="335" type="line"/>
      <point x="442" y="420" type="line"/>
    </contour>
    <contour>
      <point x="14" y="303" type="line"/>
      <point x="14" y="218" type="line"/>
      <point x="442" y="218" type="line"/>
      <point x="442" y="303" type="line"/>
    </contour>
    <contour>
      <point x="502" y="184" type="line"/>
      <point x="462" y="171"/>
      <point x="413" y="159"/>
      <point x="365" y="159" type="curve"/>
      <point x="293" y="159"/>
      <point x="278" y="172"/>
      <point x="278" y="314" type="curve" smooth="yes"/>
      <point x="278" y="462"/>
      <point x="292" y="474"/>
      <point x="375" y="474" type="curve"/>
      <point x="415" y="474"/>
      <point x="457" y="471"/>
      <point x="488" y="469" type="curve"/>
      <point x="488" y="628" type="line"/>
      <point x="454" y="633"/>
      <point x="415" y="637"/>
      <point x="370" y="637" type="curve"/>
      <point x="174" y="637"/>
      <point x="86" y="551"/>
      <point x="86" y="314" type="curve" smooth="yes"/>
      <point x="86" y="62"/>
      <point x="157" y="-11"/>
      <point x="331" y="-11" type="curve"/>
      <point x="417" y="-11"/>
      <point x="468" y="7"/>
      <point x="502" y="26" type="curve"/>
    </contour>
  </outline>
</glyph>
<glyph name="uni20BA" format="1">
  <advance width="565"/>
  <unicode hex="20BA"/>
  <outline>
    <contour>
      <point x="370" y="274" type="line"/>
      <point x="370" y="198"/>
      <point x="358" y="174"/>
      <point x="300" y="174" type="curve" smooth="yes"/>
      <point x="283" y="174" type="line"/>
      <point x="283" y="627" type="line"/>
      <point x="97" y="627" type="line"/>
      <point x="97" y="0" type="line"/>
      <point x="301" y="0" type="line" smooth="yes"/>
      <point x="472" y="0"/>
      <point x="552" y="85"/>
      <point x="552" y="274" type="curve"/>
    </contour>
    <contour>
      <point x="27" y="418" type="line"/>
      <point x="27" y="330" type="line"/>
      <point x="416" y="450" type="line"/>
      <point x="416" y="539" type="line"/>
    </contour>
    <contour>
      <point x="27" y="298" type="line"/>
      <point x="27" y="209" type="line"/>
      <point x="416" y="329" type="line"/>
      <point x="416" y="418" type="line"/>
    </contour>
    <contour>
      <point x="301" y="645" type="move" name="top"/>
    </contour>
  </outline>
</glyph>
<glyph name="uni2120" format="1">
  <advance width="746"/>
  <unicode hex="2120"/>
  <outline>
    <contour>
      <point x="105" y="414" type="curve" smooth="yes"/>
      <point x="163" y="403" type="line" smooth="yes"/>
      <point x="174" y="401"/>
      <point x="181" y="399"/>
      <point x="181" y="389" type="curve"/>
      <point x="181" y="375"/>
      <point x="174" y="369"/>
      <point x="148" y="369" type="curve"/>
      <point x="96" y="369"/>
      <point x="52" y="377"/>
      <point x="26" y="384" type="curve"/>
      <point x="26" y="281" type="line"/>
      <point x="47" y="273"/>
      <point x="93" y="267"/>
      <point x="149" y="267" type="curve"/>
      <point x="275" y="267"/>
      <point x="294" y="332"/>
      <point x="294" y="389" type="curve"/>
      <point x="294" y="475"/>
      <point x="258" y="484"/>
      <point x="207" y="494" type="curve" smooth="yes"/>
      <point x="147" y="505" type="line" smooth="yes"/>
      <point x="138" y="507"/>
      <point x="133" y="510"/>
      <point x="133" y="519" type="curve"/>
      <point x="133" y="530"/>
      <point x="137" y="538"/>
      <point x="165" y="538" type="curve" smooth="yes"/>
      <point x="214" y="538"/>
      <point x="243" y="532"/>
      <point x="265" y="528" type="curve"/>
      <point x="265" y="626" type="line"/>
      <point x="246" y="631"/>
      <point x="219" y="636"/>
      <point x="167" y="636" type="curve" smooth="yes"/>
      <point x="71" y="636"/>
      <point x="25" y="595"/>
      <point x="25" y="510" type="curve"/>
      <point x="25" y="432"/>
      <point x="67" y="422"/>
    </contour>
    <contour>
      <point x="713" y="276" type="line"/>
      <point x="713" y="627" type="line"/>
      <point x="579" y="627" type="line"/>
      <point x="521" y="483" type="line"/>
      <point x="465" y="627" type="line"/>
      <point x="324" y="627" type="line"/>
      <point x="324" y="276" type="line"/>
      <point x="432" y="276" type="line"/>
      <point x="432" y="444" type="line"/>
      <point x="475" y="342" type="line"/>
      <point x="563" y="342" type="line"/>
      <point x="606" y="444" type="line"/>
      <point x="606" y="276" type="line"/>
    </contour>
  </outline>
</glyph>
<glyph name="trademark" format="1">
  <advance width="766"/>
  <unicode hex="2122"/>
  <outline>
    <contour>
      <point x="311" y="522" type="line"/>
      <point x="311" y="627" type="line"/>
      <point x="14" y="627" type="line"/>
      <point x="14" y="522" type="line"/>
      <point x="105" y="522" type="line"/>
      <point x="105" y="276" type="line"/>
      <point x="220" y="276" type="line"/>
      <point x="220" y="522" type="line"/>
    </contour>
    <contour>
      <point x="732" y="276" type="line"/>
      <point x="732" y="627" type="line"/>
      <point x="597" y="627" type="line"/>
      <point x="540" y="483" type="line"/>
      <point x="483" y="627" type="line"/>
      <point x="343" y="627" type="line"/>
      <point x="343" y="276" type="line"/>
      <point x="451" y="276" type="line"/>
      <point x="451" y="444" type="line"/>
      <point x="493" y="342" type="line"/>
      <point x="582" y="342" type="line"/>
      <point x="624" y="444" type="line"/>
      <point x="624" y="276" type="line"/>
    </contour>
  </outline>
</glyph>
<glyph name="arrowup" format="1">
  <advance width="656"/>
  <unicode hex="2191"/>
  <outline>
    <contour>
      <point x="641" y="274" type="line"/>
      <point x="641" y="474" type="line"/>
      <point x="326" y="646" type="line"/>
      <point x="14" y="474" type="line"/>
      <point x="14" y="274" type="line"/>
      <point x="171" y="357" type="line" smooth="yes"/>
      <point x="191" y="368"/>
      <point x="221" y="383"/>
      <point x="236" y="394" type="curve"/>
      <point x="239" y="393" type="line"/>
      <point x="237" y="367"/>
      <point x="237" y="350"/>
      <point x="237" y="295" type="curve" smooth="yes"/>
      <point x="237" y="0" type="line"/>
      <point x="417" y="0" type="line"/>
      <point x="417" y="295" type="line" smooth="yes"/>
      <point x="417" y="350"/>
      <point x="417" y="367"/>
      <point x="415" y="393" type="curve"/>
      <point x="418" y="394" type="line"/>
      <point x="434" y="383"/>
      <point x="462" y="368"/>
      <point x="481" y="357" type="curve" smooth="yes"/>
    </contour>
  </outline>
</glyph>
<glyph name="partialdiff" format="1">
  <advance width="538"/>
  <unicode hex="2202"/>
  <outline>
    <contour>
      <point x="342" y="439" type="curve"/>
      <point x="342" y="240"/>
      <point x="322" y="154"/>
      <point x="246" y="154" type="curve"/>
      <point x="203" y="154"/>
      <point x="187" y="175"/>
      <point x="187" y="215" type="curve" smooth="yes"/>
      <point x="187" y="255"/>
      <point x="200" y="314"/>
      <point x="265" y="314" type="curve"/>
      <point x="306" y="314"/>
      <point x="331" y="305"/>
      <point x="367" y="285" type="curve"/>
      <point x="373" y="417" type="line"/>
      <point x="320" y="443"/>
      <point x="282" y="448"/>
      <point x="233" y="448" type="curve"/>
      <point x="83" y="448"/>
      <point x="7" y="340"/>
      <point x="7" y="197" type="curve" smooth="yes"/>
      <point x="7" y="63"/>
      <point x="81" y="-10"/>
      <point x="216" y="-10" type="curve"/>
      <point x="478" y="-10"/>
      <point x="518" y="241"/>
      <point x="518" y="442" type="curve"/>
      <point x="518" y="602"/>
      <point x="444" y="674"/>
      <point x="274" y="674" type="curve"/>
      <point x="227" y="674"/>
      <point x="167" y="669"/>
      <point x="113" y="657" type="curve"/>
      <point x="113" y="512" type="line"/>
      <point x="156" y="521"/>
      <point x="204" y="525"/>
      <point x="236" y="525" type="curve"/>
      <point x="325" y="525"/>
      <point x="342" y="500"/>
    </contour>
  </outline>
</glyph>
<glyph name="product" format="1">
  <advance width="608"/>
  <unicode hex="220F"/>
  <outline>
    <contour>
      <point x="268" y="-152" type="line"/>
      <point x="268" y="487" type="line"/>
      <point x="87" y="487" type="line"/>
      <point x="87" y="-152" type="line"/>
    </contour>
    <contour>
      <point x="521" y="-152" type="line"/>
      <point x="521" y="487" type="line"/>
      <point x="341" y="487" type="line"/>
      <point x="341" y="-152" type="line"/>
    </contour>
    <contour>
      <point x="16" y="627" type="line"/>
      <point x="16" y="453" type="line"/>
      <point x="592" y="453" type="line"/>
      <point x="592" y="627" type="line"/>
    </contour>
  </outline>
</glyph>
<glyph name="summation" format="1">
  <advance width="527"/>
  <unicode hex="2211"/>
  <outline>
    <contour>
      <point x="15" y="22" type="line"/>
      <point x="15" y="-152" type="line"/>
      <point x="511" y="-152" type="line"/>
      <point x="511" y="22" type="line"/>
      <point x="256" y="22" type="line"/>
      <point x="452" y="238" type="line"/>
      <point x="283" y="453" type="line"/>
      <point x="491" y="453" type="line"/>
      <point x="491" y="627" type="line"/>
      <point x="40" y="627" type="line"/>
      <point x="40" y="453" type="line"/>
      <point x="226" y="238" type="line"/>
    </contour>
  </outline>
</glyph>
<glyph name="radical" format="1">
  <advance width="658"/>
  <unicode hex="221A"/>
  <outline>
    <contour>
      <point x="212" y="-152" type="line"/>
      <point x="316" y="-152" type="line"/>
      <point x="316" y="23" type="line"/>
      <point x="235" y="327" type="line"/>
      <point x="34" y="327" type="line"/>
    </contour>
    <contour>
      <point x="420" y="-152" type="line"/>
      <point x="669" y="779" type="line"/>
      <point x="472" y="779" type="line"/>
      <point x="287" y="23" type="line"/>
      <point x="287" y="-152" type="line"/>
    </contour>
    <contour>
      <point x="2" y="327" type="line"/>
      <point x="2" y="153" type="line"/>
      <point x="203" y="153" type="line"/>
      <point x="203" y="327" type="line"/>
    </contour>
  </outline>
</glyph>
<glyph name="infinity" format="1">
  <advance width="937"/>
  <unicode hex="221E"/>
  <outline>
    <contour>
      <point x="686" y="89" type="curve" smooth="yes"/>
      <point x="830" y="89"/>
      <point x="918" y="192"/>
      <point x="918" y="317" type="curve" smooth="yes"/>
      <point x="918" y="442"/>
      <point x="832" y="545"/>
      <point x="686" y="545" type="curve" smooth="yes"/>
      <point x="624" y="545"/>
      <point x="567" y="522"/>
      <point x="525" y="479" type="curve" smooth="yes"/>
      <point x="469" y="421" type="line"/>
      <point x="412" y="479" type="line" smooth="yes"/>
      <point x="369" y="522"/>
      <point x="311" y="545"/>
      <point x="251" y="545" type="curve" smooth="yes"/>
      <point x="106" y="545"/>
      <point x="19" y="442"/>
      <point x="19" y="317" type="curve" smooth="yes"/>
      <point x="19" y="192"/>
      <point x="105" y="89"/>
      <point x="251" y="89" type="curve" smooth="yes"/>
      <point x="311" y="89"/>
      <point x="369" y="113"/>
      <point x="412" y="157" type="curve" smooth="yes"/>
      <point x="469" y="213" type="line"/>
      <point x="525" y="157" type="line" smooth="yes"/>
      <point x="567" y="112"/>
      <point x="624" y="89"/>
    </contour>
    <contour>
      <point x="571" y="317" type="line"/>
      <point x="628" y="375" type="line" smooth="yes"/>
      <point x="644" y="390"/>
      <point x="664" y="399"/>
      <point x="686" y="399" type="curve" smooth="yes"/>
      <point x="730" y="399"/>
      <point x="767" y="368"/>
      <point x="767" y="317" type="curve" smooth="yes"/>
      <point x="767" y="268"/>
      <point x="730" y="236"/>
      <point x="686" y="236" type="curve" smooth="yes"/>
      <point x="664" y="236"/>
      <point x="644" y="245"/>
      <point x="628" y="260" type="curve" smooth="yes"/>
    </contour>
    <contour>
      <point x="307" y="375" type="curve" smooth="yes"/>
      <point x="365" y="317" type="line"/>
      <point x="307" y="260" type="line" smooth="yes"/>
      <point x="293" y="245"/>
      <point x="273" y="236"/>
      <point x="251" y="236" type="curve" smooth="yes"/>
      <point x="207" y="236"/>
      <point x="170" y="268"/>
      <point x="170" y="317" type="curve" smooth="yes"/>
      <point x="170" y="368"/>
      <point x="207" y="399"/>
      <point x="251" y="399" type="curve" smooth="yes"/>
      <point x="273" y="399"/>
      <point x="293" y="390"/>
    </contour>
  </outline>
</glyph>
<glyph name="integral" format="1">
  <advance width="462"/>
  <unicode hex="222B"/>
  <outline>
    <contour>
      <point x="284" y="43" type="curve" smooth="yes"/>
      <point x="361" y="563" type="line" smooth="yes"/>
      <point x="365" y="592"/>
      <point x="378" y="605"/>
      <point x="408" y="605" type="curve" smooth="yes"/>
      <point x="460" y="605" type="line"/>
      <point x="460" y="779" type="line"/>
      <point x="391" y="779" type="line" smooth="yes"/>
      <point x="252" y="779"/>
      <point x="197" y="721"/>
      <point x="176" y="584" type="curve" smooth="yes"/>
      <point x="99" y="65" type="line" smooth="yes"/>
      <point x="95" y="36"/>
      <point x="82" y="22"/>
      <point x="53" y="22" type="curve" smooth="yes"/>
      <point x="2" y="22" type="line"/>
      <point x="2" y="-152" type="line"/>
      <point x="70" y="-152" type="line" smooth="yes"/>
      <point x="209" y="-152"/>
      <point x="264" y="-94"/>
    </contour>
  </outline>
</glyph>
<glyph name="approxequal" format="1">
  <advance width="500"/>
  <unicode hex="2248"/>
  <outline>
    <contour>
      <point x="463" y="130" type="curve"/>
      <point x="463" y="279" type="line"/>
      <point x="429" y="248"/>
      <point x="397" y="237"/>
      <point x="367" y="237" type="curve" smooth="yes"/>
      <point x="285" y="237"/>
      <point x="214" y="321"/>
      <point x="133" y="321" type="curve" smooth="yes"/>
      <point x="103" y="321"/>
      <point x="71" y="310"/>
      <point x="37" y="279" type="curve"/>
      <point x="37" y="130" type="line"/>
      <point x="71" y="161"/>
      <point x="103" y="172"/>
      <point x="133" y="172" type="curve" smooth="yes"/>
      <point x="215" y="172"/>
      <point x="286" y="88"/>
      <point x="367" y="88" type="curve" smooth="yes"/>
      <point x="397" y="88"/>
      <point x="429" y="99"/>
    </contour>
    <contour>
      <point x="463" y="343" type="curve"/>
      <point x="463" y="492" type="line"/>
      <point x="429" y="461"/>
      <point x="397" y="450"/>
      <point x="367" y="450" type="curve" smooth="yes"/>
      <point x="285" y="450"/>
      <point x="214" y="534"/>
      <point x="133" y="534" type="curve" smooth="yes"/>
      <point x="103" y="534"/>
      <point x="71" y="523"/>
      <point x="37" y="492" type="curve"/>
      <point x="37" y="343" type="line"/>
      <point x="71" y="374"/>
      <point x="103" y="385"/>
      <point x="133" y="385" type="curve" smooth="yes"/>
      <point x="215" y="385"/>
      <point x="286" y="301"/>
      <point x="367" y="301" type="curve" smooth="yes"/>
      <point x="397" y="301"/>
      <point x="429" y="312"/>
    </contour>
  </outline>
</glyph>
<glyph name="lessequal" format="1">
  <advance width="500"/>
  <unicode hex="2264"/>
  <outline>
    <contour>
      <point x="463" y="476" type="line"/>
      <point x="463" y="643" type="line"/>
      <point x="37" y="365" type="line"/>
      <point x="121" y="272" type="line"/>
    </contour>
    <contour>
      <point x="463" y="227" type="line"/>
      <point x="463" y="365" type="line"/>
      <point x="37" y="365" type="line"/>
      <point x="37" y="227" type="line"/>
    </contour>
    <component base="minus" yOffset="-222"/>
  </outline>
</glyph>
<glyph name="lozenge" format="1">
  <advance width="662"/>
  <unicode hex="25CA"/>
  <outline>
    <contour>
      <point x="335" y="52" type="line"/>
      <point x="205" y="323" type="line"/>
      <point x="327" y="579" type="line"/>
      <point x="457" y="309" type="line"/>
    </contour>
    <contour>
      <point x="246" y="-152" type="line"/>
      <point x="416" y="-152" type="line"/>
      <point x="655" y="316" type="line"/>
      <point x="417" y="775" type="line"/>
      <point x="245" y="775" type="line"/>
      <point x="8" y="316" type="line"/>
    </contour>
  </outline>
</glyph>
<glyph name="breve.uc" format="1">
  <advance width="387"/>
  <outline>
    <contour>
      <point x="337" y="670" type="curve"/>
      <point x="236" y="670" type="line"/>
      <point x="236" y="642"/>
      <point x="221" y="629"/>
      <point x="194" y="629" type="curve" smooth="yes"/>
      <point x="167" y="629"/>
      <point x="152" y="642"/>
      <point x="152" y="670" type="curve"/>
      <point x="50" y="670" type="line"/>
      <point x="50" y="586"/>
      <point x="108" y="537"/>
      <point x="194" y="537" type="curve" smooth="yes"/>
      <point x="280" y="537"/>
      <point x="337" y="587"/>
    </contour>
    <contour>
      <point x="194" y="530" type="move" name="_top"/>
    </contour>
  </outline>
</glyph>
<glyph name="caron.alt" format="1">
  <advance width="135"/>
  <outline>
    <contour>
      <point x="167" y="525" type="curve" smooth="yes"/>
      <point x="187" y="665" type="line"/>
      <point x="42" y="665" type="line"/>
      <point x="42" y="467" type="line"/>
      <point x="96" y="467" type="line" smooth="yes"/>
      <point x="134" y="467"/>
      <point x="163" y="489"/>
    </contour>
    <contour>
      <point x="42" y="665" type="move" name="_caronalt"/>
    </contour>
  </outline>
</glyph>
<glyph name="caron.uc" format="1">
  <advance width="469"/>
  <outline>
    <component base="circumflex.uc" xScale="-1.0" yScale="-1.0" xOffset="469" yOffset="1214"/>
    <contour>
      <point x="235" y="530" type="move" name="_top"/>
    </contour>
  </outline>
</glyph>
<glyph name="circumflex.uc" format="1">
  <advance width="469"/>
  <outline>
    <contour>
      <point x="289" y="544" type="line"/>
      <point x="419" y="544" type="line"/>
      <point x="312" y="670" type="line"/>
      <point x="157" y="670" type="line"/>
      <point x="50" y="544" type="line"/>
      <point x="180" y="544" type="line"/>
      <point x="234" y="593" type="line"/>
    </contour>
    <contour>
      <point x="234" y="530" type="move" name="_top"/>
    </contour>
  </outline>
</glyph>
<glyph name="dieresis.uc" format="1">
  <advance width="435"/>
  <outline>
    <contour>
      <point x="385" y="544" type="line"/>
      <point x="385" y="664" type="line"/>
      <point x="240" y="664" type="line"/>
      <point x="240" y="544" type="line"/>
    </contour>
    <contour>
      <point x="195" y="544" type="line"/>
      <point x="195" y="664" type="line"/>
      <point x="50" y="664" type="line"/>
      <point x="50" y="544" type="line"/>
    </contour>
    <contour>
      <point x="218" y="530" type="move" name="_top"/>
    </contour>
  </outline>
</glyph>
<glyph name="eight.tf" format="1">
  <advance width="500"/>
  <outline>
    <contour>
      <point x="250" y="-11" type="curve"/>
      <point x="407" y="-11"/>
      <point x="474" y="44"/>
      <point x="474" y="172" type="curve"/>
      <point x="474" y="244"/>
      <point x="445" y="303"/>
      <point x="383" y="326" type="curve"/>
      <point x="447" y="353"/>
      <point x="464" y="407"/>
      <point x="464" y="468" type="curve"/>
      <point x="464" y="593"/>
      <point x="407" y="638"/>
      <point x="250" y="638" type="curve"/>
      <point x="100" y="638"/>
      <point x="36" y="588"/>
      <point x="36" y="470" type="curve"/>
      <point x="35" y="404"/>
      <point x="55" y="352"/>
      <point x="119" y="326" type="curve"/>
      <point x="56" y="303"/>
      <point x="26" y="246"/>
      <point x="26" y="174" type="curve"/>
      <point x="26" y="39"/>
      <point x="91" y="-11"/>
    </contour>
    <contour>
      <point x="250" y="490" type="curve"/>
      <point x="290" y="490"/>
      <point x="305" y="476"/>
      <point x="305" y="441" type="curve"/>
      <point x="305" y="404"/>
      <point x="289" y="389"/>
      <point x="250" y="389" type="curve"/>
      <point x="212" y="389"/>
      <point x="195" y="404"/>
      <point x="195" y="441" type="curve"/>
      <point x="195" y="477"/>
      <point x="211" y="490"/>
    </contour>
    <contour>
      <point x="250" y="247" type="curve"/>
      <point x="291" y="247"/>
      <point x="307" y="233"/>
      <point x="307" y="196" type="curve"/>
      <point x="307" y="158"/>
      <point x="291" y="143"/>
      <point x="250" y="143" type="curve"/>
      <point x="209" y="143"/>
      <point x="193" y="158"/>
      <point x="193" y="196" type="curve"/>
      <point x="193" y="233"/>
      <point x="209" y="247"/>
    </contour>
  </outline>
</glyph>
<glyph name="f.alt" format="1">
  <advance width="344"/>
  <outline>
    <contour>
      <point x="349" y="665" type="line"/>
      <point x="335" y="668"/>
      <point x="296" y="675"/>
      <point x="248" y="675" type="curve"/>
      <point x="137" y="675"/>
      <point x="69" y="616"/>
      <point x="69" y="497" type="curve"/>
      <point x="69" y="0" type="line"/>
      <point x="249" y="0" type="line"/>
      <point x="249" y="504" type="line"/>
      <point x="249" y="535"/>
      <point x="259" y="543"/>
      <point x="296" y="543" type="curve"/>
      <point x="314" y="543"/>
      <point x="336" y="541"/>
      <point x="349" y="539" type="curve"/>
    </contour>
    <contour>
      <point x="18" y="345" type="line"/>
      <point x="334" y="345" type="line"/>
      <point x="334" y="494" type="line"/>
      <point x="18" y="494" type="line"/>
    </contour>
  </outline>
</glyph>
<glyph name="five.osf" format="1">
  <advance width="449"/>
  <outline>
    <contour>
      <point x="218" y="-162" type="curve"/>
      <point x="342" y="-162"/>
      <point x="433" y="-100"/>
      <point x="433" y="48" type="curve" smooth="yes"/>
      <point x="433" y="211"/>
      <point x="364" y="245"/>
      <point x="282" y="245" type="curve" smooth="yes"/>
      <point x="265" y="245"/>
      <point x="248" y="244"/>
      <point x="230" y="242" type="curve"/>
      <point x="230" y="326" type="line"/>
      <point x="393" y="326" type="line"/>
      <point x="393" y="494" type="line"/>
      <point x="45" y="494" type="line"/>
      <point x="45" y="95" type="line"/>
      <point x="87" y="103"/>
      <point x="123" y="104"/>
      <point x="170" y="104" type="curve" smooth="yes"/>
      <point x="231" y="104"/>
      <point x="246" y="93"/>
      <point x="246" y="54" type="curve" smooth="yes"/>
      <point x="246" y="21"/>
      <point x="229" y="8"/>
      <point x="175" y="8" type="curve"/>
      <point x="116" y="8"/>
      <point x="74" y="10"/>
      <point x="22" y="20" type="curve"/>
      <point x="22" y="-141" type="line"/>
      <point x="58" y="-154"/>
      <point x="129" y="-162"/>
    </contour>
  </outline>
</glyph>
<glyph name="five.tf" format="1">
  <advance width="500"/>
  <outline>
    <contour>
      <point x="241" y="-11" type="curve"/>
      <point x="376" y="-11"/>
      <point x="472" y="51"/>
      <point x="472" y="195" type="curve" smooth="yes"/>
      <point x="472" y="354"/>
      <point x="397" y="387"/>
      <point x="307" y="387" type="curve" smooth="yes"/>
      <point x="287" y="387"/>
      <point x="263" y="386"/>
      <point x="249" y="384" type="curve"/>
      <point x="249" y="460" type="line"/>
      <point x="429" y="460" type="line"/>
      <point x="429" y="628" type="line"/>
      <point x="59" y="628" type="line"/>
      <point x="59" y="238" type="line"/>
      <point x="105" y="245"/>
      <point x="145" y="245"/>
      <point x="197" y="246" type="curve" smooth="yes"/>
      <point x="262" y="246"/>
      <point x="281" y="236"/>
      <point x="281" y="201" type="curve" smooth="yes"/>
      <point x="281" y="172"/>
      <point x="261" y="159"/>
      <point x="200" y="159" type="curve"/>
      <point x="139" y="159"/>
      <point x="89" y="162"/>
      <point x="36" y="171" type="curve"/>
      <point x="36" y="11" type="line"/>
      <point x="73" y="-3"/>
      <point x="155" y="-11"/>
    </contour>
  </outline>
</glyph>
<glyph name="four.osf" format="1">
  <advance width="532"/>
  <outline>
    <contour>
      <point x="517" y="-15" type="line"/>
      <point x="517" y="147" type="line"/>
      <point x="457" y="147" type="line"/>
      <point x="457" y="381" type="line"/>
      <point x="296" y="381" type="line"/>
      <point x="281" y="147" type="line"/>
      <point x="211" y="147" type="line"/>
      <point x="270" y="494" type="line"/>
      <point x="93" y="494" type="line"/>
      <point x="24" y="147" type="line"/>
      <point x="24" y="-15" type="line"/>
      <point x="271" y="-15" type="line"/>
      <point x="271" y="-152" type="line"/>
      <point x="457" y="-152" type="line"/>
      <point x="457" y="-15" type="line"/>
    </contour>
  </outline>
</glyph>
<glyph name="hungarumlaut.uc" format="1">
  <advance width="564"/>
  <outline>
    <contour>
      <point x="314" y="670" type="line"/>
      <point x="152" y="670" type="line"/>
      <point x="47" y="544" type="line"/>
      <point x="175" y="544" type="line"/>
    </contour>
    <contour>
      <point x="511" y="670" type="line"/>
      <point x="348" y="670" type="line"/>
      <point x="244" y="544" type="line"/>
      <point x="372" y="544" type="line"/>
    </contour>
    <contour>
      <point x="250" y="530" type="move" name="_top"/>
    </contour>
  </outline>
</glyph>
<glyph name="nine.osf" format="1">
  <advance width="507"/>
  <outline>
    <contour>
      <point x="485" y="188" type="curve"/>
      <point x="485" y="426"/>
      <point x="422" y="504"/>
      <point x="241" y="504" type="curve"/>
      <point x="95" y="504"/>
      <point x="14" y="418"/>
      <point x="14" y="272" type="curve"/>
      <point x="14" y="131"/>
      <point x="69" y="68"/>
      <point x="179" y="68" type="curve"/>
      <point x="250" y="68"/>
      <point x="297" y="98"/>
      <point x="317" y="109" type="curve"/>
      <point x="317" y="232" type="line"/>
      <point x="302" y="223"/>
      <point x="280" y="211"/>
      <point x="243" y="211" type="curve"/>
      <point x="204" y="211"/>
      <point x="188" y="222"/>
      <point x="188" y="277" type="curve"/>
      <point x="188" y="325"/>
      <point x="207" y="347"/>
      <point x="243" y="347" type="curve"/>
      <point x="296" y="347"/>
      <point x="302" y="322"/>
      <point x="302" y="207" type="curve"/>
      <point x="302" y="31"/>
      <point x="280" y="-4"/>
      <point x="173" y="-4" type="curve"/>
      <point x="124" y="-4"/>
      <point x="89" y="-1"/>
      <point x="67" y="2" type="curve"/>
      <point x="67" y="-153" type="line"/>
      <point x="86" y="-159"/>
      <point x="137" y="-163"/>
      <point x="179" y="-163" type="curve"/>
      <point x="385" y="-163"/>
      <point x="485" y="-54"/>
    </contour>
  </outline>
</glyph>
<glyph name="nine.tf" format="1">
  <advance width="500"/>
  <outline>
    <contour>
      <point x="478" y="330" type="curve"/>
      <point x="478" y="562"/>
      <point x="416" y="638"/>
      <point x="239" y="638" type="curve"/>
      <point x="96" y="638"/>
      <point x="17" y="554"/>
      <point x="17" y="411" type="curve"/>
      <point x="17" y="273"/>
      <point x="70" y="212"/>
      <point x="177" y="212" type="curve"/>
      <point x="245" y="212"/>
      <point x="292" y="240"/>
      <point x="312" y="252" type="curve"/>
      <point x="312" y="375" type="line"/>
      <point x="298" y="367"/>
      <point x="277" y="354"/>
      <point x="241" y="354" type="curve"/>
      <point x="203" y="354"/>
      <point x="189" y="365"/>
      <point x="189" y="416" type="curve"/>
      <point x="189" y="461"/>
      <point x="206" y="481"/>
      <point x="241" y="481" type="curve"/>
      <point x="292" y="481"/>
      <point x="297" y="457"/>
      <point x="297" y="347" type="curve"/>
      <point x="297" y="181"/>
      <point x="275" y="149"/>
      <point x="172" y="149" type="curve"/>
      <point x="124" y="149"/>
      <point x="90" y="152"/>
      <point x="69" y="155" type="curve"/>
      <point x="69" y="-1" type="line"/>
      <point x="88" y="-6"/>
      <point x="137" y="-10"/>
      <point x="178" y="-10" type="curve"/>
      <point x="379" y="-10"/>
      <point x="478" y="96"/>
    </contour>
  </outline>
</glyph>
<glyph name="ogonek.alt" format="1">
  <advance width="327"/>
  <outline>
    <contour>
      <point x="285" y="43" type="curve"/>
      <point x="217" y="69" type="line"/>
      <point x="171" y="49"/>
      <point x="77" y="-1"/>
      <point x="77" y="-83" type="curve"/>
      <point x="77" y="-149"/>
      <point x="116" y="-183"/>
      <point x="194" y="-183" type="curve"/>
      <point x="235" y="-183"/>
      <point x="268" y="-173"/>
      <point x="274" y="-172" type="curve"/>
      <point x="274" y="-75" type="line"/>
      <point x="262" y="-77"/>
      <point x="246" y="-79"/>
      <point x="233" y="-79" type="curve"/>
      <point x="205" y="-79"/>
      <point x="192" y="-72"/>
      <point x="192" y="-52" type="curve"/>
      <point x="192" y="-20"/>
      <point x="232" y="6"/>
    </contour>
    <contour>
      <point x="285" y="43" type="move" name="_ogonekalt"/>
    </contour>
  </outline>
</glyph>
<glyph name="ring.uc" format="1">
  <advance width="341"/>
  <outline>
    <contour>
      <point x="169" y="607" type="curve" smooth="yes"/>
      <point x="146" y="607"/>
      <point x="132" y="618"/>
      <point x="132" y="634" type="curve" smooth="yes"/>
      <point x="132" y="651"/>
      <point x="146" y="661"/>
      <point x="169" y="661" type="curve" smooth="yes"/>
      <point x="193" y="661"/>
      <point x="207" y="651"/>
      <point x="207" y="634" type="curve" smooth="yes"/>
      <point x="207" y="618"/>
      <point x="193" y="607"/>
    </contour>
    <contour>
      <point x="169" y="537" type="curve" smooth="yes"/>
      <point x="243" y="537"/>
      <point x="291" y="574"/>
      <point x="291" y="634" type="curve" smooth="yes"/>
      <point x="291" y="694"/>
      <point x="244" y="729"/>
      <point x="169" y="729" type="curve" smooth="yes"/>
      <point x="95" y="729"/>
      <point x="48" y="694"/>
      <point x="48" y="634" type="curve" smooth="yes"/>
      <point x="48" y="574"/>
      <point x="96" y="537"/>
    </contour>
    <contour>
      <point x="169" y="530" type="move" name="_top"/>
    </contour>
  </outline>
</glyph>
<glyph name="seven.osf" format="1">
  <advance width="450"/>
  <outline>
    <contour>
      <point x="435" y="326" type="line"/>
      <point x="435" y="494" type="line"/>
      <point x="22" y="494" type="line"/>
      <point x="22" y="326" type="line"/>
      <point x="236" y="326" type="line"/>
      <point x="6" y="-152" type="line"/>
      <point x="216" y="-152" type="line"/>
    </contour>
  </outline>
</glyph>
<glyph name="seven.tf" format="1">
  <advance width="500"/>
  <outline>
    <contour>
      <point x="476" y="460" type="line"/>
      <point x="476" y="628" type="line"/>
      <point x="31" y="628" type="line"/>
      <point x="31" y="460" type="line"/>
      <point x="277" y="460" type="line"/>
      <point x="17" y="0" type="line"/>
      <point x="227" y="0" type="line"/>
    </contour>
  </outline>
</glyph>
<glyph name="six.tf" format="1">
  <advance width="500"/>
  <outline>
    <contour>
      <point x="23" y="297" type="curve"/>
      <point x="23" y="66"/>
      <point x="85" y="-11"/>
      <point x="265" y="-11" type="curve"/>
      <point x="405" y="-11"/>
      <point x="482" y="73"/>
      <point x="482" y="216" type="curve"/>
      <point x="482" y="354"/>
      <point x="430" y="416"/>
      <point x="325" y="416" type="curve"/>
      <point x="250" y="416"/>
      <point x="206" y="385"/>
      <point x="188" y="374" type="curve"/>
      <point x="188" y="257" type="line"/>
      <point x="202" y="263"/>
      <point x="233" y="272"/>
      <point x="260" y="272" type="curve"/>
      <point x="296" y="272"/>
      <point x="311" y="261"/>
      <point x="311" y="210" type="curve"/>
      <point x="311" y="166"/>
      <point x="294" y="147"/>
      <point x="260" y="147" type="curve"/>
      <point x="208" y="147"/>
      <point x="203" y="170"/>
      <point x="203" y="280" type="curve"/>
      <point x="203" y="447"/>
      <point x="225" y="480"/>
      <point x="328" y="480" type="curve"/>
      <point x="375" y="480"/>
      <point x="408" y="476"/>
      <point x="428" y="473" type="curve"/>
      <point x="428" y="628" type="line"/>
      <point x="410" y="634"/>
      <point x="362" y="638"/>
      <point x="322" y="638" type="curve"/>
      <point x="121" y="638"/>
      <point x="23" y="532"/>
    </contour>
  </outline>
</glyph>
